<svg id="Layer_1" data-name="Layer 1" xmlns="http://www.w3.org/2000/svg" viewBox="0 0 49.9 50.1">
  <defs>
    <style>
      .cls-1 {
        fill: #db5b5a;
      }

      .cls-2 {
        fill: #fff;
      }
    </style>
  </defs>
  <g>
    <circle class="cls-1" cx="25" cy="25" r="25"/>
    <path class="cls-2" d="M30.1,14A3,3,0,0,0,36,14a3,3,0,1,0-5.9,0Z"/>
    <path class="cls-2" d="M27.1,37.2l-1.3-3.7a4.7,4.7,0,0,1-2.8.8c-3.6,0-5-4.1-5-8.3s1.2-8.4,5-8.4a4.6,4.6,0,0,1,2.9.8l1.2-3.5a8.9,8.9,0,0,0-5.4-1.4c-6.6,0-9.7,6.1-9.7,12.6s3,12.6,9.7,12.6A8.3,8.3,0,0,0,27.1,37.2Z"/>
    <path class="cls-2" d="M36,19.1H30.2V38.7H36Z"/>
  </g>
</svg>
