<svg id="Layer_1" data-name="Layer 1" xmlns="http://www.w3.org/2000/svg" viewBox="0 0 56 56">
  <defs>
    <style>
      .cls-1 {
        fill: #db5b5a;
      }
    </style>
  </defs>
  <g>
    <g>
      <rect class="cls-1" x="39.2" y="40.6" width="11.6" height="2" rx="1" transform="translate(106.3 39.2) rotate(135)"/>
      <rect class="cls-1" x="39.2" y="40.6" width="11.6" height="2" rx="1" transform="translate(42.6 -19.6) rotate(45)"/>
    </g>
    <path class="cls-1" d="M45,56h-.3a15.1,15.1,0,0,1-6.5-4H1a.9.9,0,0,1-1-1V10.7H0l.2-.3,7-10A1.2,1.2,0,0,1,8,0H38a1.2,1.2,0,0,1,.8.4l7,10,.2.3h0V29.3L55.3,32a1.2,1.2,0,0,1,.7,1v8.6A15,15,0,0,1,45.3,56Zm-5.6-5.7A12.5,12.5,0,0,0,45,54a13,13,0,0,0,9-12.4V33.7L45,31l-9,2.7v7.9a12.9,12.9,0,0,0,3.4,8.7ZM2,50H36.6A14.9,14.9,0,0,1,34,41.6V33a1.2,1.2,0,0,1,.7-1L44,29.3V12H29v7a.9.9,0,0,1-1,1H18a.9.9,0,0,1-1-1V12H2ZM19,18h8V12H19Zm9.8-8H43.1L37.5,2H27.2Zm-9.6,0h7.6L25.2,2H20.8ZM2.9,10H17.2l1.6-8H8.5ZM15,47H7a1,1,0,0,1,0-2h8a1,1,0,0,1,0,2Zm0-5H7a1,1,0,0,1,0-2h8a1,1,0,0,1,0,2Z"/>
  </g>
</svg>
