<svg id="Layer_1" data-name="Layer 1" xmlns="http://www.w3.org/2000/svg" viewBox="0 0 20.2 27">
  <defs>
    <style>
      .cls-1 {
        fill: #4397a6;
      }
    </style>
  </defs>
  <path class="cls-1" d="M18.6,27H18a.5.5,0,0,1-.5-.5.6.6,0,0,0-.6-.6.6.6,0,0,0-.6.6.5.5,0,0,1-.5.5H13.5a.5.5,0,0,1-.5-.5.6.6,0,0,0-.6-.6.7.7,0,0,0-.7.6.5.5,0,0,1-.5.5H9a.5.5,0,0,1-.5-.5.7.7,0,0,0-.7-.6.6.6,0,0,0-.6.6.5.5,0,0,1-.5.5H4.5a.5.5,0,0,1-.5-.5.7.7,0,0,0-.7-.6.6.6,0,0,0-.6.6.5.5,0,0,1-.5.5H1.6A1.6,1.6,0,0,1,0,25.4V1.6A1.6,1.6,0,0,1,1.6,0h.6a.5.5,0,0,1,.5.5.6.6,0,0,0,.6.6A.7.7,0,0,0,4,.5.5.5,0,0,1,4.5,0H6.7a.5.5,0,0,1,.5.5.6.6,0,0,0,.6.6A.7.7,0,0,0,8.5.5.5.5,0,0,1,9,0h2.2a.5.5,0,0,1,.5.5.7.7,0,0,0,.7.6A.6.6,0,0,0,13,.5a.5.5,0,0,1,.5-.5h2.3a.5.5,0,0,1,.5.5.6.6,0,0,0,.6.6.6.6,0,0,0,.6-.6A.5.5,0,0,1,18,0h.6a1.6,1.6,0,0,1,1.6,1.6V25.4A1.6,1.6,0,0,1,18.6,27Zm-.2-1h.2a.6.6,0,0,0,.6-.6V1.6a.6.6,0,0,0-.6-.6h-.2a1.5,1.5,0,0,1-1.5,1.1A1.7,1.7,0,0,1,15.3,1H13.9a1.5,1.5,0,0,1-1.5,1.1A1.5,1.5,0,0,1,10.8,1H9.4A1.5,1.5,0,0,1,7.8,2.1,1.5,1.5,0,0,1,6.3,1H4.9A1.5,1.5,0,0,1,3.3,2.1,1.5,1.5,0,0,1,1.8,1H1.6a.6.6,0,0,0-.6.6V25.4a.6.6,0,0,0,.6.6h.2a1.5,1.5,0,0,1,1.5-1.1A1.5,1.5,0,0,1,4.9,26H6.3a1.5,1.5,0,0,1,1.5-1.1A1.5,1.5,0,0,1,9.4,26h1.4a1.5,1.5,0,0,1,1.6-1.1A1.5,1.5,0,0,1,13.9,26h1.4a1.7,1.7,0,0,1,1.6-1.1A1.5,1.5,0,0,1,18.4,26Zm-2.7-3.5h-1v-.7a1.5,1.5,0,0,1-1.1-1.5h1a.6.6,0,0,0,.6.6v0a.6.6,0,0,0,.6-.6.6.6,0,0,0-.6-.6A1.7,1.7,0,0,1,13.6,18a1.5,1.5,0,0,1,1.1-1.5v-.7h1v.7A1.5,1.5,0,0,1,16.8,18h-1a.6.6,0,0,0-.6-.6v0a.6.6,0,0,0-.6.6c0,.4.2.7.6.7a1.6,1.6,0,0,1,1.6,1.6,1.5,1.5,0,0,1-1.1,1.5Zm-4.5-2.3H3.3v-1h7.9Zm0-3.4H3.3v-1h7.9Zm5.7-4.5H3.3v-1H16.9Zm0-3.4H3.3v-1H16.9Zm0-3.4H3.3v-1H16.9Z"/>
</svg>
