<svg id="Layer_1" data-name="Layer 1" xmlns="http://www.w3.org/2000/svg" viewBox="0 0 436 88">
  <defs>
    <style>
      .cls-1 {
        fill: #61a331;
      }

      .cls-2 {
        fill: #fff;
      }

      .cls-3 {
        fill: #4397a6;
      }
    </style>
  </defs>
  <path class="cls-1" d="M412,85H30a2,2,0,0,1,0-4H412a2,2,0,0,1,0,4Z"/>
  <path class="cls-1" d="M283.5,85h-125a2,2,0,0,1,0-4h125a2,2,0,0,1,0,4Z"/>
  <path class="cls-1" d="M155,85H30a2,2,0,0,1,0-4H155a2,2,0,0,1,0,4Z"/>
  <g>
    <circle class="cls-2" cx="29" cy="83" r="3.5"/>
    <path class="cls-1" d="M29,88a5,5,0,1,1,5-5A5,5,0,0,1,29,88Zm0-7a2,2,0,1,0,2,2A2,2,0,0,0,29,81Z"/>
  </g>
  <g>
    <circle class="cls-2" cx="157" cy="83" r="3.5"/>
    <path class="cls-1" d="M157,88a5,5,0,1,1,5-5A5,5,0,0,1,157,88Zm0-7a2,2,0,1,0,2,2A2,2,0,0,0,157,81Z"/>
  </g>
  <g>
    <circle class="cls-2" cx="285" cy="83" r="3.5"/>
    <path class="cls-1" d="M285,88a5,5,0,1,1,5-5A5,5,0,0,1,285,88Zm0-7a2,2,0,1,0,2,2A2,2,0,0,0,285,81Z"/>
  </g>
  <g>
    <circle class="cls-2" cx="413" cy="83" r="3.5"/>
    <path class="cls-1" d="M413,88a5,5,0,1,1,5-5A5,5,0,0,1,413,88Zm0-7a2,2,0,1,0,2,2A2,2,0,0,0,413,81Z"/>
  </g>
  <path class="cls-3" d="M425,65h-.3a15.1,15.1,0,0,1-6.5-4H381a.9.9,0,0,1-1-1V19.7h0l.2-.3,7-10A1.2,1.2,0,0,1,388,9h30a1.2,1.2,0,0,1,.8.4l7,10,.2.3h0V38.3l9.3,2.7a1.2,1.2,0,0,1,.7,1v8.6A15,15,0,0,1,425.3,65Zm-5.6-5.7A12.5,12.5,0,0,0,425,63a13,13,0,0,0,9-12.4V42.7L425,40l-9,2.7v7.9a12.9,12.9,0,0,0,3.4,8.7ZM382,59h34.6a14.9,14.9,0,0,1-2.6-8.4V42a1.2,1.2,0,0,1,.7-1l9.3-2.7V21H409v7a.9.9,0,0,1-1,1H398a.9.9,0,0,1-1-1V21H382Zm17-32h8V21h-8Zm9.8-8h14.3l-5.6-8H407.2Zm-9.6,0h7.6l-1.6-8h-4.4Zm-16.3,0h14.3l1.6-8H388.5ZM423,56a.9.9,0,0,1-.7-.3l-3-3a1,1,0,0,1,1.4-1.4l2.3,2.3,6.3-6.3a1,1,0,0,1,1.4,1.4l-7,7A.9.9,0,0,1,423,56Zm-28,0h-8a1,1,0,0,1,0-2h8a1,1,0,0,1,0,2Zm0-5h-8a1,1,0,0,1,0-2h8a1,1,0,0,1,0,2Z"/>
  <path class="cls-3" d="M267,62h0a7,7,0,0,1-7-7,7.8,7.8,0,0,1,.3-2.2l5.5-17.2A11.1,11.1,0,0,1,276.3,28H279V26.8a11,11,0,0,1-5.8-7.9A4.1,4.1,0,0,1,270,15V14a4,4,0,0,1,2-3.5V10a10.4,10.4,0,0,1,1.1-4.6,14.4,14.4,0,0,1,1.8-2.5A9.9,9.9,0,0,1,282,0h4a10,10,0,0,1,8.9,5.4A10.4,10.4,0,0,1,296,10v.5a4,4,0,0,1,2,3.5v1a4.1,4.1,0,0,1-3.2,3.9,11,11,0,0,1-5.8,7.9V28h2.7a11.1,11.1,0,0,1,10.5,7.6l5.5,17.2A7.8,7.8,0,0,1,308,55a6.7,6.7,0,0,1-2.1,4.9A6.5,6.5,0,0,1,301,62h-9a6,6,0,0,1-5.9-5h-4.2a6,6,0,0,1-5.9,5Zm21.1-5a4.1,4.1,0,0,0,3.9,3h8V54a4.1,4.1,0,0,0-3-3.9V56a.9.9,0,0,1-1,1ZM268,60h8a4.1,4.1,0,0,0,3.9-3H272a.9.9,0,0,1-1-1V50.1a4.1,4.1,0,0,0-3,3.9Zm29-11.9a6,6,0,0,1,5,5.9v5.9a5.2,5.2,0,0,0,2.5-1.4A4.7,4.7,0,0,0,306,55a7.8,7.8,0,0,0-.2-1.6l-5.5-17.1a9,9,0,0,0-8.6-6.3h-3.1a5,5,0,0,1-9.2,0h-3.1a9,9,0,0,0-8.6,6.3l-5.5,17.1A7.8,7.8,0,0,0,262,55a5,5,0,0,0,4,4.9V54a6,6,0,0,1,5-5.9V35a.9.9,0,0,1,1-1h24a.9.9,0,0,1,1,1ZM287,55h8V36h-7v5a.9.9,0,0,1-1,1h-6a.9.9,0,0,1-1-1V36h-7V55Zm-5-15h4V36h-4Zm-.9-11.2a3,3,0,0,0,5.8,0h0a1.5,1.5,0,0,0,.1-.7v-.4a12.2,12.2,0,0,1-6,0V28a1.5,1.5,0,0,0,.1.7Zm-.7-3.5a9.9,9.9,0,0,0,7.2,0h0A8.8,8.8,0,0,0,293,17V15.2a6.1,6.1,0,0,1-3,.8H278a6.1,6.1,0,0,1-3-.8V17a8.8,8.8,0,0,0,5.4,8.2Zm14.6-12v3.4a1.9,1.9,0,0,0,1-1.7V14a1.7,1.7,0,0,0-.6-1.4A2.5,2.5,0,0,1,295,13.3Zm-22.4-.7A1.7,1.7,0,0,0,272,14v1a1.9,1.9,0,0,0,1,1.7V13.3A2.5,2.5,0,0,1,272.6,12.6Zm2.2-.2A4.2,4.2,0,0,0,278,14h12a3.6,3.6,0,0,0,2.8-1.2.8.8,0,0,0,.4-.4h0a6.1,6.1,0,0,0,.7-1.4H274.1a6.1,6.1,0,0,0,.7,1.4ZM274.1,9h19.8a9.2,9.2,0,0,0-.8-2.7A8.1,8.1,0,0,0,286,2h-4a8.3,8.3,0,0,0-5.7,2.3,9,9,0,0,0-1.4,2A9.2,9.2,0,0,0,274.1,9Z"/>
  <path class="cls-3" d="M172,62a8,8,0,0,1-7.9-7H146.9a8,8,0,0,1-15.8,0H127a.9.9,0,0,1-1-1V43a.9.9,0,0,1,1-1h1V29a.9.9,0,0,1,1-1h15V15a.9.9,0,0,1,1-1h16a.9.9,0,0,1,1,1v8h15.5a5.1,5.1,0,0,1,4.5,2.8l5.9,11.7c0,.1.1.2.1.3V54a.9.9,0,0,1-1,1h-7.1A8,8,0,0,1,172,62Zm-6-8a6,6,0,1,0,6-6A6,6,0,0,0,166,54Zm-33,0a6,6,0,1,0,6-6A6,6,0,0,0,133,54Zm46.9-1H186V50a4,4,0,0,1,0-8V39H167a.9.9,0,0,1-1-1V28a.9.9,0,0,1,1-1h13.4l-.2-.3a2.8,2.8,0,0,0-2.7-1.7H162V53h2.1a8,8,0,0,1,15.8,0Zm-33,0H160V44H128v9h3.1a8,8,0,0,1,15.8,0ZM186,44a2,2,0,0,0,0,4Zm-40-2h14V30h-4v4a.9.9,0,0,1-1,1h-4a.9.9,0,0,1-1-1V30h-4Zm-16,0h14V30h-4v4a.9.9,0,0,1-1,1h-4a.9.9,0,0,1-1-1V30h-4Zm38-5h17.4l-4-8H168Zm-16-4h2V30h-2Zm-16,0h2V30h-2Zm19-5h5V16h-4v4a.9.9,0,0,1-1,1h-4a.9.9,0,0,1-1-1V16h-4V28Zm-3-9h2V16h-2Zm20,39a4,4,0,1,1,4-4A4,4,0,0,1,172,58Zm0-6a2,2,0,1,0,2,2A2,2,0,0,0,172,52Zm-33,6a4,4,0,1,1,4-4A4,4,0,0,1,139,58Zm0-6a2,2,0,1,0,2,2A2,2,0,0,0,139,52Zm30-9h-2a1,1,0,0,1,0-2h2a1,1,0,0,1,0,2Z"/>
  <path class="cls-3" d="M55,65H31a.9.9,0,0,1-1-1V61H1a.9.9,0,0,1-1-1V19.7H0l.2-.3,7-10A1.2,1.2,0,0,1,8,9H38a1.2,1.2,0,0,1,.8.4l7,10,.2.3h0V31h9a.9.9,0,0,1,1,1V64A.9.9,0,0,1,55,65ZM32,63H54V33H32ZM2,59H30V32a.9.9,0,0,1,1-1H44V21H29v7a.9.9,0,0,1-1,1H18a.9.9,0,0,1-1-1V21H2ZM19,27h8V21H19Zm9.8-8H43.1l-5.6-8H27.2Zm-9.6,0h7.6l-1.6-8H20.8ZM2.9,19H17.2l1.6-8H8.5ZM36,59a.9.9,0,0,1-.7-.3l-1-1a1,1,0,0,1,1.4-1.4l.3.3,2.3-2.3a1,1,0,0,1,1.4,1.4l-3,3A.9.9,0,0,1,36,59Zm15-1H43a1,1,0,0,1,0-2h8a1,1,0,0,1,0,2ZM15,56H7a1,1,0,0,1,0-2h8a1,1,0,0,1,0,2Zm21-3a.9.9,0,0,1-.7-.3l-1-1a1,1,0,0,1,1.4-1.4l.3.3,2.3-2.3a1,1,0,0,1,1.4,1.4l-3,3A.9.9,0,0,1,36,53Zm15-1H43a1,1,0,0,1,0-2h8a1,1,0,0,1,0,2ZM15,51H7a1,1,0,0,1,0-2h8a1,1,0,0,1,0,2Zm21-4a.9.9,0,0,1-.7-.3l-1-1a1,1,0,0,1,1.4-1.4l.3.3,2.3-2.3a1,1,0,0,1,1.4,1.4l-3,3A.9.9,0,0,1,36,47Zm15-1H43a1,1,0,0,1,0-2h8a1,1,0,0,1,0,2ZM36,41a.9.9,0,0,1-.7-.3l-1-1a1,1,0,0,1,1.4-1.4l.3.3,2.3-2.3a1,1,0,0,1,1.4,1.4l-3,3A.9.9,0,0,1,36,41Zm15-1H43a1,1,0,0,1,0-2h8a1,1,0,0,1,0,2Z"/>
</svg>
