<svg xmlns="http://www.w3.org/2000/svg" width="30" height="30" viewBox="0 0 30 30"><path d="M30 15.923l-3.75-7.385h-5.625v-3.692c0-1.015-.844-1.846-1.875-1.846h-16.875c-1.031 0-1.875.831-1.875 1.846v14.77l1.875 1.846h2.377c-.319.543-.502 1.173-.502 1.847 0 2.039 1.68 3.691 3.75 3.691s3.75-1.652 3.75-3.691c0-.674-.184-1.304-.502-1.847h10.379c-.318.543-.502 1.173-.502 1.847 0 2.039 1.68 3.691 3.75 3.691 2.071 0 3.75-1.652 3.75-3.691 0-.674-.184-1.304-.502-1.847h2.377v-5.539zm-9.375 0v-4.615h3.886l2.344 4.615h-6.23z" fill="#999"/></svg>