<svg id="Capa_1" data-name="Capa 1" xmlns="http://www.w3.org/2000/svg" viewBox="0 0 40 20.01" width="40px" height="20.008px"><defs><style>.cls-1{fill:#009baa;}.cls-2{fill:#fff;}</style></defs><path class="cls-1" d="M22.89.76A1.36,1.36,0,0,0,21,.78l-.58.59a1.36,1.36,0,0,0,0,1.93l1.43,1.4L32.69,15.33l2.22,2.18L40,20l-2.56-5-2.27-2.24L24.32,2.15l-.8-.78.63-.65,5,4.93.31-.32L24.15.08l-.95,1-.31-.3ZM39,19l-3.54-1.73,1.74-1.77Zm-4.12-5.9,2.07,2L35.06,17,33,15,27.73,9.85,29.59,8ZM24,2.48l5.26,5.15L27.41,9.54,22.14,4.38,20.71,3a.91.91,0,0,1,0-1.29l.58-.6a.91.91,0,0,1,1.29,0L24,2.48Z"/><path class="cls-2" d="M2.9.76A1.36,1.36,0,0,0,1,.78l-.58.59a1.36,1.36,0,0,0,0,1.93L1.84,4.7,12.7,15.33l2.22,2.18L20,20l-2.55-5-2.27-2.24L4.33,2.15l-.8-.78L4.16.72l5,4.93.32-.32L4.16.08l-1,1L2.9.75ZM19,19l-3.54-1.73,1.74-1.77Zm-4.12-5.9,2.07,2L15.07,17,13,15,7.74,9.85,9.6,8ZM4,2.48,9.28,7.63,7.42,9.54,2.15,4.38.72,3a.91.91,0,0,1,0-1.29l.58-.6a.91.91,0,0,1,1.29,0L4,2.48Z"/></svg>