<?xml version="1.0" encoding="utf-8"?>
<!-- Generator: Adobe Illustrator 16.0.0, SVG Export Plug-In . SVG Version: 6.00 Build 0)  -->
<!DOCTYPE svg PUBLIC "-//W3C//DTD SVG 1.0//EN" "http://www.w3.org/TR/2001/REC-SVG-20010904/DTD/svg10.dtd" [
	<!ENTITY ns_flows "http://ns.adobe.com/Flows/1.0/">
	<!ENTITY ns_extend "http://ns.adobe.com/Extensibility/1.0/">
	<!ENTITY ns_ai "http://ns.adobe.com/AdobeIllustrator/10.0/">
	<!ENTITY ns_graphs "http://ns.adobe.com/Graphs/1.0/">
]>
<svg version="1.0" id="Capa_1" xmlns:x="&ns_extend;" xmlns:i="&ns_ai;" xmlns:graph="&ns_graphs;"
	 xmlns="http://www.w3.org/2000/svg" xmlns:xlink="http://www.w3.org/1999/xlink" xmlns:a="http://ns.adobe.com/AdobeSVGViewerExtensions/3.0/"
	 x="0px" y="0px" width="40px" height="20px" viewBox="217.422 213.422 40 20" enable-background="new 217.422 213.422 40 20"
	 xml:space="preserve">
<g>
	<path fill="#FFFFFF" d="M237.299,217.224c-0.121-0.176-0.313-0.28-0.518-0.28h-14.439c-0.028,0-0.056,0.001-0.083,0.005
		l-0.594-1.82c-0.062-0.188-0.197-0.338-0.372-0.411l-2.995-1.25c-0.33-0.137-0.703,0.035-0.832,0.385
		c-0.129,0.351,0.033,0.747,0.362,0.884l2.72,1.135l3.329,10.195c-0.147,0.055-0.271,0.175-0.328,0.342l-0.963,2.841
		c-0.059,0.175-0.035,0.368,0.066,0.52c0.1,0.151,0.263,0.241,0.438,0.241h0.494c-0.306,0.362-0.494,0.84-0.494,1.364
		c0,1.128,0.864,2.045,1.925,2.045c1.062,0,1.926-0.917,1.926-2.045c0-0.524-0.188-1.002-0.494-1.364h4.197
		c-0.307,0.362-0.494,0.84-0.494,1.364c0,1.128,0.863,2.045,1.924,2.045c1.063,0,1.926-0.917,1.926-2.045
		c0-0.524-0.188-1.002-0.494-1.364h0.602c0.295,0,0.533-0.254,0.533-0.568c0-0.313-0.238-0.567-0.533-0.567h-10.256l0.596-1.76
		c0.078,0.034,0.16,0.055,0.248,0.055h9.412c0.277,0,0.525-0.191,0.609-0.474l2.674-8.863
		C237.453,217.627,237.42,217.401,237.299,217.224z M225.015,232.286c-0.472,0-0.855-0.408-0.855-0.909
		c0-0.502,0.384-0.909,0.855-0.909c0.473,0,0.855,0.407,0.855,0.909C225.871,231.878,225.488,232.286,225.015,232.286z
		 M232.074,232.286c-0.471,0-0.855-0.408-0.855-0.909c0-0.502,0.385-0.909,0.855-0.909c0.473,0,0.855,0.407,0.855,0.909
		C232.929,231.878,232.547,232.286,232.074,232.286z M235.437,219.842h-3.273v-1.534h3.736L235.437,219.842z M234.496,222.967
		h-2.332v-1.761h2.863L234.496,222.967z M227.922,222.967v-1.761h2.959v1.761H227.922z M230.881,224.331v1.478h-2.959v-1.478
		H230.881z M223.649,221.206h2.989v1.761h-2.413L223.649,221.206z M227.922,219.842v-1.534h2.959v1.534H227.922z M226.637,218.308
		v1.534h-3.435l-0.5-1.534H226.637z M224.67,224.331h1.968v1.478h-1.486L224.67,224.331z M232.164,225.808v-1.478h1.92l-0.445,1.478
		H232.164z"/>
</g>
<g>
	<path fill="#0099A8" d="M257.298,217.224c-0.121-0.176-0.313-0.279-0.518-0.279h-14.439c-0.027,0-0.056,0.001-0.082,0.005
		l-0.595-1.819c-0.062-0.188-0.197-0.339-0.372-0.412l-2.994-1.25c-0.33-0.137-0.703,0.035-0.832,0.386s0.033,0.747,0.362,0.884
		l2.72,1.136l3.33,10.195c-0.147,0.055-0.271,0.175-0.328,0.342l-0.963,2.841c-0.06,0.175-0.035,0.368,0.065,0.52
		s0.263,0.241,0.438,0.241h0.494c-0.306,0.362-0.494,0.84-0.494,1.364c0,1.128,0.864,2.045,1.925,2.045
		c1.062,0,1.926-0.917,1.926-2.045c0-0.524-0.188-1.002-0.494-1.364h4.197c-0.307,0.362-0.494,0.84-0.494,1.364
		c0,1.128,0.863,2.045,1.924,2.045c1.063,0,1.926-0.917,1.926-2.045c0-0.524-0.188-1.002-0.494-1.364h0.602
		c0.295,0,0.533-0.254,0.533-0.568c0-0.313-0.238-0.567-0.533-0.567H243.85l0.596-1.76c0.078,0.034,0.16,0.055,0.248,0.055h9.412
		c0.277,0,0.525-0.191,0.609-0.474l2.674-8.863C257.452,217.627,257.419,217.4,257.298,217.224z M245.014,232.286
		c-0.472,0-0.855-0.408-0.855-0.909c0-0.502,0.384-0.909,0.855-0.909c0.473,0,0.855,0.407,0.855,0.909
		C245.87,231.878,245.487,232.286,245.014,232.286z M252.073,232.286c-0.471,0-0.855-0.408-0.855-0.909
		c0-0.502,0.385-0.909,0.855-0.909c0.473,0,0.855,0.407,0.855,0.909C252.928,231.878,252.546,232.286,252.073,232.286z
		 M255.436,219.842h-3.273v-1.533h3.736L255.436,219.842z M254.495,222.967h-2.332v-1.761h2.863L254.495,222.967z M247.921,222.967
		v-1.761h2.959v1.761H247.921z M250.88,224.331v1.478h-2.959v-1.478H250.88z M243.647,221.206h2.989v1.761h-2.413L243.647,221.206z
		 M247.921,219.842v-1.533h2.959v1.533H247.921z M246.636,218.308v1.533h-3.435l-0.5-1.533H246.636z M244.669,224.331h1.968v1.478
		h-1.486L244.669,224.331z M252.163,225.808v-1.478h1.92l-0.445,1.478H252.163z"/>
</g>
</svg>
