<?xml version="1.0" encoding="utf-8"?>
<!-- Generator: Adobe Illustrator 16.0.0, SVG Export Plug-In . SVG Version: 6.00 Build 0)  -->
<!DOCTYPE svg PUBLIC "-//W3C//DTD SVG 1.1//EN" "http://www.w3.org/Graphics/SVG/1.1/DTD/svg11.dtd">
<svg version="1.1" id="Capa_1" xmlns="http://www.w3.org/2000/svg" xmlns:xlink="http://www.w3.org/1999/xlink" x="0px" y="0px"
	 width="90px" height="20px" viewBox="0 0 90 20" enable-background="new 0 0 90 20" xml:space="preserve">
<g>
	<path fill="#FFFFFF" d="M0,0v20h30V0H0z M28.732,1.338v0.989L15,12.527L1.267,2.33V1.338H28.732L28.732,1.338z M1.268,18.662V3.966
		l13.368,9.926c0.108,0.082,0.237,0.123,0.363,0.123c0.127,0,0.255-0.041,0.363-0.123l13.37-9.927v14.697H1.268L1.268,18.662z"/>
</g>
<g>
	<path fill="#0099A8" d="M30,0v20h30V0H30z M58.732,1.337v0.99L45,12.525L31.269,2.328V1.336L58.732,1.337L58.732,1.337z
		 M31.269,18.662V3.966l13.365,9.926c0.11,0.082,0.237,0.123,0.365,0.123s0.255-0.041,0.364-0.123l13.368-9.926v14.698H31.269
		V18.662z"/>
</g>
<g>
	<g id="XMLID_1_">
		<g>
			<polygon fill="#0099A8" points="90,0 90,1.46 75.005,12.53 60,1.38 60,0 			"/>
			<path fill="#0099A8" d="M75.365,13.899L90,2.96V20H60V2.96l14.635,10.939c0.114,0.08,0.237,0.12,0.37,0.12
				C75.128,14.02,75.261,13.979,75.365,13.899z"/>
			<path fill="#FFFFFF" d="M90,1.46v1.5L75.365,13.899c-0.104,0.08-0.236,0.12-0.359,0.12c-0.133,0-0.256-0.04-0.37-0.12L60,2.96
				V1.38l15.005,11.15L90,1.46z"/>
		</g>
		<g>
		</g>
	</g>
</g>
</svg>
