<?xml version="1.0" encoding="utf-8"?>
<!-- Generator: Adobe Illustrator 16.0.0, SVG Export Plug-In . SVG Version: 6.00 Build 0)  -->
<!DOCTYPE svg PUBLIC "-//W3C//DTD SVG 1.1//EN" "http://www.w3.org/Graphics/SVG/1.1/DTD/svg11.dtd">
<svg version="1.1" id="Capa_1" xmlns="http://www.w3.org/2000/svg" xmlns:xlink="http://www.w3.org/1999/xlink" x="0px" y="0px"
	 width="33px" height="36px" viewBox="6.172 0.4 33 36" enable-background="new 6.172 0.4 33 36" xml:space="preserve">
<g>
	<path fill="#010002" d="M33.967,6.338V1.097c0-0.384-0.311-0.693-0.692-0.693H19.685c-0.383,0-0.692,0.31-0.692,0.693
		c0,0.383,0.31,0.693,0.692,0.693h12.896v4.526"/>
	<path fill="#010002" d="M32.861,16.869v18.14H7.677V1.79h12.896c0.384,0,0.693-0.309,0.693-0.693c0-0.383-0.31-0.693-0.693-0.693
		H6.984c-0.383,0-0.693,0.31-0.693,0.693v34.607c0,0.383,0.311,0.692,0.693,0.692h26.57c0.383,0,0.694-0.31,0.694-0.692V16.869"/>
	<g>
		<path fill="#010002" d="M19.571,25.368c3.797-1.742,3.951-1.896,4.011-1.955L38.814,8.076c0.318-0.317,0.318-0.835,0-1.153
			l-1.585-1.585c-0.317-0.317-0.835-0.317-1.152,0L20.842,20.675c-0.066,0.064-0.219,0.219-1.819,4.17
			c-0.063,0.154-0.025,0.333,0.096,0.447C19.239,25.41,19.418,25.438,19.571,25.368z M36.651,5.914l1.587,1.585l-1.78,1.78
			l-1.584-1.584L36.651,5.914z M34.298,8.271l1.584,1.584L23.291,22.548l-1.585-1.584L34.298,8.271z M21.242,21.652l1.378,1.375
			c-0.529,0.266-1.467,0.708-2.452,1.165C20.586,23.177,20.997,22.201,21.242,21.652z"/>
	</g>
</g>
<line fill="none" stroke="#000000" stroke-width="0.8504" stroke-miterlimit="10" x1="35.034" y1="9.008" x2="22.393" y2="21.649"/>
</svg>
