<?xml version="1.0" encoding="utf-8"?>
<!-- Generator: Adobe Illustrator 16.0.0, SVG Export Plug-In . SVG Version: 6.00 Build 0)  -->
<!DOCTYPE svg PUBLIC "-//W3C//DTD SVG 1.1//EN" "http://www.w3.org/Graphics/SVG/1.1/DTD/svg11.dtd">
<svg version="1.1" id="Capa_1" xmlns="http://www.w3.org/2000/svg" xmlns:xlink="http://www.w3.org/1999/xlink" x="0px" y="0px"
	 width="30px" height="30px" viewBox="5 5 30 30" enable-background="new 5 5 30 30" xml:space="preserve">
<g>
	<g>
		<g>
			<path fill="#010002" d="M29.372,6.579l4.312,4.312l-1.313,1.312l-1.482-1.479c-0.099-0.103-0.265-0.103-0.368,0
				c-0.102,0.103-0.102,0.267,0,0.369l1.481,1.48l-1.061,1.062l-1.481-1.481c-0.102-0.101-0.268-0.101-0.369,0
				c-0.101,0.103-0.101,0.269,0,0.37l1.479,1.479l-1.202,1.202l-1.481-1.479c-0.1-0.104-0.268-0.103-0.369,0s-0.102,0.269,0,0.37
				l1.482,1.479l-1.162,1.162l-2.726-2.723c-0.101-0.103-0.268-0.103-0.368,0c-0.104,0.104-0.104,0.268,0,0.37l2.723,2.723
				l-1.682,1.683l-1.482-1.48c-0.102-0.103-0.267-0.103-0.369,0s-0.103,0.268,0,0.37l1.48,1.48l-0.289,0.287l0.742,0.738
				l8.557-8.557c0.41-0.407,0.41-1.071,0-1.48l-4.309-4.31c-0.409-0.408-1.072-0.408-1.482,0l-8.556,8.558l0.738,0.741L29.372,6.579
				z"/>
			<path fill="#010002" d="M18.899,25.674l-1.48-1.479c-0.104-0.101-0.269-0.101-0.371,0c-0.102,0.104-0.101,0.268,0,0.371
				l1.481,1.482l-1.683,1.68l-2.722-2.724c-0.103-0.104-0.268-0.104-0.371,0c-0.102,0.102-0.103,0.268,0,0.369l2.723,2.726
				l-1.161,1.161l-1.48-1.482c-0.101-0.101-0.267-0.101-0.37,0c-0.103,0.102-0.103,0.271,0,0.371l1.48,1.48l-1.204,1.202
				l-1.478-1.478c-0.103-0.104-0.269-0.104-0.37-0.002c-0.103,0.104-0.101,0.268,0,0.368l1.479,1.482l-1.06,1.061l-1.48-1.479
				c-0.102-0.104-0.267-0.104-0.37,0c-0.103,0.101-0.102,0.267,0,0.368l1.479,1.482l-1.313,1.313l-4.313-4.313l8.557-8.558
				l-0.74-0.739l-8.557,8.559c-0.409,0.407-0.408,1.07,0,1.48l4.311,4.311c0.408,0.407,1.071,0.407,1.479,0l8.557-8.56l-0.74-0.739
				L18.899,25.674z"/>
			<path fill="#010002" d="M34.847,34.135c-2.559-5.574-2.785-5.798-2.87-5.885L9.468,5.891c-0.466-0.466-1.227-0.466-1.694,0
				L5.448,8.217c-0.466,0.466-0.466,1.226,0,1.692l22.51,22.36c0.096,0.097,0.32,0.32,6.12,2.67
				c0.227,0.092,0.489,0.036,0.655-0.142C34.907,34.621,34.948,34.358,34.847,34.135z M8.907,11.676l-0.68-0.679L6.294,9.065
				L8.62,6.737l2.612,2.612L8.907,11.676 M11.152,9.271l19.555,19.402L28.382,31L8.693,11.463 M29.392,31.684l2.021-2.021
				c0.386,0.773,1.036,2.149,1.709,3.598C31.63,32.646,30.201,32.046,29.392,31.684z"/>
		</g>
	</g>
	<polyline fill="#FFFFFF" points="9.547,12.309 11.871,9.985 10.858,8.972 8.531,11.299 	"/>
</g>
</svg>
