<?xml version="1.0" encoding="utf-8"?>
<!-- Generator: Adobe Illustrator 16.0.0, SVG Export Plug-In . SVG Version: 6.00 Build 0)  -->
<!DOCTYPE svg PUBLIC "-//W3C//DTD SVG 1.1//EN" "http://www.w3.org/Graphics/SVG/1.1/DTD/svg11.dtd">
<svg version="1.1" id="Capa_1" xmlns="http://www.w3.org/2000/svg" xmlns:xlink="http://www.w3.org/1999/xlink" x="0px" y="0px"
	 width="30px" height="30px" viewBox="15.365 15.365 30 30" enable-background="new 15.365 15.365 30 30" xml:space="preserve">
<g>
	<g>
		<g>
			<g>
				<path d="M43.948,18.211v13.858h-2.59h-1.417v1.417v2.788l-3.324-3.731l-0.423-0.474h-0.636H24.417V18.211H43.948 M45.365,16.793
					H23v16.692h12.559l5.8,6.509v-6.509h4.007V16.793L45.365,16.793z"/>
			</g>
		</g>
		<g>
			<g>
				<path d="M19.984,26.618v8.461v1.417h1.417H33.1v1.575h-9.336h-0.636l-0.423,0.475l-2.487,2.793v-1.851v-1.417h-1.417h-2.018
					V26.618H19.984 M21.402,25.2h-6.036v14.288h3.435v5.574l4.963-5.574h10.753v-3.79l-0.552-0.619H21.402V25.2L21.402,25.2z"/>
			</g>
		</g>
	</g>
</g>
</svg>
