<?xml version="1.0" encoding="utf-8"?>
<!-- Generator: Adobe Illustrator 16.0.0, SVG Export Plug-In . SVG Version: 6.00 Build 0)  -->
<!DOCTYPE svg PUBLIC "-//W3C//DTD SVG 1.1//EN" "http://www.w3.org/Graphics/SVG/1.1/DTD/svg11.dtd">
<svg version="1.1" id="Layer_1" xmlns="http://www.w3.org/2000/svg" xmlns:xlink="http://www.w3.org/1999/xlink" x="0px" y="0px"
	 width="30px" height="30px" viewBox="0 0 30 30" enable-background="new 0 0 30 30" xml:space="preserve">
<g>
	<path fill="#010101" d="M9.063,10.415c-0.072,0.072-0.072,0.189,0,0.262l18.339,18.338c0.072,0.073,0.189,0.072,0.263,0
		l2.271-2.271c0.072-0.072,0.072-0.189,0-0.262L11.596,8.143c-0.072-0.073-0.189-0.073-0.262,0L9.063,10.415z M28.581,26.481
		l-1.18,1.18l-3.406-3.406l1.18-1.179L28.581,26.481z M14.696,12.596l-1.179,1.181l-3.406-3.407l1.18-1.178L14.696,12.596z
		 M4.353,10.346c-0.071,0.039-0.158,0.027-0.216-0.028L3.423,9.639l-0.867,0.468c-0.071,0.038-0.158,0.027-0.216-0.027
		c-0.058-0.057-0.074-0.143-0.04-0.216l0.426-0.889L2.014,8.296c-0.058-0.056-0.074-0.143-0.04-0.214
		c0.035-0.073,0.112-0.115,0.192-0.104l0.977,0.131l0.425-0.888C3.603,7.148,3.68,7.106,3.76,7.116
		c0.08,0.011,0.144,0.072,0.158,0.15l0.178,0.97l0.977,0.131c0.08,0.01,0.144,0.07,0.158,0.15C5.237,8.555,5.231,8.595,5.215,8.63
		C5.198,8.665,5.171,8.694,5.136,8.713L4.269,9.181l0.178,0.97C4.462,10.229,4.424,10.309,4.353,10.346z M7.488,6.052
		c0.05-0.014,0.104,0.005,0.133,0.049l0.358,0.528l0.613-0.178C8.642,6.436,8.696,6.457,8.726,6.5
		c0.029,0.041,0.027,0.099-0.005,0.14L8.328,7.145l0.359,0.528c0.029,0.044,0.027,0.1-0.005,0.142
		C8.667,7.835,8.645,7.85,8.621,7.857c-0.024,0.006-0.05,0.006-0.074-0.003L7.946,7.637L7.555,8.14
		C7.523,8.182,7.468,8.198,7.419,8.181C7.37,8.163,7.339,8.117,7.34,8.063l0.021-0.638l-0.6-0.218
		C6.711,7.191,6.679,7.143,6.682,7.091C6.683,7.04,6.718,6.995,6.768,6.98l0.614-0.177l0.021-0.639
		C7.403,6.113,7.438,6.066,7.488,6.052z M9.282,1.343c0.04-0.009,0.08,0.009,0.101,0.044l0.254,0.431l0.489-0.107
		c0.04-0.009,0.081,0.009,0.102,0.044c0.011,0.018,0.014,0.038,0.013,0.057c-0.002,0.021-0.01,0.038-0.023,0.054L9.885,2.239
		l0.254,0.433c0.021,0.034,0.017,0.079-0.01,0.109c-0.027,0.031-0.071,0.04-0.108,0.023L9.561,2.605L9.229,2.979
		c-0.026,0.03-0.07,0.04-0.107,0.024C9.084,2.988,9.062,2.949,9.066,2.908l0.048-0.497L8.656,2.209
		C8.618,2.194,8.595,2.155,8.599,2.114c0.005-0.04,0.034-0.073,0.074-0.081l0.489-0.109l0.048-0.497
		C9.212,1.385,9.242,1.352,9.282,1.343z M6.547,0.956l0.946,2.283l-0.219,0.08L6.547,0.956z M2.875,5.985L0.012,4.921l2.936,0.844
		L2.875,5.985z M12.13,4.655l2.566-0.386l-2.521,0.613L12.13,4.655z M6.053,11.256L5.71,14.26l0.11-3.022L6.053,11.256z"/>
</g>
</svg>
