<?xml version="1.0" encoding="utf-8"?>
<!-- Generator: Adobe Illustrator 16.0.0, SVG Export Plug-In . SVG Version: 6.00 Build 0)  -->
<!DOCTYPE svg PUBLIC "-//W3C//DTD SVG 1.1//EN" "http://www.w3.org/Graphics/SVG/1.1/DTD/svg11.dtd">
<svg version="1.1" id="Capa_1" xmlns="http://www.w3.org/2000/svg" xmlns:xlink="http://www.w3.org/1999/xlink" x="0px" y="0px"
	 width="30px" height="30px" viewBox="0 0 30 30" enable-background="new 0 0 30 30" xml:space="preserve">
<g>
	<path fill="#010002" d="M19.463,11.396h-8.926c-0.29,0-0.525,0.234-0.525,0.525c0,0.29,0.235,0.525,0.525,0.525h8.926
		c0.289,0,0.525-0.235,0.525-0.525C19.988,11.63,19.752,11.396,19.463,11.396z"/>
	<path fill="#010002" d="M19.463,15.85h-8.926c-0.29,0-0.525,0.234-0.525,0.524s0.235,0.524,0.525,0.524h8.926
		c0.289,0,0.525-0.234,0.525-0.524S19.752,15.85,19.463,15.85z"/>
	<path fill="#010002" d="M19.463,20.304h-8.926c-0.29,0-0.525,0.234-0.525,0.524c0,0.291,0.235,0.525,0.525,0.525h8.926
		c0.289,0,0.525-0.234,0.525-0.525C19.988,20.538,19.752,20.304,19.463,20.304z"/>
	<path fill="#010002" d="M19.463,24.758h-8.926c-0.29,0-0.525,0.234-0.525,0.524s0.235,0.524,0.525,0.524h8.926
		c0.289,0,0.525-0.234,0.525-0.524S19.752,24.758,19.463,24.758z"/>
	<path fill="#010002" d="M7.725,3.798c0.29,0,0.525-0.234,0.525-0.525c0-0.29-0.235-0.525-0.525-0.525H4.941
		c-0.29,0-0.525,0.235-0.525,0.525v26.202C4.416,29.766,4.651,30,4.941,30h20.118c0.291,0,0.525-0.234,0.525-0.525V3.273
		c0-0.29-0.234-0.525-0.525-0.525h-2.783c-0.289,0-0.524,0.235-0.524,0.525c0,0.291,0.235,0.525,0.524,0.525h2.26v25.153H5.465
		V3.798H7.725z"/>
	<path fill="#010002" d="M17.944,0h-5.889c-0.29,0-0.525,0.234-0.525,0.525v1.046H9.823c-0.29,0-0.525,0.234-0.525,0.525v4.611
		c0,0.291,0.235,0.525,0.525,0.525h10.354c0.29,0,0.524-0.234,0.524-0.525V2.096c0-0.291-0.234-0.525-0.524-0.525h-1.708V0.525
		C18.469,0.235,18.234,0,17.944,0z M19.652,2.621v3.563h-9.304V2.621h1.708c0.29,0,0.525-0.234,0.525-0.525V1.05h4.839v1.045
		c0,0.291,0.234,0.525,0.524,0.525L19.652,2.621L19.652,2.621z"/>
	<circle fill="#010002" cx="15" cy="3.16" r="0.981"/>
</g>
</svg>
