<?xml version="1.0" encoding="utf-8"?>
<!-- Generator: Adobe Illustrator 16.0.0, SVG Export Plug-In . SVG Version: 6.00 Build 0)  -->
<!DOCTYPE svg PUBLIC "-//W3C//DTD SVG 1.1//EN" "http://www.w3.org/Graphics/SVG/1.1/DTD/svg11.dtd">
<svg version="1.1" id="Capa_1" xmlns="http://www.w3.org/2000/svg" xmlns:xlink="http://www.w3.org/1999/xlink" x="0px" y="0px"
	 width="20px" height="20px" viewBox="0 0 20 20" enable-background="new 0 0 20 20" xml:space="preserve">
<g>
	<path id="Facebook" fill="#0099A8" d="M2.161,3.873c0,0.504,0,2.754,0,2.754H0v3.366h2.161V20H6.6V9.993h2.98
		c0,0,0.28-1.614,0.414-3.379c-0.387,0-3.376,0-3.376,0s0-1.959,0-2.302c0-0.344,0.485-0.806,0.963-0.806c0.477,0,1.484,0,2.419,0
		C10,3.047,10,1.462,10,0C8.753,0,7.335,0,6.711,0C2.052,0,2.161,3.371,2.161,3.873z"/>
</g>
<g>
	<g id="Facebook_2_">
		<path fill="#0099A8" d="M19.433,0.567v2.372h-1.852c-0.758,0-1.53,0.693-1.53,1.373v2.302v0.567h0.567h2.758
			c-0.088,0.921-0.204,1.752-0.279,2.245H16.6h-0.567v0.567v9.439h-3.304V9.993V9.426h-0.567h-1.594V7.194h1.594h0.567V6.627
			l-0.001-2.79c-0.003-0.956,0.271-1.717,0.815-2.264c0.665-0.667,1.731-1.006,3.168-1.006H19.433 M20,0c-1.247,0-2.665,0-3.289,0
			c-4.658,0-4.55,3.371-4.55,3.873c0,0.504,0,2.754,0,2.754H10v3.366h2.161V20H16.6V9.993h2.98c0,0,0.279-1.614,0.414-3.379
			c-0.387,0-3.376,0-3.376,0s0-1.959,0-2.302c0-0.344,0.485-0.806,0.963-0.806s1.483,0,2.419,0C20,3.047,20,1.462,20,0L20,0z"/>
	</g>
</g>
</svg>
