<?xml version="1.0" encoding="utf-8"?>
<!-- Generator: Adobe Illustrator 16.0.0, SVG Export Plug-In . SVG Version: 6.00 Build 0)  -->
<!DOCTYPE svg PUBLIC "-//W3C//DTD SVG 1.1//EN" "http://www.w3.org/Graphics/SVG/1.1/DTD/svg11.dtd">
<svg version="1.1" id="Layer_1" xmlns="http://www.w3.org/2000/svg" xmlns:xlink="http://www.w3.org/1999/xlink" x="0px" y="0px"
	 width="21px" height="10px" viewBox="250.5 120.5 21 10" enable-background="new 250.5 120.5 21 10" xml:space="preserve">
<g>
	<path fill="#015295" d="M267.33,123.082c0.718,0.044,1.436,0.091,2.153,0.133c0.379,0.022,0.575,0.16,0.691,0.518
		c0.517,1.591,0.9,3.214,1.149,4.869c0.027,0.185,0.06,0.368,0.095,0.551c0.058,0.292-0.094,0.51-0.395,0.549
		c-1.947,0.254-3.9,0.461-5.86,0.6c-1.388,0.098-2.777,0.174-4.169,0.199c-0.437,0.008-0.68-0.159-0.823-0.575
		c-0.043-0.126-0.085-0.251-0.128-0.378c-0.026-0.095-0.044-0.192-0.082-0.283c-0.126-0.308-0.161-0.646-0.315-0.944
		c0-0.381,0-0.761,0-1.173c0.045,0.04,0.065,0.056,0.081,0.074c0.507,0.587,1.543,0.452,1.924-0.321
		c0.218-0.44,0.227-0.898,0.049-1.353c-0.342-0.874-1.483-1.068-2.006-0.369c-0.008,0.012-0.03,0.014-0.048,0.021
		c-0.03-0.387-0.03-0.387-0.417-0.386c-0.007,0-0.014,0.001-0.02,0c-0.176-0.041-0.218,0.053-0.206,0.203c-0.02,0-0.041,0-0.06,0
		c-0.094-0.521-0.175-1.045-0.208-1.574c-0.016-0.26,0.17-0.46,0.413-0.465c0.432-0.007,0.863-0.024,1.294-0.028
		c0.736-0.008,1.474-0.018,2.212,0.017c0.689,0.032,1.383,0.012,2.074,0.016c0.019,0.007,0.037,0.014,0.056,0.021
		c0.031,0.001,0.063,0.001,0.093,0.002C265.694,123.03,266.512,123.056,267.33,123.082z M263.737,127.226
		c0.03,0.305,0.03,0.305,0.31,0.305c0.067,0,0.134-0.005,0.199,0.001c0.095,0.009,0.128-0.025,0.127-0.123
		c-0.005-0.553,0.008-1.104-0.012-1.656c-0.018-0.511-0.318-0.841-0.814-0.943c-0.338-0.069-0.675-0.046-1.007,0.044
		c-0.424,0.115-0.42,0.115-0.271,0.524c0.037,0.102,0.071,0.117,0.169,0.077c0.248-0.103,0.512-0.142,0.781-0.117
		c0.292,0.027,0.466,0.178,0.525,0.435c0.039,0.162-0.003,0.198-0.164,0.155c-0.36-0.094-0.724-0.106-1.083,0.01
		c-0.387,0.125-0.588,0.408-0.586,0.807c0.002,0.389,0.217,0.679,0.608,0.787C262.968,127.653,263.377,127.574,263.737,127.226z
		 M264.347,124.813c0.032,0.08,0.056,0.14,0.08,0.2c0.329,0.792,0.654,1.584,0.991,2.372c0.059,0.136,0.028,0.228-0.053,0.326
		c-0.114,0.137-0.274,0.162-0.418,0.1c-0.203-0.091-0.286-0.014-0.336,0.168c-0.012,0.038-0.027,0.075-0.049,0.109
		c-0.05,0.08-0.033,0.121,0.055,0.166c0.545,0.272,1.093,0.089,1.353-0.46c0.043-0.09,0.08-0.183,0.116-0.276
		c0.233-0.6,0.466-1.201,0.698-1.803c0.114-0.294,0.228-0.59,0.348-0.902c-0.167,0-0.308,0.013-0.445-0.003
		c-0.166-0.021-0.23,0.049-0.28,0.198c-0.195,0.591-0.405,1.178-0.612,1.77c-0.073-0.05-0.076-0.122-0.1-0.183
		c-0.211-0.545-0.419-1.092-0.628-1.638c-0.027-0.073-0.041-0.152-0.154-0.146C264.733,124.819,264.555,124.813,264.347,124.813z"/>
	<path fill="#01A2E4" d="M259.646,128.319c0.155,0.299,0.189,0.637,0.315,0.944c0.037,0.091,0.055,0.188,0.082,0.283
		c-2.099,0.116-4.2,0.203-6.302,0.239c-0.213,0.005-0.425,0.017-0.638,0.02c-0.448,0.007-0.777-0.221-0.925-0.646
		c-0.552-1.583-0.989-3.197-1.286-4.849c-0.133-0.74-0.232-1.484-0.316-2.231c-0.049-0.429,0.172-0.672,0.604-0.666
		c1.024,0.015,2.049,0.034,3.074,0.051c0.476,0.021,0.953,0.047,1.43,0.062c1.621,0.051,3.24,0.131,4.857,0.246
		c1.126,0.081,2.252,0.167,3.379,0.252c0.335,0.025,0.545,0.225,0.67,0.519c0.061,0.139,0.093,0.291,0.138,0.437
		c-0.691-0.003-1.385,0.017-2.074-0.016c-0.738-0.035-1.476-0.025-2.212-0.017c-0.432,0.004-0.863,0.021-1.294,0.028
		c-0.243,0.004-0.429,0.205-0.413,0.465c0.033,0.528,0.114,1.052,0.208,1.574c-0.007,0.097,0.022,0.186,0.062,0.272
		c0.002,0.345,0.006,0.69,0.007,1.036c0.001,0.618-0.001,1.235,0.001,1.854c0,0.07-0.039,0.174,0.099,0.165
		C259.29,128.331,259.47,128.368,259.646,128.319z M255.705,125.156c0-0.323,0-0.647,0-0.97c0-0.41,0-0.401-0.4-0.413
		c-0.169-0.005-0.224,0.03-0.222,0.214c0.01,1.044,0.004,2.089,0.004,3.135c0,0.411,0,0.404,0.42,0.412
		c0.154,0.002,0.206-0.035,0.202-0.196c-0.011-0.452-0.012-0.906-0.001-1.358c0.009-0.416,0.247-0.656,0.621-0.652
		c0.361,0.004,0.56,0.229,0.565,0.649c0.005,0.366,0.001,0.732,0.002,1.099c0,0.481,0,0.479,0.493,0.457
		c0.103-0.004,0.139-0.032,0.138-0.138c-0.004-0.552,0.007-1.104-0.005-1.657c-0.011-0.504-0.278-0.862-0.697-0.951
		C256.391,124.696,256.019,124.803,255.705,125.156z M258.567,126.169c0-0.306,0-0.612,0-0.918c0-0.438,0-0.429-0.432-0.44
		c-0.176-0.005-0.204,0.058-0.202,0.215c0.008,0.686,0.004,1.372,0.004,2.057c0,0.456,0,0.451,0.462,0.45
		c0.127,0,0.173-0.03,0.17-0.165C258.562,126.969,258.567,126.569,258.567,126.169z M258.24,124.403c0.047,0,0.094-0.005,0.14,0.001
		c0.163,0.024,0.217-0.037,0.212-0.205c-0.01-0.391-0.001-0.391-0.4-0.391c-0.278,0-0.278,0-0.278,0.271
		C257.914,124.403,257.914,124.403,258.24,124.403z"/>
	<path fill="#C8CBCF" d="M264.728,122.98c-0.045-0.146-0.077-0.297-0.138-0.437c-0.125-0.294-0.335-0.494-0.67-0.519
		c-1.127-0.085-2.253-0.171-3.379-0.252c-1.617-0.115-3.236-0.195-4.857-0.246c-0.477-0.015-0.954-0.041-1.43-0.062
		c0-0.125-0.007-0.25-0.03-0.376c-0.059-0.317,0.164-0.6,0.484-0.588c0.735,0.026,1.47,0.073,2.205,0.112
		c0.265,0.014,0.53,0.026,0.794,0.037c0.934,0.038,1.866,0.116,2.798,0.175c0.799,0.051,1.598,0.121,2.395,0.199
		c0.968,0.095,1.935,0.207,2.901,0.311c0.164,0.018,0.33,0.032,0.494,0.045c0.305,0.025,0.538,0.167,0.653,0.45
		c0.164,0.405,0.295,0.823,0.381,1.254c-0.818-0.026-1.636-0.052-2.454-0.078c-0.03-0.021-0.061-0.019-0.093-0.002
		C264.764,122.995,264.746,122.987,264.728,122.98z"/>
	<path fill="#F9FBFC" d="M259.646,128.319c-0.176,0.049-0.356,0.012-0.534,0.022c-0.138,0.009-0.1-0.095-0.1-0.165
		c-0.002-0.618,0-1.235-0.001-1.854c-0.001-0.346-0.005-0.691-0.007-1.036c0-0.091-0.001-0.181-0.001-0.272
		c-0.012-0.149,0.03-0.244,0.206-0.203c0.006,0.001,0.013,0,0.02,0c0.387,0,0.387,0,0.417,0.386c0.018-0.008,0.04-0.01,0.048-0.021
		c0.522-0.699,1.664-0.504,2.006,0.369c0.178,0.455,0.169,0.912-0.049,1.353c-0.38,0.773-1.417,0.908-1.924,0.321
		c-0.016-0.019-0.036-0.034-0.081-0.074C259.646,127.559,259.646,127.938,259.646,128.319z M261.176,126.175
		c0-0.564-0.409-0.958-0.898-0.867c-0.422,0.079-0.709,0.497-0.658,0.957c0.053,0.471,0.414,0.811,0.829,0.776
		C260.889,127.007,261.176,126.664,261.176,126.175z"/>
	<path fill="#F9FBFC" d="M263.737,127.226c-0.36,0.348-0.77,0.428-1.217,0.305c-0.392-0.108-0.606-0.398-0.608-0.787
		c-0.002-0.398,0.2-0.682,0.586-0.807c0.359-0.116,0.724-0.104,1.083-0.01c0.161,0.042,0.203,0.006,0.165-0.155
		c-0.061-0.256-0.234-0.407-0.526-0.435c-0.27-0.025-0.532,0.014-0.781,0.117c-0.098,0.04-0.132,0.025-0.168-0.077
		c-0.149-0.409-0.154-0.409,0.27-0.524c0.332-0.09,0.669-0.113,1.007-0.044c0.496,0.102,0.797,0.433,0.814,0.943
		c0.02,0.552,0.007,1.104,0.012,1.656c0.001,0.098-0.032,0.132-0.127,0.123c-0.065-0.006-0.132-0.001-0.199-0.001
		C263.768,127.53,263.768,127.53,263.737,127.226z M263.226,126.265c-0.173,0.004-0.305,0.013-0.43,0.064
		c-0.179,0.073-0.275,0.204-0.266,0.4c0.009,0.192,0.13,0.305,0.303,0.35c0.239,0.062,0.474,0.041,0.688-0.098
		c0.135-0.087,0.215-0.211,0.243-0.37c0.03-0.168-0.008-0.282-0.204-0.299C263.436,126.303,263.312,126.277,263.226,126.265z"/>
	<path fill="#F9FBFC" d="M264.347,124.813c0.208,0,0.387,0.006,0.565-0.002c0.113-0.006,0.126,0.073,0.154,0.146
		c0.209,0.546,0.417,1.093,0.628,1.638c0.023,0.061,0.026,0.133,0.1,0.183c0.207-0.592,0.417-1.179,0.612-1.77
		c0.05-0.149,0.114-0.219,0.28-0.198c0.138,0.017,0.278,0.003,0.445,0.003c-0.12,0.312-0.233,0.607-0.348,0.902
		c-0.232,0.602-0.465,1.202-0.698,1.803c-0.036,0.094-0.073,0.187-0.116,0.276c-0.26,0.549-0.808,0.732-1.353,0.459
		c-0.088-0.044-0.104-0.085-0.055-0.165c0.021-0.034,0.037-0.071,0.049-0.109c0.05-0.182,0.133-0.259,0.336-0.168
		c0.144,0.063,0.304,0.037,0.418-0.1c0.081-0.099,0.111-0.19,0.053-0.326c-0.337-0.788-0.662-1.581-0.991-2.372
		C264.402,124.953,264.379,124.893,264.347,124.813z"/>
	<path fill="#035395" d="M259.002,125.015c0,0.091,0,0.182,0.001,0.272c-0.039-0.086-0.069-0.175-0.062-0.272
		C258.961,125.015,258.982,125.015,259.002,125.015z"/>
	<path fill="#01A2E4" d="M264.783,123.002c0.032-0.017,0.063-0.019,0.093,0.002C264.846,123.003,264.814,123.003,264.783,123.002z"
		/>
	<path fill="#FAFDFE" d="M255.705,125.156c0.314-0.354,0.687-0.46,1.118-0.369c0.419,0.088,0.686,0.446,0.697,0.951
		c0.013,0.552,0.001,1.105,0.005,1.657c0.001,0.105-0.035,0.134-0.138,0.139c-0.493,0.021-0.493,0.023-0.493-0.458
		c0-0.366,0.003-0.732-0.002-1.099c-0.005-0.42-0.205-0.645-0.565-0.649c-0.374-0.003-0.612,0.237-0.621,0.652
		c-0.01,0.452-0.01,0.906,0.001,1.358c0.004,0.162-0.049,0.198-0.202,0.196c-0.419-0.008-0.42-0.001-0.42-0.412
		c0-1.046,0.006-2.09-0.004-3.135c-0.002-0.184,0.053-0.22,0.222-0.214c0.4,0.012,0.4,0.003,0.4,0.413
		C255.705,124.509,255.705,124.833,255.705,125.156z"/>
	<path fill="#F6FBFD" d="M258.567,126.169c0,0.4-0.005,0.8,0.003,1.199c0.003,0.135-0.042,0.165-0.17,0.165
		c-0.462,0.001-0.462,0.006-0.462-0.45c0-0.686,0.004-1.372-0.004-2.057c-0.002-0.158,0.026-0.221,0.202-0.215
		c0.431,0.012,0.432,0.002,0.432,0.44C258.567,125.557,258.567,125.863,258.567,126.169z"/>
	<path fill="#F6FBFD" d="M258.24,124.403c-0.327,0-0.327,0-0.327-0.324c0-0.271,0-0.271,0.278-0.271c0.399,0,0.39,0,0.4,0.391
		c0.005,0.168-0.049,0.229-0.212,0.205C258.334,124.397,258.287,124.403,258.24,124.403z"/>
	<path fill="#035395" d="M261.176,126.175c0,0.489-0.287,0.832-0.727,0.866c-0.415,0.034-0.776-0.306-0.829-0.776
		c-0.051-0.46,0.236-0.878,0.658-0.957C260.767,125.216,261.176,125.611,261.176,126.175z"/>
	<path fill="#035395" d="M263.226,126.265c0.086,0.013,0.21,0.038,0.335,0.048c0.196,0.017,0.234,0.131,0.204,0.299
		c-0.028,0.159-0.108,0.283-0.243,0.37c-0.215,0.139-0.449,0.159-0.688,0.098c-0.173-0.045-0.294-0.157-0.303-0.35
		c-0.01-0.196,0.087-0.327,0.266-0.4C262.921,126.277,263.053,126.269,263.226,126.265z"/>
</g>
</svg>
