<?xml version="1.0" encoding="utf-8"?>
<!-- Generator: Adobe Illustrator 16.0.0, SVG Export Plug-In . SVG Version: 6.00 Build 0)  -->
<!DOCTYPE svg PUBLIC "-//W3C//DTD SVG 1.0//EN" "http://www.w3.org/TR/2001/REC-SVG-20010904/DTD/svg10.dtd" [
	<!ENTITY ns_flows "http://ns.adobe.com/Flows/1.0/">
	<!ENTITY ns_extend "http://ns.adobe.com/Extensibility/1.0/">
	<!ENTITY ns_ai "http://ns.adobe.com/AdobeIllustrator/10.0/">
	<!ENTITY ns_graphs "http://ns.adobe.com/Graphs/1.0/">
]>
<svg version="1.0" id="Layer_1" xmlns:x="&ns_extend;" xmlns:i="&ns_ai;" xmlns:graph="&ns_graphs;"
	 xmlns="http://www.w3.org/2000/svg" xmlns:xlink="http://www.w3.org/1999/xlink" xmlns:a="http://ns.adobe.com/AdobeSVGViewerExtensions/3.0/"
	 x="0px" y="0px" width="40px" height="20px" viewBox="546.929 273.465 40 20" enable-background="new 546.929 273.465 40 20"
	 xml:space="preserve">
<g>
	<g>
		<path fill="#FFFFFF" d="M566.984,283.492c0-5.538-4.489-10.027-10.027-10.027c-5.538,0-10.027,4.489-10.027,10.027
			s4.49,10.027,10.027,10.027C562.494,293.519,566.984,289.03,566.984,283.492z M547.841,283.492c0-5.035,4.081-9.116,9.116-9.116
			s9.116,4.081,9.116,9.116c0,5.034-4.081,9.115-9.116,9.115C551.922,292.608,547.841,288.526,547.841,283.492z"/>
		<path fill="#FFFFFF" d="M557.341,289.28v-5.788h1.91l0.302-1.918h-2.211v-0.961c0-0.501,0.164-0.979,0.882-0.979h1.436v-1.914
			h-2.038c-1.713,0-2.182,1.128-2.182,2.693v1.16h-1.176v1.919h1.176v5.788H557.341L557.341,289.28z"/>
	</g>
</g>
<g>
	<g>
		<path fill="#0C99A8" d="M587.038,283.492c0-5.538-4.489-10.027-10.027-10.027s-10.027,4.489-10.027,10.027
			s4.489,10.027,10.027,10.027S587.038,289.03,587.038,283.492z M567.895,283.492c0-5.035,4.082-9.116,9.116-9.116
			s9.115,4.081,9.115,9.116c0,5.034-4.081,9.116-9.115,9.116S567.895,288.526,567.895,283.492z"/>
		<path fill="#0C99A8" d="M577.396,289.28v-5.788h1.909l0.302-1.918h-2.211v-0.961c0-0.501,0.164-0.979,0.882-0.979h1.437v-1.914
			h-2.039c-1.713,0-2.181,1.128-2.181,2.693v1.16h-1.177v1.919h1.177v5.788H577.396L577.396,289.28z"/>
	</g>
</g>
</svg>
