<?xml version="1.0" encoding="utf-8"?>
<!-- Generator: Adobe Illustrator 16.0.0, SVG Export Plug-In . SVG Version: 6.00 Build 0)  -->
<!DOCTYPE svg PUBLIC "-//W3C//DTD SVG 1.0//EN" "http://www.w3.org/TR/2001/REC-SVG-20010904/DTD/svg10.dtd" [
	<!ENTITY ns_flows "http://ns.adobe.com/Flows/1.0/">
	<!ENTITY ns_extend "http://ns.adobe.com/Extensibility/1.0/">
	<!ENTITY ns_ai "http://ns.adobe.com/AdobeIllustrator/10.0/">
	<!ENTITY ns_graphs "http://ns.adobe.com/Graphs/1.0/">
]>
<svg version="1.0" id="Layer_1" xmlns:x="&ns_extend;" xmlns:i="&ns_ai;" xmlns:graph="&ns_graphs;"
	 xmlns="http://www.w3.org/2000/svg" xmlns:xlink="http://www.w3.org/1999/xlink" xmlns:a="http://ns.adobe.com/AdobeSVGViewerExtensions/3.0/"
	 x="0px" y="0px" width="40px" height="20px" viewBox="546.929 273.465 40 20" enable-background="new 546.929 273.465 40 20"
	 xml:space="preserve">
<g>
	<g>
		<path fill="#FFFFFF" d="M561.533,281.695c0-2.072-1.72-4.002-4.333-4.002c-3.252,0-4.891,2.38-4.891,4.365
			c0,1.202,0.445,2.271,1.402,2.668c0.156,0.065,0.297,0.002,0.342-0.174c0.031-0.123,0.106-0.432,0.139-0.561
			c0.047-0.175,0.028-0.236-0.098-0.39c-0.276-0.333-0.451-0.762-0.451-1.371c0-1.765,1.293-3.346,3.369-3.346
			c1.837,0,2.848,1.146,2.848,2.677c0,2.015-0.873,3.713-2.17,3.713c-0.717,0-1.252-0.604-1.08-1.344
			c0.206-0.886,0.604-1.84,0.604-2.479c0-0.571-0.3-1.049-0.923-1.049c-0.732,0-1.32,0.773-1.32,1.809
			c0,0.66,0.219,1.105,0.219,1.105s-0.749,3.24-0.88,3.807c-0.119,0.517-0.137,1.085-0.121,1.564c0.05,0.431,0.467,0.781,0.829,0.31
			c0.254-0.416,0.527-0.941,0.669-1.466c0.084-0.31,0.481-1.92,0.481-1.92c0.238,0.464,0.933,0.872,1.673,0.872
			C560.041,286.482,561.533,284.435,561.533,281.695z"/>
		<path fill="#FFFFFF" d="M566.914,283.457c0-5.519-4.474-9.992-9.993-9.992c-5.518,0-9.992,4.474-9.992,9.992
			c0,5.52,4.474,9.992,9.992,9.992S566.914,288.976,566.914,283.457z M547.837,283.457c0-5.017,4.067-9.084,9.084-9.084
			c5.018,0,9.084,4.067,9.084,9.084c0,5.016-4.066,9.083-9.084,9.083C551.904,292.54,547.837,288.472,547.837,283.457z"/>
	</g>
</g>
<g>
	<g>
		<path fill="#0C99A8" d="M581.517,281.695c0-2.072-1.719-4.002-4.33-4.002c-3.253,0-4.891,2.379-4.891,4.365
			c0,1.202,0.443,2.271,1.4,2.669c0.156,0.065,0.297,0.002,0.343-0.174c0.031-0.123,0.106-0.434,0.139-0.562
			c0.047-0.175,0.029-0.236-0.098-0.389c-0.277-0.333-0.451-0.763-0.451-1.371c0-1.765,1.293-3.346,3.369-3.346
			c1.837,0,2.847,1.146,2.847,2.677c0,2.015-0.871,3.714-2.169,3.714c-0.717,0-1.252-0.603-1.081-1.345
			c0.205-0.885,0.604-1.84,0.604-2.479c0-0.571-0.299-1.049-0.921-1.049c-0.733,0-1.321,0.773-1.321,1.809
			c0,0.659,0.22,1.105,0.22,1.105s-0.749,3.241-0.882,3.807c-0.118,0.517-0.137,1.084-0.12,1.563c0.051,0.432,0.467,0.782,0.83,0.31
			c0.253-0.415,0.526-0.939,0.669-1.464c0.083-0.312,0.481-1.921,0.481-1.921c0.238,0.464,0.934,0.872,1.672,0.872
			C580.026,286.483,581.517,284.435,581.517,281.695z"/>
		<path fill="#0C99A8" d="M586.898,283.457c0-5.519-4.473-9.993-9.992-9.993c-5.518,0-9.992,4.474-9.992,9.993
			c0,5.517,4.475,9.992,9.992,9.992C582.425,293.449,586.898,288.974,586.898,283.457z M567.823,283.457
			c0-5.018,4.067-9.084,9.083-9.084c5.018,0,9.085,4.066,9.085,9.084c0,5.016-4.067,9.083-9.085,9.083
			C571.89,292.541,567.823,288.473,567.823,283.457z"/>
	</g>
</g>
</svg>
