<?xml version="1.0" encoding="utf-8"?>
<!-- Generator: Adobe Illustrator 16.0.0, SVG Export Plug-In . SVG Version: 6.00 Build 0)  -->
<!DOCTYPE svg PUBLIC "-//W3C//DTD SVG 1.1//EN" "http://www.w3.org/Graphics/SVG/1.1/DTD/svg11.dtd">
<svg version="1.1" id="Layer_1" xmlns="http://www.w3.org/2000/svg" xmlns:xlink="http://www.w3.org/1999/xlink" x="0px" y="0px"
	 width="92.329px" height="129.558px" viewBox="24.7 6.014 92.329 129.558" enable-background="new 24.7 6.014 92.329 129.558"
	 xml:space="preserve">
<g>
	<g>
		<g>
			<path d="M30.976,125.574c0,0.299-0.115,0.547-0.347,0.75c-0.229,0.201-0.515,0.301-0.85,0.301c-0.338,0-0.619-0.1-0.852-0.301
				c-0.23-0.203-0.348-0.451-0.348-0.75c0-0.287,0.118-0.535,0.354-0.742c0.233-0.205,0.517-0.309,0.844-0.309
				c0.325,0,0.605,0.104,0.842,0.309C30.858,125.039,30.976,125.287,30.976,125.574z M30.889,135.572h-2.233v-7.766h2.233V135.572z"
				/>
			<path d="M39.404,135.572h-2.233v-5.432c0-0.721-0.389-1.08-1.169-1.08c-0.317,0-0.642,0.055-0.964,0.156v6.354h-2.229v-7.332
				c0.859-0.385,1.947-0.576,3.253-0.576c2.229,0,3.344,0.82,3.344,2.463L39.404,135.572L39.404,135.572z"/>
			<path d="M45.18,135.471c-0.309,0.146-0.677,0.217-1.107,0.217c-0.77,0-1.36-0.227-1.772-0.68c-0.374-0.4-0.563-0.926-0.563-1.568
				v-4.18h-0.85v-1.453h0.85v-1.646l2.232-0.572v2.219h1.21v1.453h-1.21v3.994c0,0.604,0.241,0.904,0.729,0.904
				c0.138,0,0.297-0.022,0.48-0.07L45.18,135.471L45.18,135.471z"/>
			<path d="M53.176,131.822l-4.65,0.664c0.151,1.135,0.775,1.703,1.872,1.703c0.809,0,1.479-0.145,2.019-0.434l0.504,1.396
				c-0.75,0.375-1.676,0.563-2.779,0.563c-1.184,0-2.104-0.361-2.762-1.088c-0.655-0.725-0.982-1.713-0.982-2.961
				c0-1.229,0.307-2.203,0.921-2.924c0.613-0.721,1.473-1.08,2.578-1.08c1.113,0,1.952,0.361,2.515,1.082
				C52.971,129.466,53.225,130.492,53.176,131.822z M51.089,130.977c0-1.324-0.43-1.988-1.282-1.988
				c-0.473,0-0.829,0.197-1.079,0.592c-0.271,0.422-0.386,1.023-0.348,1.801L51.089,130.977z"/>
			<path d="M58.924,127.691l-0.42,1.586c-0.279-0.115-0.563-0.174-0.842-0.174c-0.253,0-0.476,0.045-0.67,0.131v6.338h-2.229v-7.332
				c0.783-0.385,1.865-0.576,3.239-0.576C58.289,127.664,58.597,127.674,58.924,127.691z"/>
			<path d="M62.453,125.574c0,0.299-0.114,0.547-0.345,0.75c-0.23,0.201-0.517,0.301-0.852,0.301c-0.337,0-0.617-0.1-0.852-0.301
				c-0.23-0.203-0.346-0.451-0.346-0.75c0-0.287,0.117-0.535,0.354-0.742c0.235-0.205,0.519-0.309,0.844-0.309
				s0.606,0.104,0.844,0.309C62.336,125.039,62.453,125.287,62.453,125.574z M62.366,135.572h-2.232v-7.766h2.232V135.572z"/>
			<path d="M70.866,131.682c0,1.199-0.289,2.16-0.864,2.883c-0.612,0.768-1.471,1.15-2.563,1.15c-1.096,0-1.944-0.385-2.548-1.15
				c-0.586-0.723-0.882-1.684-0.882-2.883s0.289-2.16,0.864-2.881c0.614-0.76,1.464-1.139,2.551-1.139
				c1.097,0,1.949,0.379,2.563,1.139C70.572,129.521,70.866,130.482,70.866,131.682z M68.634,131.654
				c0-1.729-0.397-2.594-1.195-2.594c-0.796,0-1.194,0.863-1.194,2.594c0,1.689,0.398,2.535,1.194,2.535
				S68.634,133.346,68.634,131.654z"/>
			<path d="M76.614,127.691l-0.42,1.586c-0.281-0.115-0.563-0.174-0.841-0.174c-0.254,0-0.479,0.045-0.671,0.131v6.338h-2.23v-7.332
				c0.786-0.385,1.867-0.576,3.241-0.576C75.979,127.664,76.287,127.674,76.614,127.691z"/>
			<path d="M88.327,135.139c-0.719,0.387-1.709,0.576-2.968,0.576c-1.189,0-2.125-0.344-2.801-1.027
				c-0.68-0.688-1.018-1.664-1.018-2.939c0-1.227,0.315-2.203,0.944-2.926c0.627-0.725,1.45-1.086,2.469-1.086
				c0.414,0,0.793,0.037,1.138,0.115v-3.604h2.233L88.327,135.139L88.327,135.139z M86.094,134.176v-5.1
				c-0.184-0.059-0.388-0.088-0.613-0.088c-1.136,0-1.704,0.885-1.704,2.658c0,1.762,0.542,2.645,1.632,2.645
				C85.723,134.291,85.951,134.252,86.094,134.176z"/>
			<path d="M96.684,131.822l-4.652,0.664c0.153,1.135,0.777,1.703,1.872,1.703c0.806,0,1.479-0.145,2.016-0.434l0.504,1.396
				c-0.749,0.375-1.676,0.563-2.778,0.563c-1.182,0-2.103-0.361-2.758-1.088c-0.657-0.725-0.987-1.713-0.987-2.961
				c0-1.229,0.307-2.203,0.921-2.924c0.616-0.721,1.476-1.08,2.581-1.08c1.112,0,1.951,0.361,2.512,1.082
				C96.474,129.467,96.729,130.492,96.684,131.822z M94.594,130.977c0-1.324-0.429-1.988-1.281-1.988
				c-0.473,0-0.831,0.197-1.082,0.592c-0.271,0.422-0.384,1.023-0.348,1.801L94.594,130.977z"/>
			<path d="M103.094,135.154c-0.396,0.375-1.028,0.563-1.903,0.563c-0.948,0-1.714-0.352-2.289-1.053
				c-0.606-0.729-0.908-1.729-0.908-2.996c0-1.256,0.317-2.252,0.952-2.979c0.575-0.686,1.319-1.023,2.232-1.023
				c0.814,0,1.448,0.188,1.898,0.563l-0.46,1.238c-0.259-0.201-0.568-0.303-0.924-0.303c-0.959,0-1.439,0.826-1.439,2.479
				c0,0.789,0.125,1.396,0.376,1.83c0.248,0.434,0.601,0.646,1.053,0.646c0.384,0,0.694-0.104,0.937-0.315L103.094,135.154z"/>
			<path d="M111.06,131.682c0,1.199-0.287,2.16-0.865,2.883c-0.613,0.768-1.468,1.15-2.563,1.15c-1.095,0-1.942-0.385-2.551-1.15
				c-0.585-0.723-0.877-1.684-0.877-2.883s0.286-2.16,0.862-2.881c0.616-0.76,1.466-1.139,2.55-1.139
				c1.095,0,1.949,0.379,2.565,1.139C110.768,129.521,111.06,130.482,111.06,131.682z M108.826,131.654
				c0-1.729-0.396-2.594-1.194-2.594c-0.798,0-1.195,0.863-1.195,2.594c0,1.689,0.397,2.535,1.195,2.535
				C108.43,134.189,108.826,133.346,108.826,131.654z"/>
			<path d="M116.81,127.691l-0.422,1.586c-0.281-0.115-0.563-0.174-0.844-0.174c-0.251,0-0.474,0.045-0.668,0.131v6.338h-2.23
				v-7.332c0.787-0.385,1.867-0.576,3.24-0.576C116.175,127.664,116.482,127.674,116.81,127.691z"/>
		</g>
	</g>
	<g>
		<path fill="#0C99A8" d="M117.029,16.098c0-5.522-5.08-10.084-11.438-10.084c-6.292,0-11.431,4.562-11.431,10.084
			c0,5.636,5.139,10.055,11.431,10.055C111.949,26.153,117.029,21.734,117.029,16.098"/>
		<path d="M82.894,107.463l-5.143-14.307c-3.006,1.77-5.631,2.867-10.879,2.867c-13.782,0-19.164-15.68-19.164-31.813
			c0-16.271,4.688-32.534,19.299-32.534c5.254,0,8.567,1.214,11.188,2.871l4.527-13.503c-4.688-3.455-11.291-5.496-20.545-5.496
			c-25.413,0-37.399,23.409-37.479,48.562v0.479c0.074,25.516,11.787,48.565,37.341,48.565
			C71.158,113.152,78.034,111.221,82.894,107.463"/>
		<rect x="94.9" y="37.313" width="22.124" height="75.839"/>
	</g>
</g>
</svg>
