<?xml version="1.0" encoding="utf-8"?>
<!-- Generator: Adobe Illustrator 16.0.0, SVG Export Plug-In . SVG Version: 6.00 Build 0)  -->
<!DOCTYPE svg PUBLIC "-//W3C//DTD SVG 1.0//EN" "http://www.w3.org/TR/2001/REC-SVG-20010904/DTD/svg10.dtd" [
	<!ENTITY ns_flows "http://ns.adobe.com/Flows/1.0/">
	<!ENTITY ns_extend "http://ns.adobe.com/Extensibility/1.0/">
	<!ENTITY ns_ai "http://ns.adobe.com/AdobeIllustrator/10.0/">
	<!ENTITY ns_graphs "http://ns.adobe.com/Graphs/1.0/">
]>
<svg version="1.0" id="Layer_1" xmlns:x="&ns_extend;" xmlns:i="&ns_ai;" xmlns:graph="&ns_graphs;"
	 xmlns="http://www.w3.org/2000/svg" xmlns:xlink="http://www.w3.org/1999/xlink" xmlns:a="http://ns.adobe.com/AdobeSVGViewerExtensions/3.0/"
	 x="0px" y="0px" width="100px" height="30px" viewBox="7.294 1.436 100 30" enable-background="new 7.294 1.436 100 30"
	 xml:space="preserve">
<g>
	<g>
		<g>
			<path fill="#FFFFFF" d="M43.893,13.179c0,0.221-0.085,0.404-0.254,0.554c-0.169,0.148-0.38,0.222-0.627,0.222
				c-0.25,0-0.459-0.074-0.629-0.222c-0.171-0.15-0.254-0.333-0.254-0.554c0-0.212,0.086-0.395,0.259-0.548
				c0.174-0.152,0.382-0.229,0.625-0.229c0.241,0,0.447,0.077,0.622,0.229C43.806,12.784,43.893,12.965,43.893,13.179z
				 M43.829,20.565h-1.651v-5.737h1.651V20.565z"/>
			<path fill="#FFFFFF" d="M50.12,20.565h-1.65v-4.012c0-0.53-0.287-0.799-0.863-0.799c-0.237,0-0.475,0.04-0.712,0.118v4.693
				h-1.649v-5.417c0.638-0.284,1.44-0.424,2.404-0.424c1.647,0,2.47,0.606,2.47,1.819V20.565z"/>
			<path fill="#FFFFFF" d="M54.388,20.489c-0.227,0.109-0.5,0.162-0.818,0.162c-0.569,0-1.005-0.168-1.311-0.5
				c-0.276-0.299-0.415-0.686-0.415-1.16v-3.086h-0.628v-1.076h0.628v-1.217l1.648-0.422v1.639h0.895v1.076h-0.895v2.949
				c0,0.447,0.18,0.668,0.541,0.668c0.1,0,0.218-0.018,0.354-0.053V20.489L54.388,20.489z"/>
			<path fill="#FFFFFF" d="M60.295,17.793l-3.439,0.49c0.113,0.84,0.574,1.26,1.385,1.26c0.596,0,1.092-0.107,1.492-0.32
				l0.369,1.033c-0.553,0.277-1.236,0.416-2.053,0.416c-0.873,0-1.553-0.268-2.039-0.805c-0.484-0.537-0.727-1.266-0.727-2.188
				c0-0.908,0.225-1.628,0.68-2.161c0.453-0.532,1.088-0.796,1.904-0.796c0.822,0,1.441,0.266,1.857,0.798
				C60.141,16.053,60.33,16.812,60.295,17.793z M58.752,17.168c0-0.978-0.316-1.468-0.949-1.468c-0.348,0-0.611,0.146-0.795,0.438
				c-0.201,0.312-0.285,0.755-0.258,1.329L58.752,17.168z"/>
			<path fill="#FFFFFF" d="M64.539,14.743l-0.309,1.17c-0.207-0.083-0.416-0.125-0.623-0.125c-0.188,0-0.35,0.03-0.494,0.095v4.681
				h-1.648v-5.416c0.58-0.285,1.381-0.425,2.395-0.425C64.072,14.723,64.297,14.729,64.539,14.743z"/>
			<path fill="#FFFFFF" d="M67.148,13.179c0,0.221-0.084,0.404-0.256,0.554c-0.17,0.148-0.381,0.222-0.627,0.222
				c-0.248,0-0.459-0.074-0.629-0.222c-0.17-0.15-0.256-0.333-0.256-0.554c0-0.212,0.088-0.395,0.26-0.548
				c0.176-0.152,0.383-0.229,0.625-0.229c0.24,0,0.447,0.077,0.623,0.229C67.061,12.784,67.148,12.965,67.148,13.179z
				 M67.084,20.565h-1.648v-5.737h1.648V20.565z"/>
			<path fill="#FFFFFF" d="M73.363,17.688c0,0.891-0.213,1.598-0.639,2.131c-0.455,0.568-1.086,0.854-1.895,0.854
				s-1.438-0.285-1.883-0.854c-0.432-0.533-0.65-1.24-0.65-2.131c0-0.883,0.215-1.593,0.639-2.124
				c0.453-0.562,1.082-0.841,1.881-0.841c0.811,0,1.441,0.279,1.896,0.841C73.146,16.095,73.363,16.805,73.363,17.688z
				 M71.713,17.67c0-1.278-0.293-1.916-0.883-1.916s-0.883,0.638-0.883,1.916c0,1.248,0.293,1.873,0.883,1.873
				S71.713,18.918,71.713,17.67z"/>
			<path fill="#FFFFFF" d="M77.609,14.743l-0.311,1.17c-0.205-0.083-0.416-0.125-0.621-0.125c-0.189,0-0.352,0.03-0.496,0.095v4.681
				h-1.648v-5.416c0.58-0.285,1.381-0.425,2.395-0.425C77.141,14.723,77.367,14.729,77.609,14.743z"/>
			<path fill="#FFFFFF" d="M86.262,20.243c-0.531,0.287-1.262,0.43-2.191,0.43c-0.879,0-1.572-0.252-2.068-0.762
				c-0.502-0.506-0.752-1.229-0.752-2.172c0-0.905,0.232-1.626,0.699-2.162c0.461-0.535,1.07-0.803,1.824-0.803
				c0.307,0,0.584,0.029,0.84,0.085v-2.66h1.648V20.243L86.262,20.243z M84.613,19.534v-3.767c-0.135-0.044-0.287-0.066-0.453-0.066
				c-0.842,0-1.258,0.654-1.258,1.965c0,1.299,0.4,1.949,1.203,1.949C84.338,19.616,84.506,19.59,84.613,19.534z"/>
			<path fill="#FFFFFF" d="M92.436,17.793L89,18.284c0.111,0.84,0.574,1.26,1.381,1.26c0.596,0,1.094-0.107,1.488-0.32l0.373,1.033
				c-0.555,0.277-1.236,0.416-2.051,0.416c-0.873,0-1.553-0.268-2.039-0.805s-0.73-1.266-0.73-2.188c0-0.908,0.229-1.628,0.68-2.161
				c0.457-0.532,1.092-0.796,1.908-0.796c0.822,0,1.443,0.266,1.855,0.798C92.281,16.053,92.471,16.812,92.436,17.793z
				 M90.893,17.168c0-0.978-0.316-1.468-0.947-1.468c-0.346,0-0.615,0.146-0.801,0.438c-0.195,0.312-0.283,0.755-0.254,1.329
				L90.893,17.168z"/>
			<path fill="#FFFFFF" d="M97.17,20.256c-0.289,0.277-0.76,0.416-1.404,0.416c-0.701,0-1.268-0.262-1.691-0.777
				c-0.447-0.539-0.672-1.277-0.672-2.215c0-0.929,0.236-1.664,0.705-2.204c0.424-0.504,0.975-0.754,1.648-0.754
				c0.602,0,1.07,0.136,1.404,0.413l-0.34,0.917c-0.191-0.149-0.42-0.224-0.684-0.224c-0.707,0-1.063,0.61-1.063,1.829
				c0,0.582,0.092,1.033,0.277,1.354c0.184,0.316,0.443,0.48,0.777,0.48c0.283,0,0.514-0.08,0.693-0.236L97.17,20.256z"/>
			<path fill="#FFFFFF" d="M103.057,17.688c0,0.891-0.211,1.598-0.639,2.131c-0.455,0.568-1.086,0.854-1.895,0.854
				c-0.807,0-1.436-0.285-1.883-0.854c-0.434-0.533-0.648-1.24-0.648-2.131c0-0.883,0.213-1.593,0.639-2.124
				c0.451-0.562,1.082-0.841,1.881-0.841c0.811,0,1.441,0.279,1.895,0.841C102.842,16.095,103.057,16.805,103.057,17.688z
				 M101.408,17.67c0-1.278-0.295-1.916-0.885-1.916s-0.885,0.638-0.885,1.916c0,1.248,0.295,1.873,0.885,1.873
				S101.408,18.918,101.408,17.67z"/>
			<path fill="#FFFFFF" d="M107.305,14.743l-0.311,1.17c-0.209-0.083-0.416-0.125-0.623-0.125c-0.186,0-0.35,0.03-0.496,0.095v4.681
				h-1.646v-5.416c0.58-0.285,1.379-0.425,2.395-0.425C106.834,14.723,107.063,14.729,107.305,14.743z"/>
		</g>
	</g>
	<g>
		<path fill="#0099A8" d="M33.134,4.261c0-1.547-1.422-2.823-3.204-2.823c-1.761,0-3.202,1.276-3.202,2.823
			c0,1.579,1.44,2.816,3.202,2.816C31.711,7.078,33.134,5.84,33.134,4.261"/>
		<path fill="#FFFFFF" d="M23.577,29.84l-1.44-4.006c-0.842,0.496-1.578,0.805-3.045,0.805c-3.859,0-5.367-4.393-5.367-8.91
			c0-4.554,1.313-9.106,5.404-9.106c1.47,0,2.398,0.339,3.131,0.803l1.27-3.78c-1.314-0.968-3.163-1.539-5.753-1.539
			C10.661,4.108,7.304,10.661,7.284,17.704v0.133c0.021,7.145,3.3,13.598,10.455,13.598C20.29,31.434,22.214,30.895,23.577,29.84"/>
		<rect x="26.938" y="10.201" fill="#FFFFFF" width="6.194" height="21.233"/>
	</g>
</g>
</svg>
