<?xml version="1.0" encoding="utf-8"?>
<!-- Generator: Adobe Illustrator 16.0.0, SVG Export Plug-In . SVG Version: 6.00 Build 0)  -->
<!DOCTYPE svg PUBLIC "-//W3C//DTD SVG 1.1//EN" "http://www.w3.org/Graphics/SVG/1.1/DTD/svg11.dtd">
<svg version="1.1" id="Capa_1" xmlns="http://www.w3.org/2000/svg" xmlns:xlink="http://www.w3.org/1999/xlink" x="0px" y="0px"
	 width="40px" height="20px" viewBox="397.195 283.302 40 20" enable-background="new 397.195 283.302 40 20" xml:space="preserve">
<path fill="#0099A8" d="M501.981,368.802L486.88,356.99c-0.259-0.202-0.591-0.313-0.937-0.313c-0.345,0-0.678,0.111-0.936,0.313
	l-15.101,11.813c-0.592,0.463-0.13,1.802,0.621,1.802h3.006v14.552c0,0.753,0.613,1.365,1.366,1.365h7.072
	c0.753,0,1.366-0.612,1.366-1.365v-6.513h5.21v6.513c0,0.753,0.613,1.365,1.366,1.365h7.072c0.753,0,1.366-0.612,1.366-1.365
	v-14.552h3.006C502.111,370.604,502.573,369.265,501.981,368.802z M498.08,368.964c-0.754,0-1.366,0.613-1.366,1.367v14.551h-6.525
	v-6.512c0-0.754-0.613-1.367-1.366-1.367h-5.757c-0.753,0-1.366,0.613-1.366,1.367v6.512h-6.525v-14.551
	c0-0.754-0.612-1.367-1.366-1.367h-1.447l13.583-10.625l13.584,10.625H498.08z"/>
<polyline fill="#0099A8" points="530.522,367.703 530.522,347.703 546.359,338.703 562.196,347.703 562.196,367.703 
	560.857,366.367 560.857,349.041 546.359,340.724 531.861,349.04 531.861,366.367 560.857,366.367 562.196,367.703 "/>
<g>
	<path fill="#0099A8" d="M428.898,302.697c0,0.317,0.18,0.576,0.401,0.576h6.043c0.222,0,0.401-0.259,0.401-0.576v-11.472
		c0-0.318-0.18-0.575-0.401-0.575c-0.221,0-0.401,0.257-0.401,0.575v11.351h-5.241v-6.582c0-0.317-0.18-0.574-0.4-0.574h-3.931
		c-0.222,0-0.402,0.257-0.402,0.574v6.58h-5.307V290.45c0-0.317-0.154,0.073-0.375,0.073c-0.221,0-0.427-0.021-0.427,0.297v11.876
		c0,0.317,0.178,0.576,0.401,0.576h6.11c0.222,0,0.399-0.259,0.399-0.576v-6.127h3.13V302.697z"/>
	<path fill="#0099A8" d="M437.112,292.021l-9.594-8.619c-0.147-0.131-0.354-0.133-0.502-0.004l-9.524,8.321
		c-0.173,0.152-0.204,0.431-0.065,0.624c0.137,0.193,0.388,0.227,0.562,0.075l9.273-8.101l9.346,8.395
		c0.075,0.066,0.165,0.099,0.254,0.099c0.115,0,0.231-0.056,0.311-0.163C437.312,292.455,437.284,292.176,437.112,292.021z"/>
</g>
<g>
	<path fill="#FFFFFF" d="M408.686,302.696c0,0.317,0.18,0.576,0.402,0.576h6.042c0.221,0,0.402-0.259,0.402-0.576v-11.471
		c0-0.318-0.181-0.575-0.402-0.575c-0.221,0-0.401,0.257-0.401,0.575v11.35h-5.242v-6.581c0-0.317-0.179-0.574-0.399-0.574h-3.931
		c-0.221,0-0.402,0.257-0.402,0.574v6.579h-5.308V290.45c0-0.317-0.154,0.073-0.374,0.073c-0.223,0-0.427-0.021-0.427,0.297v11.876
		c0,0.317,0.178,0.576,0.4,0.576h6.11c0.221,0,0.4-0.259,0.4-0.576v-6.126h3.129V302.696z"/>
	<path fill="#FFFFFF" d="M416.9,292.021l-9.593-8.619c-0.148-0.131-0.354-0.133-0.502-0.004l-9.526,8.321
		c-0.172,0.152-0.203,0.431-0.064,0.624c0.137,0.193,0.388,0.227,0.563,0.075l9.273-8.101l9.346,8.395
		c0.075,0.066,0.165,0.099,0.253,0.099c0.116,0,0.231-0.056,0.311-0.163C417.1,292.455,417.073,292.175,416.9,292.021z"/>
</g>
</svg>
