<?xml version="1.0" encoding="utf-8"?>
<!-- Generator: Adobe Illustrator 16.0.4, SVG Export Plug-In . SVG Version: 6.00 Build 0)  -->
<!DOCTYPE svg PUBLIC "-//W3C//DTD SVG 1.1//EN" "http://www.w3.org/Graphics/SVG/1.1/DTD/svg11.dtd">
<svg version="1.1" id="Layer_1" xmlns="http://www.w3.org/2000/svg" xmlns:xlink="http://www.w3.org/1999/xlink" x="0px" y="0px"
	 width="102px" height="20px" viewBox="0 0 102 20" enable-background="new 0 0 102 20" xml:space="preserve">
<g>
	<g>
		<path fill-rule="evenodd" clip-rule="evenodd" fill="#246BB5" d="M7.106,0.707h11.71h0.618c0.866,0,1.575,0.75,1.575,1.666V3.17
			c0,1.126-1.525,1.122-1.525,0.008V2.742c0-0.276-0.226-0.503-0.503-0.503H6.627c-0.276,0-0.503,0.227-0.503,0.503v0.427
			c0,1.12-1.455,1.111-1.455,0.023V2.373c0-0.916,0.709-1.666,1.575-1.666H7.106L7.106,0.707z M12.76,19.293h7.995
			c1.826,0,1.844-1.94,1.658-2.898c-0.101-0.644-1.195-0.639-1.315,0v0.747c0,0.342-0.28,0.622-0.622,0.622H12.76h-0.618H5.146
			c-0.342,0-0.621-0.28-0.621-0.622v-0.747c-0.121-0.639-1.215-0.644-1.316,0c-0.186,0.958-0.167,2.898,1.659,2.898h7.275H12.76z"/>
		<path fill-rule="evenodd" clip-rule="evenodd" fill="#343336" d="M17.702,9.24h1.275V9.227c0.581-0.09,1.029-0.594,1.029-1.199
			v0.001c0-0.667-0.545-1.213-1.212-1.213h-2.567v6.339h3.255c0.689,0,1.252-0.563,1.252-1.252l0,0c0-0.688-0.563-1.251-1.252-1.251
			h-0.504v-0.003h-1.275c-0.387,0-0.704-0.317-0.704-0.704l0,0C16.998,9.557,17.315,9.24,17.702,9.24L17.702,9.24z M20.699,9.862
			c0.854,0.401,1.443,1.23,1.443,2.183l0,0c0,1.343-1.172,2.441-2.605,2.441h-4.015c-0.375,0-0.683-0.288-0.683-0.641V6.207
			c0-0.368,0.302-0.67,0.671-0.67h3.344c1.408,0,2.56,1.151,2.56,2.557l0,0C21.414,8.778,21.141,9.402,20.699,9.862z"/>
		<path fill="#343336" d="M14.202,13.723c0.047,0.442-0.273,0.84-0.716,0.887c-0.442,0.046-0.839-0.273-0.886-0.717l-0.66-6.074
			l-2.338,5.939l-0.002,0.006l0,0.001l0,0L9.592,13.78l-0.005,0.012l-0.001,0.003L9.58,13.808l-0.003,0.008l-0.005,0.012
			l-0.003,0.005l-0.006,0.012L9.56,13.849c-0.042,0.081-0.098,0.152-0.163,0.213l-0.002,0.003l-0.012,0.01
			c-0.042,0.037-0.089,0.071-0.14,0.1l-0.003,0.002l-0.015,0.008H9.223l-0.014,0.008l-0.007,0.003l-0.009,0.005l-0.009,0.004
			l-0.009,0.004l-0.01,0.005l-0.008,0.003l-0.008,0.004l-0.008,0.003l-0.004,0.001L9.13,14.227L9.12,14.229l-0.006,0.002
			c-0.078,0.027-0.158,0.042-0.236,0.045l-0.01,0.001H8.857H8.848H8.84H8.829l-0.01-0.001c-0.088-0.003-0.177-0.021-0.264-0.055
			l-0.01-0.005H8.541L8.53,14.212l-0.01-0.005l-0.008-0.004l-0.009-0.004l-0.01-0.005l-0.006-0.003l-0.015-0.008H8.471l-0.012-0.008
			l-0.008-0.003c-0.044-0.025-0.085-0.054-0.123-0.086l-0.003-0.002c-0.009-0.008-0.018-0.017-0.026-0.024H8.298
			c-0.007-0.007-0.013-0.014-0.02-0.02c-0.006-0.007-0.013-0.014-0.019-0.021H8.258c-0.008-0.009-0.016-0.018-0.023-0.026
			L8.232,13.99c-0.033-0.037-0.061-0.079-0.085-0.123L8.143,13.86l-0.007-0.013l0-0.001l-0.008-0.015l-0.003-0.006l-0.004-0.01
			l-0.004-0.009l-0.003-0.009l-0.005-0.01l-0.004-0.011l-0.001-0.003l-0.004-0.011L5.756,7.818l-0.66,6.074
			c-0.047,0.443-0.444,0.763-0.887,0.717c-0.442-0.047-0.763-0.444-0.715-0.887l0.778-7.162V6.559l0-0.003h0
			C4.282,6.473,4.3,6.39,4.324,6.308C4.35,6.229,4.382,6.15,4.423,6.074c0.199-0.373,0.564-0.635,1.001-0.695h0.001
			C5.44,5.376,5.455,5.375,5.469,5.374c0.068-0.007,0.137-0.01,0.203-0.006h0.003l0,0C5.763,5.372,5.844,5.383,5.919,5.4
			c0.416,0.098,0.77,0.387,0.936,0.81l1.992,5.062l1.993-5.062c0.166-0.423,0.52-0.712,0.936-0.81
			c0.075-0.018,0.157-0.028,0.244-0.032l0,0h0.003c0.067-0.004,0.136-0.001,0.204,0.006c0.015,0.001,0.029,0.002,0.043,0.005h0.001
			c0.437,0.061,0.802,0.322,1.001,0.695c0.04,0.076,0.073,0.154,0.098,0.233c0.025,0.081,0.043,0.165,0.052,0.248h0l0,0.003l0,0.002
			L14.202,13.723z"/>
	</g>
	<g>
		<path fill="#343336" d="M44.607,6.54c0-0.431,0.349-0.779,0.778-0.779c0.43,0,0.778,0.349,0.778,0.779v4.21v0.001h-0.003
			c0,0.963-0.394,1.837-1.027,2.471c-0.631,0.631-1.504,1.022-2.466,1.023v0.003h-0.002h-0.001v-0.003
			c-0.962,0-1.837-0.394-2.47-1.027c-0.631-0.631-1.023-1.504-1.023-2.466h-0.003V10.75V6.54c0-0.431,0.349-0.779,0.779-0.779
			s0.779,0.349,0.779,0.779v4.21v0.002h-0.003c0,0.532,0.22,1.018,0.573,1.371c0.352,0.352,0.837,0.571,1.369,0.571v-0.003h0.001
			h0.002v0.003c0.532,0,1.018-0.221,1.371-0.573c0.352-0.353,0.571-0.837,0.571-1.37h-0.002V10.75V6.54z"/>
		<path fill="#343336" d="M51.964,12.691c0.43,0,0.779,0.348,0.779,0.778c0,0.43-0.349,0.778-0.779,0.778h-2.149h-0.001v-0.003
			c-0.806,0-1.538-0.33-2.067-0.859c-0.528-0.528-0.855-1.258-0.856-2.063h-0.003V11.32V6.54c0-0.431,0.349-0.779,0.778-0.779
			s0.778,0.349,0.778,0.779v4.78v0.002h-0.003c0,0.375,0.156,0.718,0.406,0.968c0.248,0.249,0.591,0.404,0.966,0.404v-0.003h0.001
			H51.964z"/>
		<path fill="#343336" d="M38.879,13.379c0.05,0.426-0.255,0.812-0.681,0.863c-0.427,0.05-0.814-0.255-0.864-0.681l-0.667-5.606
			l-2.379,5.516c-0.169,0.395-0.627,0.576-1.021,0.407c-0.191-0.082-0.332-0.231-0.407-0.407h0L30.48,7.955l-0.667,5.606
			c-0.05,0.426-0.437,0.73-0.864,0.681c-0.426-0.051-0.731-0.438-0.681-0.863l0.774-6.51c0.051-0.425,0.31-0.774,0.681-0.966
			c0.048-0.025,0.1-0.048,0.151-0.067c0.02-0.008,0.04-0.015,0.06-0.021c0.066-0.021,0.143-0.037,0.229-0.05v0.001l0.006-0.001
			h0.007c0.406-0.052,0.807,0.079,1.087,0.343c0.056,0.054,0.109,0.114,0.159,0.183c0.033,0.047,0.064,0.096,0.091,0.146
			c0.016,0.027,0.03,0.057,0.043,0.087l2.016,4.675l2.017-4.675c0.167-0.386,0.509-0.65,0.911-0.738
			c0.077-0.017,0.154-0.027,0.229-0.031c0.058-0.003,0.115-0.003,0.169,0.001h0.005h0c0.019,0.001,0.038,0.003,0.057,0.006h0.006
			v0.003l0.003,0.001c0.416,0.052,0.771,0.286,0.97,0.621h-0.001c0.042,0.07,0.076,0.145,0.103,0.222
			c0.017,0.05,0.032,0.1,0.042,0.152c0.008,0.033,0.014,0.067,0.019,0.103l0.001,0.007L38.879,13.379z"/>
		<path fill="#343336" d="M55.365,13.47c0,0.43-0.349,0.778-0.778,0.778s-0.778-0.349-0.778-0.778V7.318h-2.215
			c-0.43,0-0.779-0.349-0.779-0.778c0-0.431,0.349-0.779,0.779-0.779h2.993h2.993c0.43,0,0.778,0.349,0.778,0.779
			c0,0.43-0.348,0.778-0.778,0.778h-2.215V13.47z"/>
		<path fill="#343336" d="M60.221,13.47c0,0.43-0.348,0.778-0.778,0.778c-0.43,0-0.778-0.349-0.778-0.778V6.54
			c0-0.431,0.349-0.779,0.778-0.779c0.43,0,0.778,0.349,0.778,0.779V13.47z"/>
		<path fill="#343336" d="M76.191,13.375c0.052,0.427-0.252,0.814-0.679,0.867c-0.426,0.052-0.814-0.252-0.866-0.679l-0.273-2.198
			h-2.698c-0.43,0-0.778-0.349-0.778-0.778c0-0.431,0.349-0.778,0.778-0.778h2.504l-0.071-0.571L74.106,9.23
			c-0.002-0.018-0.003-0.036-0.004-0.055c-0.021-0.13-0.05-0.264-0.09-0.397c-0.046-0.15-0.099-0.289-0.161-0.41
			c-0.309-0.617-0.867-1.05-1.574-1.05l0,0h-0.007V7.315c-0.135,0-0.266,0.018-0.392,0.047c-0.117,0.028-0.234,0.072-0.348,0.131
			c-0.597,0.304-0.998,0.969-1.084,1.734l-0.487,4.327c-0.047,0.427-0.432,0.734-0.858,0.688c-0.426-0.047-0.734-0.432-0.687-0.858
			l0.487-4.326c0.144-1.277,0.854-2.407,1.923-2.952c0.21-0.106,0.441-0.192,0.688-0.251c0.24-0.059,0.493-0.09,0.757-0.09V5.761
			h0.007l0,0c1.35,0,2.398,0.789,2.961,1.913c0.108,0.217,0.197,0.438,0.264,0.661c0.06,0.198,0.105,0.411,0.136,0.634
			c0.006,0.023,0.01,0.048,0.013,0.073l0.001,0.006L76.191,13.375z"/>
		<path fill="#343336" d="M78.575,13.47c0,0.43-0.349,0.778-0.779,0.778s-0.778-0.349-0.778-0.778V7.032V7.029
			c0-0.044,0.003-0.089,0.01-0.132c0.011-0.088,0.032-0.172,0.062-0.252l0.001-0.002L77.09,6.643
			c0.016-0.043,0.038-0.089,0.064-0.14l0.001-0.002h-0.001c0.13-0.236,0.341-0.42,0.608-0.511c0.035-0.013,0.071-0.022,0.106-0.029
			c0.028-0.007,0.056-0.013,0.083-0.017l0.007-0.001V5.941c0.052-0.008,0.115-0.012,0.186-0.01h0.006h0.014l0,0
			c0.319,0.013,0.618,0.161,0.823,0.423l4.144,5.284V6.54c0-0.431,0.349-0.779,0.778-0.779c0.43,0,0.778,0.349,0.778,0.779v6.408
			c0,0.339-0.152,0.645-0.406,0.853c-0.048,0.039-0.102,0.076-0.159,0.108c-0.031,0.017-0.063,0.032-0.097,0.047l-0.009,0.004
			h-0.001c-0.021,0.01-0.042,0.019-0.064,0.027l-0.003,0.001v-0.001h0v-0.001l-0.005,0.002c-0.282,0.097-0.579,0.076-0.834-0.048
			c-0.034-0.014-0.067-0.031-0.101-0.052c-0.053-0.032-0.105-0.071-0.154-0.115c-0.031-0.027-0.064-0.062-0.099-0.104l-0.026-0.03
			l-0.001-0.002l0,0l-0.009-0.012l-4.144-5.283V13.47z"/>
		<path fill="#343336" d="M90.734,12.691c0.43,0,0.779,0.348,0.779,0.778c0,0.43-0.349,0.778-0.779,0.778H88.44h-0.001v-0.003
			c-0.845,0-1.614-0.346-2.169-0.902c-0.554-0.554-0.897-1.32-0.899-2.165h-0.002v-0.002V8.833l0,0h0.002
			c0.001-0.846,0.346-1.614,0.902-2.17c0.554-0.554,1.32-0.898,2.165-0.898V5.761h0.003h2.293c0.43,0,0.779,0.349,0.779,0.779
			c0,0.43-0.349,0.778-0.779,0.778H88.44h-0.003V7.315c-0.414,0-0.793,0.172-1.07,0.449c-0.274,0.273-0.445,0.652-0.445,1.068h0.003
			l0,0v2.343v0.002h-0.003c0,0.415,0.172,0.794,0.448,1.07c0.275,0.274,0.653,0.446,1.068,0.446v-0.003h0.001H90.734z"/>
		<path fill="#343336" d="M95.237,5.761h0.001v0.004c0.993,0,1.896,0.391,2.551,1.021c0.663,0.637,1.074,1.519,1.075,2.493h0.002
			v0.001v1.45v0.001h-0.002c-0.001,0.975-0.412,1.856-1.075,2.494c-0.655,0.629-1.558,1.02-2.55,1.021v0.003h-0.002l0,0v-0.003
			c-0.993,0-1.896-0.392-2.552-1.021c-0.662-0.638-1.074-1.52-1.075-2.493h-0.003v-0.002v-1.45V9.278h0.003
			c0.001-0.974,0.413-1.857,1.076-2.493c0.655-0.63,1.558-1.021,2.549-1.021V5.761H95.237L95.237,5.761z M95.239,7.315v0.003h-0.001
			h-0.001V7.315c-0.574,0-1.096,0.226-1.473,0.588c-0.371,0.356-0.601,0.844-0.601,1.375h0.003v0.001v1.45v0.002h-0.003
			c0,0.531,0.23,1.018,0.6,1.374c0.378,0.362,0.9,0.589,1.476,0.589v-0.003l0,0h0.002v0.003c0.574,0,1.096-0.226,1.474-0.589
			c0.37-0.355,0.6-0.843,0.6-1.375h-0.002v-0.001v-1.45V9.278h0.002c0-0.532-0.23-1.019-0.6-1.374
			C96.336,7.541,95.813,7.315,95.239,7.315z"/>
		<path fill="#343336" d="M60.875,9.956V6.573l0,0c0-0.11,0.023-0.215,0.064-0.31c0.042-0.102,0.104-0.192,0.18-0.268l0.009-0.009
			l0,0c0.132-0.127,0.308-0.211,0.512-0.223c0.015-0.001,0.031-0.003,0.045-0.002V5.761h0.002h3h0.001v0.004
			c0.685,0,1.307,0.279,1.755,0.729c0.448,0.448,0.727,1.067,0.727,1.752h0.003v0.001v0.001v0.001h-0.003
			c0,0.484-0.141,0.938-0.382,1.319c0.16,0.102,0.308,0.22,0.441,0.354c0.017,0.017,0.033,0.034,0.047,0.052
			c0.429,0.452,0.693,1.064,0.693,1.736h0.003v0.003l0,0v0.001h-0.003c0,0.697-0.285,1.331-0.744,1.791
			c-0.457,0.455-1.088,0.739-1.786,0.74v0.003h-0.002h-3.785c-0.431,0-0.779-0.349-0.779-0.778V9.956L60.875,9.956z M62.432,7.318
			v2.638v2.735h3.007h0.002v0.003c0.267,0,0.511-0.111,0.69-0.291c0.178-0.177,0.289-0.422,0.289-0.689h-0.003v-0.001l0,0V11.71
			h0.003c0-0.251-0.1-0.483-0.26-0.659l-0.03-0.028c-0.179-0.18-0.424-0.291-0.69-0.291v0.003h-0.001h-0.749h-0.002h-0.284
			c-0.429,0-0.779-0.35-0.779-0.778l0,0c0-0.429,0.35-0.778,0.779-0.778h0.284h0.002h0.068c0.225-0.018,0.431-0.119,0.585-0.273
			l0.001,0.001l0.002-0.001c0.168-0.169,0.274-0.401,0.274-0.655h-0.003V8.248V8.247V8.246h0.003c0-0.254-0.106-0.486-0.277-0.657
			c-0.168-0.168-0.4-0.273-0.655-0.273v0.003h-0.001H62.432z"/>
	</g>
</g>
</svg>
