<?xml version="1.0" encoding="utf-8"?>
<!-- Generator: Adobe Illustrator 16.0.0, SVG Export Plug-In . SVG Version: 6.00 Build 0)  -->
<!DOCTYPE svg PUBLIC "-//W3C//DTD SVG 1.0//EN" "http://www.w3.org/TR/2001/REC-SVG-20010904/DTD/svg10.dtd" [
	<!ENTITY ns_flows "http://ns.adobe.com/Flows/1.0/">
	<!ENTITY ns_extend "http://ns.adobe.com/Extensibility/1.0/">
	<!ENTITY ns_ai "http://ns.adobe.com/AdobeIllustrator/10.0/">
	<!ENTITY ns_graphs "http://ns.adobe.com/Graphs/1.0/">
]>
<svg version="1.0" id="Capa_1" xmlns:x="&ns_extend;" xmlns:i="&ns_ai;" xmlns:graph="&ns_graphs;"
	 xmlns="http://www.w3.org/2000/svg" xmlns:xlink="http://www.w3.org/1999/xlink" xmlns:a="http://ns.adobe.com/AdobeSVGViewerExtensions/3.0/"
	 x="0px" y="0px" width="39.795px" height="20px" viewBox="0 0 39.795 20" enable-background="new 0 0 39.795 20"
	 xml:space="preserve">
<g>
	<path fill="#0099A8" d="M39.004,6.105c-1.049-2.459-2.828-4.249-5.291-5.307C32.484,0.271,31.205,0,29.859,0
		c-1.348,0-2.627,0.269-3.857,0.799c-2.439,1.056-4.239,2.843-5.288,5.307c-0.526,1.234-0.782,2.527-0.782,3.885
		c0,1.355,0.256,2.658,0.782,3.895c1.049,2.464,2.849,4.262,5.288,5.316c1.23,0.531,2.51,0.799,3.857,0.799
		c1.346,0,2.625-0.271,3.854-0.799c2.463-1.059,4.242-2.857,5.291-5.316c0.525-1.239,0.791-2.538,0.791-3.895
		C39.795,8.633,39.531,7.344,39.004,6.105z M26.557,1.86c-0.857,1.095-1.488,2.484-1.891,4.169H22.07
		C23.027,4.158,24.635,2.66,26.557,1.86z M21.137,9.99c0-0.953,0.152-1.871,0.445-2.758h2.846c-0.143,0.93-0.207,1.85-0.207,2.758
		c0,0.895,0.064,1.805,0.207,2.734h-2.867C21.279,11.838,21.137,10.92,21.137,9.99z M22.07,13.928h2.596
		c0.402,1.717,1.033,3.128,1.891,4.212C24.604,17.32,22.994,15.821,22.07,13.928z M29.25,18.688
		c-0.707-0.209-1.369-0.732-1.967-1.588c-0.596-0.854-1.053-1.914-1.367-3.172h3.334V18.688z M29.25,12.725h-3.605
		c-0.143-0.973-0.219-1.883-0.219-2.734c0-0.92,0.078-1.839,0.24-2.758h3.584V12.725L29.25,12.725z M29.25,6.029h-3.334
		c0.336-1.248,0.795-2.296,1.391-3.141c0.6-0.852,1.236-1.379,1.943-1.575V6.029L29.25,6.029z M37.656,6.029h-2.596
		c-0.4-1.685-1.031-3.074-1.891-4.169C35.092,2.66,36.701,4.158,37.656,6.029z M30.479,1.313c0.705,0.196,1.344,0.724,1.941,1.575
		c0.596,0.844,1.055,1.893,1.393,3.141h-3.334V1.313L30.479,1.313z M30.479,7.232h3.584c0.162,0.919,0.238,1.838,0.238,2.758
		c0,0.852-0.076,1.762-0.219,2.734h-3.604V7.232L30.479,7.232z M30.479,18.688v-4.76h3.334c-0.326,1.258-0.789,2.314-1.379,3.172
		C31.84,17.961,31.193,18.492,30.479,18.688z M33.17,18.14c0.859-1.084,1.488-2.495,1.891-4.212h2.596
		C36.734,15.821,35.127,17.32,33.17,18.14z M38.166,12.725h-2.867c0.143-0.932,0.207-1.84,0.207-2.734
		c0-0.908-0.064-1.828-0.207-2.758h2.846c0.295,0.887,0.445,1.805,0.445,2.758C38.59,10.92,38.451,11.838,38.166,12.725z"/>
</g>
<g>
	<path fill="#FFFFFF" d="M19.141,6.105c-1.049-2.46-2.828-4.249-5.291-5.307C12.621,0.271,11.342,0,9.996,0
		C8.648,0,7.369,0.269,6.141,0.799C3.699,1.854,1.9,3.642,0.852,6.105C0.326,7.34,0.069,8.633,0.069,9.99
		c0,1.356,0.257,2.658,0.782,3.895c1.049,2.464,2.848,4.262,5.289,5.316C7.369,19.732,8.65,20,9.996,20
		c1.348,0,2.625-0.271,3.854-0.799c2.463-1.059,4.242-2.857,5.291-5.316c0.525-1.239,0.791-2.538,0.791-3.895
		C19.932,8.633,19.668,7.344,19.141,6.105z M6.693,1.86C5.836,2.955,5.205,4.345,4.803,6.029H2.207
		C3.164,4.158,4.771,2.66,6.693,1.86z M1.273,9.99c0-0.953,0.152-1.871,0.445-2.758h2.846c-0.141,0.93-0.205,1.85-0.205,2.758
		c0,0.895,0.064,1.805,0.205,2.734H1.697C1.416,11.838,1.273,10.92,1.273,9.99z M2.207,13.928h2.598
		c0.402,1.717,1.031,3.128,1.891,4.212C4.738,17.32,3.131,15.821,2.207,13.928z M9.387,18.688C8.682,18.479,8.018,17.955,7.42,17.1
		c-0.596-0.854-1.053-1.914-1.367-3.172h3.334V18.688z M9.387,12.725H5.781c-0.143-0.973-0.219-1.883-0.219-2.734
		c0-0.92,0.076-1.839,0.24-2.758h3.584V12.725L9.387,12.725z M9.387,6.029H6.053c0.336-1.248,0.795-2.296,1.391-3.141
		c0.6-0.852,1.238-1.379,1.943-1.575V6.029L9.387,6.029z M17.793,6.029h-2.596c-0.4-1.685-1.031-3.074-1.891-4.169
		C15.229,2.66,16.838,4.158,17.793,6.029z M10.615,1.313c0.705,0.196,1.344,0.724,1.941,1.575c0.596,0.844,1.055,1.893,1.393,3.141
		h-3.334V1.313L10.615,1.313z M10.615,7.232h3.584c0.162,0.919,0.238,1.838,0.238,2.758c0,0.852-0.076,1.762-0.219,2.734h-3.604
		V7.232L10.615,7.232z M10.615,18.688v-4.76h3.334c-0.326,1.258-0.789,2.314-1.379,3.172C11.977,17.961,11.33,18.492,10.615,18.688z
		 M13.307,18.14c0.859-1.084,1.488-2.495,1.891-4.212h2.596C16.871,15.821,15.264,17.32,13.307,18.14z M18.303,12.725h-2.867
		c0.143-0.932,0.207-1.84,0.207-2.734c0-0.908-0.064-1.828-0.207-2.758h2.846c0.295,0.887,0.445,1.805,0.445,2.758
		C18.727,10.92,18.588,11.838,18.303,12.725z"/>
</g>
</svg>
