<?xml version="1.0" encoding="utf-8"?>
<!-- Generator: Adobe Illustrator 16.0.4, SVG Export Plug-In . SVG Version: 6.00 Build 0)  -->
<!DOCTYPE svg PUBLIC "-//W3C//DTD SVG 1.1//EN" "http://www.w3.org/Graphics/SVG/1.1/DTD/svg11.dtd">
<svg version="1.1" id="Layer_1" xmlns="http://www.w3.org/2000/svg" xmlns:xlink="http://www.w3.org/1999/xlink" x="0px" y="0px"
	 width="56px" height="20px" viewBox="0 0 56 20" enable-background="new 0 0 56 20" xml:space="preserve">
<g>
	<path fill="#336699" d="M45.303,8.164c-0.569-0.316-1.458-0.476-2.674-0.476c-0.601,0-1.205,0.048-1.811,0.143
		c-0.446,0.066-0.49,0.079-0.768,0.139c-0.568,0.124-0.656,0.693-0.656,0.693l-0.183,0.753c-0.104,0.479,0.171,0.459,0.291,0.422
		c0.25-0.075,0.384-0.149,0.89-0.263c0.485-0.11,0.997-0.193,1.404-0.189c0.598,0,1.054,0.065,1.357,0.192
		c0.302,0.132,0.453,0.356,0.453,0.678c0.001,0.077,0.003,0.148-0.024,0.212c-0.026,0.059-0.073,0.116-0.217,0.135
		c-0.854,0.051-1.466,0.128-2.207,0.237c-0.727,0.103-1.364,0.278-1.898,0.521c-0.568,0.252-0.993,0.589-1.287,1.016
		c-0.284,0.43-0.427,0.95-0.428,1.562c0,0.578,0.208,1.051,0.61,1.418c0.408,0.362,0.938,0.54,1.579,0.54
		c0.4-0.003,0.714-0.032,0.938-0.088c0.221-0.056,0.464-0.135,0.72-0.245c0.191-0.081,0.398-0.196,0.616-0.341
		c0.219-0.146,0.371-0.25,0.563-0.377l0.008,0.012l-0.056,0.241c0,0.002-0.003,0.003-0.003,0.005l0.002,0.005
		c-0.063,0.29,0.112,0.531,0.398,0.56l0.004,0.005h0.024l0.002,0.001c0.19,0,0.844,0,1.15-0.001h0.213
		c0.014,0,0.017-0.005,0.021-0.009c0.292-0.036,0.574-0.274,0.642-0.562l1.091-4.713c0.024-0.11,0.045-0.239,0.056-0.387
		c0.015-0.149,0.031-0.27,0.026-0.36C46.155,8.975,45.869,8.481,45.303,8.164z M42.656,13.782c-0.187,0.117-0.381,0.218-0.586,0.304
		c-0.277,0.11-0.539,0.168-0.781,0.168c-0.373,0-0.659-0.053-0.851-0.164c-0.194-0.107-0.295-0.293-0.292-0.557
		c0-0.307,0.07-0.545,0.216-0.732C40.51,12.623,40.73,12.478,41,12.37c0.271-0.091,0.603-0.166,0.985-0.22
		c0.342-0.044,1.017-0.122,1.103-0.123c0.086,0,0.144-0.048,0.105,0.181c-0.017,0.1-0.212,0.9-0.302,1.262
		C42.866,13.581,42.722,13.74,42.656,13.782z"/>
	<path fill="#003366" d="M26.511,7.791c-0.319,0-0.741,0.26-0.939,0.574c0,0-2.144,3.674-2.354,4.041
		c-0.115,0.198-0.23,0.073-0.251,0c-0.014-0.089-0.662-4.016-0.662-4.016C22.23,8.073,21.9,7.802,21.487,7.803l-1.336,0.002
		c-0.322,0-0.524,0.257-0.452,0.57c0,0,1.021,5.791,1.22,7.152c0.1,0.752-0.01,0.887-0.01,0.887l-1.326,2.31
		c-0.192,0.312-0.087,0.57,0.234,0.57l1.548,0c0.32,0,0.745-0.256,0.938-0.57l5.957-10.078c0,0,0.57-0.86,0.044-0.854
		C27.947,7.798,26.511,7.791,26.511,7.791"/>
	<path fill="#003366" d="M7.702,9.84c-0.452,0.33-1.076,0.496-1.888,0.496H5.447c-0.323,0-0.528-0.257-0.455-0.572l0.451-1.94
		c0.068-0.312,0.39-0.572,0.713-0.568l0.49-0.004c0.572,0,1.006,0.097,1.299,0.292c0.289,0.188,0.437,0.488,0.43,0.891
		C8.384,9.041,8.154,9.51,7.702,9.84 M10.932,6.85c-0.186-0.363-0.463-0.657-0.82-0.879c-0.368-0.228-0.799-0.385-1.298-0.48
		c-0.504-0.09-1.091-0.133-1.766-0.14L3.926,5.354C3.6,5.358,3.284,5.61,3.208,5.924l-2.105,9.153
		c-0.073,0.312,0.128,0.57,0.453,0.57h1.497c0.321,0,0.644-0.251,0.715-0.57l0.516-2.222c0.068-0.311,0.39-0.568,0.713-0.568h0.427
		c1.83-0.002,3.249-0.375,4.268-1.125c1.018-0.747,1.527-1.738,1.525-2.964C11.219,7.659,11.125,7.209,10.932,6.85"/>
	<path fill="#336699" d="M34.858,9.878c-0.447,0.326-1.077,0.489-1.886,0.489H32.6c-0.323,0.003-0.53-0.256-0.454-0.568l0.449-1.943
		c0.066-0.307,0.393-0.569,0.711-0.565l0.49-0.004c0.576,0.004,1.005,0.099,1.301,0.289c0.291,0.194,0.431,0.494,0.434,0.894
		C35.532,9.077,35.308,9.544,34.858,9.878 M38.086,6.883c-0.187-0.362-0.467-0.655-0.823-0.881c-0.365-0.228-0.798-0.386-1.3-0.477
		c-0.496-0.088-1.087-0.137-1.759-0.139l-3.129,0.001c-0.324,0.005-0.639,0.258-0.713,0.571l-2.103,9.155
		c-0.077,0.311,0.131,0.57,0.449,0.568l1.501-0.002c0.318,0.002,0.643-0.255,0.719-0.566l0.507-2.222
		c0.071-0.312,0.395-0.572,0.718-0.567h0.427c1.833,0,3.252-0.377,4.269-1.126c1.014-0.754,1.523-1.74,1.523-2.968
		C38.368,7.693,38.278,7.242,38.086,6.883"/>
	<path fill="#003366" d="M18.141,8.158c-0.568-0.316-1.455-0.477-2.671-0.477c-0.601,0-1.205,0.047-1.812,0.142
		c-0.445,0.069-0.49,0.079-0.767,0.14c-0.568,0.124-0.656,0.693-0.656,0.693l-0.184,0.75c-0.104,0.482,0.171,0.461,0.294,0.424
		c0.247-0.074,0.382-0.148,0.889-0.263c0.482-0.11,0.995-0.192,1.404-0.189c0.598,0,1.053,0.065,1.355,0.192
		c0.303,0.131,0.453,0.356,0.453,0.679c0.001,0.076,0.003,0.149-0.024,0.21c-0.025,0.061-0.073,0.116-0.216,0.136
		c-0.854,0.052-1.465,0.129-2.206,0.237c-0.729,0.102-1.366,0.277-1.899,0.521c-0.568,0.252-0.992,0.589-1.286,1.018
		c-0.287,0.43-0.429,0.95-0.429,1.562c0,0.579,0.208,1.05,0.61,1.417c0.407,0.361,0.938,0.541,1.577,0.541
		c0.4-0.003,0.713-0.032,0.939-0.088c0.222-0.056,0.464-0.136,0.72-0.246c0.191-0.081,0.398-0.196,0.616-0.342
		c0.218-0.145,0.371-0.249,0.564-0.375l0.007,0.012l-0.055,0.24c0,0.002-0.002,0.003-0.002,0.006l0.002,0.004
		c-0.064,0.291,0.111,0.531,0.398,0.559l0.004,0.006h0.025l0.001,0.003c0.19,0,0.844-0.001,1.15-0.003h0.213
		c0.015,0,0.017-0.005,0.022-0.008c0.292-0.037,0.573-0.274,0.64-0.561l1.092-4.715c0.024-0.11,0.045-0.238,0.056-0.385
		c0.015-0.149,0.031-0.271,0.026-0.36C18.995,8.969,18.707,8.475,18.141,8.158z M15.495,13.775
		c-0.185,0.118-0.382,0.217-0.588,0.302c-0.275,0.112-0.539,0.17-0.781,0.17c-0.371,0-0.657-0.053-0.851-0.165
		c-0.192-0.107-0.294-0.292-0.292-0.558c0-0.307,0.072-0.543,0.218-0.73c0.147-0.181,0.364-0.325,0.636-0.432
		c0.271-0.092,0.604-0.166,0.988-0.22c0.34-0.044,1.015-0.12,1.102-0.122c0.085,0,0.144-0.048,0.105,0.182
		c-0.018,0.1-0.211,0.899-0.301,1.262C15.705,13.575,15.561,13.733,15.495,13.775z"/>
	<g>
		<g>
			<path fill="#336699" d="M50.458,5.46H49.12c0,0-0.001,0-0.002,0l-0.001,0c-0.301,0-0.6,0.227-0.693,0.518
				c-0.006,0.018-0.019,0.033-0.023,0.051c0,0-0.032,0.144-0.086,0.392l-1.838,8.335c-0.041,0.181-0.072,0.315-0.08,0.346
				l0.004,0.005c-0.062,0.289,0.112,0.523,0.395,0.553l0.008,0.012h1.389c0.296,0,0.589-0.224,0.687-0.506
				c0.008-0.022,0.023-0.042,0.029-0.064l2.006-9.074l-0.003-0.001C50.979,5.719,50.78,5.46,50.458,5.46z"/>
		</g>
	</g>
	<g>
		<path fill="#336699" d="M52.49,7.308c-0.046,0.012-0.096,0.022-0.15,0.029c-0.055,0.009-0.103,0.013-0.145,0.013
			c-0.15,0-0.264-0.04-0.34-0.119c-0.077-0.081-0.116-0.209-0.116-0.385V6.071h-0.165V5.865h0.165V5.448h0.246v0.417h0.505v0.206
			h-0.505v0.664c0,0.076,0.003,0.135,0.004,0.178c0.004,0.043,0.016,0.084,0.038,0.122c0.019,0.035,0.045,0.059,0.079,0.076
			c0.034,0.016,0.085,0.024,0.153,0.024c0.04,0,0.082-0.006,0.125-0.018c0.043-0.011,0.075-0.021,0.094-0.03h0.012V7.308z"/>
		<path fill="#336699" d="M54.912,7.321h-0.247V6.492c0-0.062-0.002-0.123-0.008-0.181c-0.006-0.059-0.018-0.104-0.037-0.14
			c-0.02-0.037-0.047-0.066-0.086-0.084c-0.038-0.02-0.091-0.03-0.161-0.03c-0.069,0-0.137,0.017-0.206,0.052
			c-0.069,0.034-0.138,0.077-0.206,0.13c0.002,0.02,0.003,0.043,0.005,0.071c0.003,0.025,0.003,0.051,0.003,0.078v0.932h-0.244
			V6.492c0-0.064-0.004-0.125-0.01-0.183c-0.005-0.058-0.018-0.104-0.035-0.139c-0.021-0.038-0.049-0.066-0.086-0.085
			c-0.038-0.018-0.091-0.028-0.161-0.028c-0.067,0-0.135,0.017-0.203,0.05c-0.067,0.032-0.133,0.074-0.201,0.126v1.087h-0.245V5.865
			h0.245v0.161c0.077-0.062,0.153-0.113,0.23-0.148c0.075-0.036,0.155-0.054,0.242-0.054c0.098,0,0.183,0.021,0.252,0.063
			c0.069,0.041,0.12,0.099,0.154,0.174c0.098-0.084,0.19-0.145,0.271-0.181c0.082-0.037,0.169-0.057,0.261-0.057
			c0.16,0,0.278,0.049,0.355,0.146c0.076,0.097,0.115,0.234,0.115,0.405V7.321z"/>
	</g>
</g>
</svg>
