<?xml version="1.0" encoding="utf-8"?>
<!-- Generator: Adobe Illustrator 16.0.0, SVG Export Plug-In . SVG Version: 6.00 Build 0)  -->
<!DOCTYPE svg PUBLIC "-//W3C//DTD SVG 1.1//EN" "http://www.w3.org/Graphics/SVG/1.1/DTD/svg11.dtd">
<svg version="1.1" id="Camada_1" xmlns="http://www.w3.org/2000/svg" xmlns:xlink="http://www.w3.org/1999/xlink" x="0px" y="0px"
	 width="746.767px" height="45.185px" viewBox="31.062 32.395 746.767 45.185"
	 enable-background="new 31.062 32.395 746.767 45.185" xml:space="preserve">
<g>
	<rect x="233.976" y="55.878" fill="#FFFFFF" width="23.316" height="7.271"/>
	<path fill="#FFFFFF" d="M245.423,48.204c5.418-3.914,8.524-13.25,0.709-13.25c6.335,0,10.878,3.791,10.878,9.055v0.074
		c0,4.231-2.256,6.522-5.577,8.664l-0.281,0.178h-12.787L245.423,48.204z"/>
	<path fill="#FFFFFF" d="M263.755,38.965c-2.837,2.622-4.562,6.311-4.562,10.419v0.079c0,5.236,2.77,9.749,7.056,12.264
		c7.515,2.658,15.147-1.078,15.147-8.104c0-1.759-0.465-3.38-1.297-4.708c0.006,0.154,0.019,0.313,0.019,0.471v0.079
		c0,2.229-1.039,4.302-2.832,5.39c-6.555,4.979-15.036,0.359-15.036-9.563C262.251,43.094,262.765,40.902,263.755,38.965"/>
	<path fill="#FFFFFF" d="M289.462,49.384c0,7.908-6.383,14.241-14.736,14.456c5.65-0.177,9.178-4.943,9.178-10.219v-0.135
		c0-5.441-3.73-10.346-9.619-10.362c-3.534,0.019-5.742,2.94-5.742,6.183v0.078c0,3.266,2.226,6.221,5.742,6.264
		c-5.84-0.063-9.533-4.947-9.533-10.358v-0.136c0-5.381,3.676-10.235,9.509-10.235h0.109c8.555,0,15.091,6.343,15.091,14.39
		L289.462,49.384L289.462,49.384z"/>
	<path fill="#FFFFFF" d="M191.722,39.691c0.605-3.289-2.771-4.946-6.171-4.317c-3.418,0.81-5.814,2.741-8.181,5.67l6.084,5.181
		c2.293-2.453,3.755-3.449,5.333-3.449c0.593,0,1.082,0.123,1.473,0.338C191.006,41.954,191.526,40.738,191.722,39.691"/>
	<rect x="177.431" y="55.878" fill="#FFFFFF" width="23.31" height="7.271"/>
	<path fill="#FFFFFF" d="M181.815,52.925h12.792l0.275-0.178c3.32-2.134,5.583-4.433,5.583-8.664v-0.08
		c0-5.258-4.549-9.049-10.878-9.049c7.808,0,4.708,9.336-0.709,13.25L181.815,52.925z"/>
	<path fill="#FFFFFF" d="M205.7,45.288c0,9.924,8.481,14.542,15.036,9.563c1.793-1.09,2.832-3.16,2.832-5.391v-0.079
		c0-0.157-0.006-0.315-0.019-0.471c0.832,1.327,1.303,2.948,1.303,4.708c0,7.025-7.631,10.764-15.147,8.104
		c-4.298-2.514-7.062-7.025-7.062-12.263v-0.079c0-4.107,1.729-7.797,4.555-10.419C206.22,40.902,205.7,43.094,205.7,45.288"/>
	<path fill="#FFFFFF" d="M232.918,49.305c0-8.041-6.537-14.389-15.098-14.389h-0.109c-5.84,0-9.503,4.854-9.503,10.234v0.137
		c0,5.41,3.687,10.297,9.533,10.357c-3.516-0.041-5.748-2.996-5.748-6.264v-0.078c0-3.24,2.208-6.162,5.748-6.182
		c5.889,0.02,9.613,4.921,9.613,10.363v0.134c0,5.272-3.528,10.048-9.172,10.219c8.34-0.215,14.737-6.548,14.737-14.456
		L232.918,49.305L232.918,49.305z"/>
	<path fill="#FFFFFF" d="M246.811,43.111c-0.391-0.215-0.887-0.338-1.468-0.338c-1.583,0-3.045,0.996-5.337,3.449l-6.091-5.187
		c2.373-2.923,4.764-4.854,8.188-5.664c3.394-0.629,6.775,1.028,6.17,4.317C248.077,40.738,247.557,41.954,246.811,43.111"/>
</g>
<g>
	<path fill="#FFFFFF" d="M31.063,70.771h1.658c0.937,0,1.455,0.555,1.455,1.309c0,0.752-0.518,1.299-1.455,1.299h-0.848v1.424h0.447
		v0.311h-1.257v-0.311h0.39v-3.725h-0.39V70.771z M32.683,73.047c0.707,0,1.058-0.383,1.058-0.967c0-0.594-0.356-0.975-1.058-0.975
		h-0.81v1.939L32.683,73.047L32.683,73.047z"/>
	<path fill="#FFFFFF" d="M36.201,73.33h-0.95v1.473h0.447v0.311h-1.256v-0.311h0.387v-3.725h-0.387v-0.307h1.682
		c0.938,0,1.449,0.563,1.449,1.297c0,0.586-0.327,1.039-0.952,1.189l0.964,1.543h0.401v0.311h-0.682L36.201,73.33z M36.068,72.996
		c0.739,0,1.07-0.361,1.07-0.938c0-0.578-0.337-0.953-1.07-0.953h-0.817v1.891H36.068z"/>
	<path fill="#FFFFFF" d="M38.185,72.939c0-1.281,0.998-2.217,2.228-2.217c1.237,0,2.231,0.936,2.231,2.217s-0.995,2.219-2.231,2.219
		C39.182,75.158,38.185,74.221,38.185,72.939z M42.202,72.939c0-1.059-0.758-1.855-1.79-1.855c-1.034,0-1.792,0.799-1.792,1.855
		c0,1.059,0.758,1.854,1.792,1.854C41.444,74.795,42.202,73.998,42.202,72.939z"/>
	<path fill="#FFFFFF" d="M46.751,74.629c-0.312,0.314-0.783,0.529-1.415,0.529c-1.2,0-2.193-0.854-2.193-2.219
		c0-1.281,0.988-2.217,2.18-2.217c0.599,0,1.059,0.191,1.314,0.547v-0.498h0.345v1.117h-0.326c-0.158-0.531-0.617-0.799-1.307-0.799
		c-1.035,0-1.771,0.791-1.771,1.85c0,1.084,0.769,1.854,1.795,1.854c0.677,0,1.098-0.262,1.36-0.521v-0.912h-1.307v-0.334h1.702
		v2.084h-0.377V74.629z"/>
	<path fill="#FFFFFF" d="M49.498,73.33h-0.951v1.473h0.447v0.311h-1.255v-0.311h0.388v-3.725h-0.388v-0.307h1.682
		c0.938,0,1.448,0.563,1.448,1.297c0,0.586-0.326,1.039-0.948,1.189l0.962,1.543h0.402v0.311h-0.683L49.498,73.33z M49.364,72.996
		c0.74,0,1.071-0.361,1.071-0.938c0-0.578-0.338-0.953-1.071-0.953h-0.817v1.891H49.364z"/>
	<path fill="#FFFFFF" d="M55.692,75.111h-1.187v-0.311h0.415l-0.314-0.859h-1.944l-0.319,0.859h0.422v0.311H51.61v-0.311h0.331
		l1.36-3.725h-0.314V70.77h1.327v0.308h-0.318l1.358,3.726h0.338V75.111z M52.779,73.592h1.713l-0.854-2.418L52.779,73.592"/>
	<path fill="#FFFFFF" d="M60.888,75.111h-1.236v-0.311h0.438v-3.379l-1.535,2.371h-0.171l-1.537-2.396v3.404h0.445v0.311h-1.209
		v-0.311h0.389v-3.725h-0.403V70.77h0.828l1.582,2.469l1.587-2.469h0.836v0.308h-0.403v3.726h0.389V75.111z"/>
	<path fill="#FFFFFF" d="M65.359,75.111h-1.185v-0.311h0.415l-0.312-0.859h-1.945l-0.32,0.859h0.421v0.311H61.28v-0.311h0.332
		l1.356-3.725h-0.312V70.77h1.326v0.308h-0.319l1.357,3.726h0.338L65.359,75.111L65.359,75.111z M62.447,73.592h1.717l-0.854-2.418
		L62.447,73.592z"/>
	<path fill="#FFFFFF" d="M66.816,72.939c0-1.281,0.997-2.217,2.228-2.217c1.236,0,2.23,0.936,2.23,2.217s-0.995,2.219-2.23,2.219
		C67.813,75.158,66.816,74.221,66.816,72.939z M70.834,72.939c0-1.059-0.758-1.855-1.791-1.855c-1.034,0-1.793,0.799-1.793,1.855
		c0,1.059,0.759,1.854,1.793,1.854C70.076,74.795,70.834,73.998,70.834,72.939z"/>
	<path fill="#FFFFFF" d="M71.692,70.771h1.658c0.935,0,1.451,0.555,1.451,1.309c0,0.752-0.517,1.299-1.451,1.299H72.5v1.424h0.447
		v0.311h-1.255v-0.311h0.387v-3.725h-0.387V70.771z M73.31,73.047c0.707,0,1.059-0.383,1.059-0.967c0-0.594-0.358-0.975-1.059-0.975
		H72.5v1.939L73.31,73.047L73.31,73.047z"/>
	<path fill="#FFFFFF" d="M77.74,71.117h-1.862v1.643h1.741v0.334h-1.741v1.674h1.951v-0.604h0.338v0.947h-3.1v-0.311h0.39v-3.725
		h-0.39V70.77h3.01v0.942H77.74V71.117z"/>
	<path fill="#FFFFFF" d="M80.43,73.33h-0.951v1.473h0.447v0.311H78.67v-0.311h0.389v-3.725H78.67v-0.307h1.684
		c0.937,0,1.447,0.563,1.447,1.297c0,0.586-0.326,1.039-0.95,1.189l0.962,1.543h0.403v0.311h-0.683L80.43,73.33z M80.296,72.996
		c0.74,0,1.07-0.361,1.07-0.938c0-0.578-0.336-0.953-1.07-0.953h-0.817v1.891H80.296z"/>
	<path fill="#FFFFFF" d="M86.624,75.111h-1.185v-0.311h0.412l-0.312-0.859h-1.944l-0.319,0.859h0.42v0.311h-1.154v-0.311h0.332
		l1.357-3.725h-0.31V70.77h1.325v0.308h-0.319l1.358,3.726h0.338L86.624,75.111L86.624,75.111z M83.708,73.592h1.716l-0.854-2.418
		L83.708,73.592z"/>
	<path fill="#FFFFFF" d="M88.855,70.713c0.631,0,1.09,0.223,1.353,0.596v-0.535h0.344v1.209H90.24
		c-0.153-0.607-0.708-0.896-1.359-0.896c-1.034,0-1.764,0.799-1.764,1.855c0,1.078,0.758,1.854,1.778,1.854
		c0.629,0,1.141-0.271,1.48-0.73l0.318,0.229c-0.422,0.563-1.027,0.867-1.805,0.867c-1.244,0-2.211-0.928-2.211-2.219
		C86.683,71.648,87.644,70.713,88.855,70.713z"/>
	<path fill="#FFFFFF" d="M91.093,70.771h1.192v0.307h-0.388v3.725h0.388v0.311h-1.192v-0.311h0.389v-3.725h-0.389V70.771z"/>
	<path fill="#FFFFFF" d="M92.694,72.939c0-1.281,0.994-2.217,2.225-2.217c1.238,0,2.23,0.936,2.23,2.217s-0.993,2.219-2.23,2.219
		C93.688,75.158,92.694,74.221,92.694,72.939z M96.71,72.939c0-1.059-0.759-1.855-1.792-1.855s-1.793,0.799-1.793,1.855
		c0,1.059,0.76,1.854,1.793,1.854C95.951,74.795,96.71,73.998,96.71,72.939z"/>
	<path fill="#FFFFFF" d="M101.693,71.078h-0.389v4.033h-0.273l-2.691-3.738v3.43h0.428v0.311h-1.199v-0.311h0.387v-3.725h-0.387
		v-0.307h0.81l2.543,3.537v-3.23h-0.435v-0.307h1.207L101.693,71.078L101.693,71.078z"/>
	<path fill="#FFFFFF" d="M105.953,75.111h-1.185v-0.311h0.413l-0.31-0.859h-1.947l-0.319,0.859h0.421v0.311h-1.154v-0.311h0.333
		l1.358-3.725h-0.313V70.77h1.325v0.308h-0.317l1.357,3.726h0.338V75.111z M103.041,73.592h1.714l-0.853-2.418L103.041,73.592z"/>
	<path fill="#FFFFFF" d="M106.337,70.771h1.198v0.307h-0.388v3.688h1.708v-0.603h0.343v0.946h-2.861V74.8h0.389v-3.725h-0.389
		V70.771z"/>
	<path fill="#FFFFFF" d="M112.479,73.33h-0.95v1.473h0.447v0.311h-1.257v-0.311h0.39v-3.725h-0.39v-0.307h1.683
		c0.938,0,1.449,0.563,1.449,1.297c0,0.586-0.326,1.039-0.952,1.189l0.963,1.543h0.401v0.311h-0.682L112.479,73.33z M112.344,72.996
		c0.741,0,1.072-0.361,1.072-0.938c0-0.578-0.338-0.953-1.072-0.953h-0.815v1.891H112.344z"/>
	<path fill="#FFFFFF" d="M117.333,71.117h-1.862v1.643h1.739v0.334h-1.739v1.674h1.951v-0.604h0.338v0.947h-3.099v-0.311h0.389
		v-3.725h-0.389V70.77h3.008v0.942h-0.336V71.117z"/>
	<path fill="#FFFFFF" d="M121.837,74.629c-0.313,0.314-0.784,0.529-1.416,0.529c-1.198,0-2.192-0.854-2.192-2.219
		c0-1.281,0.986-2.217,2.178-2.217c0.601,0,1.059,0.191,1.314,0.547v-0.498h0.345v1.117h-0.327
		c-0.159-0.531-0.616-0.799-1.307-0.799c-1.032,0-1.772,0.791-1.772,1.85c0,1.084,0.772,1.854,1.801,1.854
		c0.674,0,1.094-0.262,1.355-0.521v-0.912h-1.307v-0.334h1.702v2.084h-0.375L121.837,74.629L121.837,74.629z"/>
	<path fill="#FFFFFF" d="M122.827,70.771h1.192v0.307h-0.388v3.725h0.388v0.311h-1.192v-0.311h0.389v-3.725h-0.389V70.771z"/>
	<path fill="#FFFFFF" d="M124.426,72.939c0-1.281,0.995-2.217,2.226-2.217c1.236,0,2.232,0.936,2.232,2.217
		s-0.996,2.219-2.232,2.219C125.421,75.158,124.426,74.221,124.426,72.939z M128.444,72.939c0-1.059-0.758-1.855-1.792-1.855
		c-1.032,0-1.792,0.799-1.792,1.855c0,1.059,0.759,1.854,1.792,1.854C127.686,74.795,128.444,73.998,128.444,72.939z"/>
	<path fill="#FFFFFF" d="M133.426,71.078h-0.39v4.033h-0.273l-2.691-3.738v3.43h0.427v0.311h-1.197v-0.311h0.388v-3.725h-0.388
		v-0.307h0.809l2.542,3.537v-3.23h-0.432v-0.307h1.206L133.426,71.078L133.426,71.078z"/>
	<path fill="#FFFFFF" d="M137.688,75.111h-1.186v-0.311h0.414l-0.314-0.859h-1.943l-0.319,0.859h0.419v0.311h-1.153v-0.311h0.332
		l1.357-3.725h-0.311V70.77h1.325v0.308h-0.318l1.357,3.726h0.339L137.688,75.111L137.688,75.111z M134.773,73.592h1.716
		l-0.854-2.418L134.773,73.592z"/>
	<path fill="#FFFFFF" d="M138.07,70.771h1.199v0.307h-0.39v3.688h1.708v-0.603h0.346v0.946h-2.864V74.8h0.389v-3.725h-0.389
		L138.07,70.771L138.07,70.771z"/>
	<path fill="#FFFFFF" d="M142.454,70.771h1.47c1.436,0,2.292,0.887,2.292,2.168c0,1.279-0.849,2.172-2.292,2.172h-1.47v-0.311h0.387
		v-3.725h-0.387V70.771z M143.885,74.766c1.283,0,1.894-0.763,1.894-1.826s-0.611-1.821-1.894-1.821h-0.622v3.647H143.885z"/>
	<path fill="#FFFFFF" d="M146.72,72.939c0-1.281,0.996-2.217,2.226-2.217c1.236,0,2.231,0.936,2.231,2.217s-0.995,2.219-2.231,2.219
		C147.716,75.158,146.72,74.221,146.72,72.939z M150.736,72.939c0-1.059-0.758-1.855-1.791-1.855c-1.034,0-1.792,0.799-1.792,1.855
		c0,1.059,0.758,1.854,1.792,1.854C149.979,74.795,150.736,73.998,150.736,72.939z"/>
	<path fill="#FFFFFF" d="M156.898,71.078h-0.388v4.033h-0.275l-2.691-3.738v3.43h0.429v0.311h-1.199v-0.311h0.389v-3.725h-0.389
		v-0.307h0.809l2.545,3.537v-3.23h-0.436v-0.307h1.206V71.078z"/>
	<path fill="#FFFFFF" d="M157.283,72.939c0-1.281,0.994-2.217,2.228-2.217c1.235,0,2.23,0.936,2.23,2.217s-0.995,2.219-2.23,2.219
		C158.277,75.158,157.283,74.221,157.283,72.939z M161.302,72.939c0-1.059-0.759-1.855-1.792-1.855
		c-1.034,0-1.794,0.799-1.794,1.855c0,1.059,0.76,1.854,1.794,1.854C160.543,74.795,161.302,73.998,161.302,72.939z"/>
	<path fill="#FFFFFF" d="M163.917,73.33h-0.949v1.473h0.445v0.311h-1.255v-0.311h0.388v-3.725h-0.388v-0.307h1.683
		c0.936,0,1.448,0.563,1.448,1.297c0,0.586-0.327,1.039-0.951,1.189l0.963,1.543h0.402v0.311h-0.682L163.917,73.33z M163.785,72.996
		c0.738,0,1.07-0.361,1.07-0.938c0-0.578-0.337-0.953-1.07-0.953h-0.816v1.891H163.785z"/>
	<path fill="#FFFFFF" d="M168.789,71.117h-1.083v3.686h0.418v0.311h-1.254v-0.311h0.419v-3.686h-1.083v0.598h-0.344v-0.941h3.263
		v0.941h-0.337L168.789,71.117L168.789,71.117z"/>
	<path fill="#FFFFFF" d="M172.23,71.117h-1.861v1.643h1.742v0.334h-1.742v1.674h1.949v-0.604h0.34v0.947h-3.099v-0.311h0.388v-3.725
		h-0.388V70.77h3.009v0.942h-0.339L172.23,71.117L172.23,71.117z"/>
</g>
<g>
	<g>
		<path fill="#FFFFFF" d="M387.211,72.744l9.771-8.295c0.975-0.811,1.797-1.545,2.472-2.205c0.678-0.664,1.223-1.289,1.642-1.883
			c0.42-0.594,0.723-1.176,0.911-1.74c0.191-0.564,0.285-1.174,0.285-1.822c0-1.4-0.438-2.486-1.317-3.256
			c-0.877-0.771-1.966-1.152-3.263-1.152c-1.296,0-2.44,0.35-3.426,1.053c-0.986,0.703-2.032,1.77-3.142,3.203l-3.527-2.756
			c0.675-0.947,1.363-1.797,2.068-2.547c0.701-0.75,1.465-1.377,2.289-1.879c0.823-0.506,1.73-0.896,2.719-1.168
			c0.982-0.271,2.113-0.408,3.383-0.408c1.378,0,2.642,0.199,3.792,0.607c1.147,0.404,2.134,0.979,2.958,1.723
			s1.467,1.639,1.927,2.678c0.458,1.041,0.688,2.195,0.688,3.467v0.08c0,1.107-0.149,2.115-0.446,3.021
			c-0.298,0.906-0.75,1.777-1.356,2.613c-0.609,0.842-1.38,1.685-2.313,2.532c-0.932,0.853-2.021,1.793-3.266,2.82l-5.836,4.864
			h13.5v4.375H387.21L387.211,72.744L387.211,72.744z"/>
		<path fill="#FFFFFF" d="M424.833,76.67c-2.189,0-4.19-0.383-6-1.152c-1.812-0.771-3.365-1.816-4.664-3.145
			c-1.296-1.322-2.31-2.869-3.04-4.641c-0.729-1.771-1.094-3.656-1.094-5.656v-0.08c0-2,0.365-3.887,1.094-5.656
			c0.73-1.77,1.758-3.322,3.081-4.662c1.325-1.338,2.892-2.396,4.705-3.182c1.81-0.783,3.809-1.176,5.999-1.176
			c2.191,0,4.187,0.385,6,1.156c1.813,0.77,3.365,1.814,4.662,3.141c1.299,1.324,2.311,2.871,3.043,4.641
			c0.729,1.771,1.094,3.656,1.094,5.658v0.08c0,2-0.365,3.885-1.094,5.654c-0.732,1.771-1.758,3.326-3.082,4.662
			c-1.324,1.34-2.896,2.398-4.703,3.182C429.023,76.279,427.023,76.67,424.833,76.67 M424.915,72.092c1.4,0,2.684-0.264,3.856-0.793
			c1.168-0.525,2.172-1.24,3.006-2.146c0.834-0.905,1.485-1.967,1.957-3.184c0.473-1.216,0.707-2.513,0.707-3.894v-0.08
			c0-1.38-0.234-2.683-0.707-3.912c-0.472-1.229-1.129-2.299-1.979-3.203c-0.848-0.905-1.863-1.629-3.045-2.168
			c-1.186-0.541-2.477-0.812-3.876-0.812c-1.4,0-2.684,0.263-3.855,0.787c-1.17,0.528-2.172,1.244-3.006,2.149
			c-0.834,0.903-1.488,1.968-1.959,3.185c-0.47,1.215-0.707,2.515-0.707,3.894v0.08c0,1.377,0.237,2.683,0.707,3.909
			c0.471,1.234,1.131,2.3,1.978,3.205c0.85,0.904,1.864,1.629,3.051,2.168C422.222,71.818,423.513,72.092,424.915,72.092"/>
		<path fill="#FFFFFF" d="M441.656,72.744l9.771-8.295c0.974-0.811,1.793-1.545,2.474-2.205c0.678-0.664,1.225-1.289,1.643-1.883
			s0.723-1.176,0.912-1.74c0.188-0.564,0.283-1.174,0.283-1.822c0-1.4-0.439-2.486-1.318-3.256
			c-0.879-0.771-1.965-1.152-3.262-1.152c-1.299,0-2.441,0.35-3.426,1.053c-0.986,0.703-2.035,1.77-3.144,3.203l-3.529-2.756
			c0.681-0.947,1.363-1.797,2.068-2.547c0.703-0.75,1.467-1.377,2.291-1.879c0.824-0.506,1.73-0.896,2.717-1.168
			c0.984-0.271,2.113-0.408,3.383-0.408c1.382,0,2.646,0.199,3.791,0.607c1.148,0.404,2.14,0.979,2.959,1.723
			c0.826,0.744,1.468,1.639,1.929,2.678c0.461,1.041,0.688,2.195,0.688,3.467v0.08c0,1.107-0.146,2.115-0.444,3.021
			c-0.302,0.906-0.755,1.777-1.359,2.613c-0.605,0.842-1.377,1.685-2.309,2.532c-0.938,0.853-2.021,1.793-3.267,2.82l-5.84,4.864
			h13.5v4.375h-20.514v-3.925H441.656L441.656,72.744z"/>
		<path fill="#FFFFFF" d="M479.279,76.67c-2.189,0-4.189-0.383-6-1.152c-1.813-0.771-3.365-1.816-4.662-3.145
			c-1.299-1.322-2.313-2.869-3.039-4.641c-0.73-1.771-1.098-3.656-1.098-5.656v-0.08c0-2,0.364-3.887,1.098-5.656
			c0.729-1.77,1.756-3.322,3.08-4.662c1.319-1.338,2.893-2.396,4.699-3.182c1.813-0.783,3.813-1.176,6.004-1.176
			c2.186,0,4.186,0.385,5.998,1.156c1.811,0.77,3.36,1.814,4.664,3.141c1.295,1.324,2.309,2.871,3.036,4.641
			c0.73,1.771,1.097,3.656,1.097,5.658v0.08c0,2-0.365,3.885-1.097,5.654c-0.729,1.771-1.756,3.326-3.077,4.662
			c-1.326,1.34-2.894,2.398-4.705,3.182C483.468,76.279,481.468,76.67,479.279,76.67 M479.361,72.092
			c1.395,0,2.682-0.264,3.852-0.793c1.174-0.525,2.174-1.24,3.01-2.146c0.834-0.905,1.484-1.967,1.957-3.184
			c0.472-1.216,0.707-2.513,0.707-3.894v-0.08c0-1.38-0.235-2.683-0.707-3.912c-0.473-1.229-1.129-2.299-1.977-3.203
			c-0.853-0.905-1.863-1.629-3.049-2.168c-1.187-0.541-2.479-0.812-3.875-0.812c-1.402,0-2.689,0.263-3.855,0.787
			c-1.172,0.528-2.176,1.244-3.012,2.149c-0.832,0.903-1.484,1.968-1.957,3.185c-0.471,1.215-0.705,2.515-0.705,3.894v0.08
			c0,1.377,0.234,2.683,0.705,3.909c0.473,1.234,1.131,2.3,1.977,3.205c0.853,0.904,1.865,1.629,3.052,2.168
			C476.669,71.818,477.957,72.092,479.361,72.092"/>
		<path fill="#FFFFFF" d="M390.281,38.609c-0.145,0-0.321,0-0.51-0.021v1.711c0.355,0.021,0.721,0.08,1.028,0.143v0.953h-3.589
			v-0.955c0.307-0.062,0.673-0.119,1.027-0.142v-5.771c-0.354-0.022-0.721-0.082-1.027-0.144V33.43h0.926
			c0.373,0,1.413-0.048,2.239-0.048c1.944,0,3.017,0.91,3.017,2.468C393.393,37.395,392.217,38.609,390.281,38.609 M390.305,34.639
			c-0.188,0-0.354,0-0.533,0.006V37.3c0.155,0.021,0.307,0.037,0.446,0.037c0.935-0.017,1.585-0.53,1.585-1.392
			C391.803,35.143,391.354,34.639,390.305,34.639 M397.699,41.521c-2.432,0-3.62-1.543-3.62-4.008c0-2.633,1.755-4.215,3.892-4.215
			c2.121,0,3.623,1.275,3.623,4C401.594,39.93,399.857,41.521,397.699,41.521 M397.829,34.686c-1.097,0-2.11,0.873-2.11,2.662
			c0,1.687,0.662,2.782,2.09,2.782c1.037,0,2.144-0.801,2.144-2.711C399.951,35.65,399.2,34.686,397.829,34.686 M406.85,41.393
			l-1.949-3.285h-0.209v2.19c0.226,0.021,0.481,0.06,0.721,0.13v0.965h-3.28v-0.953c0.308-0.062,0.673-0.119,1.026-0.142v-5.771
			c-0.354-0.022-0.719-0.082-1.026-0.144V33.43h0.921c0.307,0,1.412-0.048,2.391-0.048c1.76,0,2.893,0.611,2.893,2.24
			c0,1.11-0.757,1.926-1.876,2.162c0.146,0.187,0.281,0.387,0.403,0.575l1.227,1.922c0.223,0.035,0.504,0.082,0.778,0.132v0.978
			L406.85,41.393L406.85,41.393z M405.277,34.639c-0.209,0-0.432,0.006-0.588,0.028v2.306c0.107,0.01,0.309,0.021,0.543,0.021
			c0.933,0,1.486-0.469,1.486-1.215C406.719,35.014,406.258,34.639,405.277,34.639 M414.311,35.674
			c-0.055-0.361-0.117-0.682-0.138-0.979h-1.229v5.604c0.354,0.021,0.718,0.08,1.029,0.143v0.953h-3.588v-0.955
			c0.309-0.062,0.674-0.119,1.027-0.142v-5.604h-1.215c-0.022,0.3-0.083,0.617-0.139,0.979h-1.136v-2.241h6.521v2.241
			L414.311,35.674L414.311,35.674z M423.188,34.529v3.811c0,2.109-1.169,3.184-3.291,3.184c-2.515,0-3.076-1.367-3.076-2.885v-4.109
			c-0.26-0.022-0.521-0.067-0.745-0.129v-0.969h3.124V34.4c-0.27,0.068-0.576,0.104-0.85,0.129v4.012
			c0,1.004,0.321,1.711,1.644,1.711c1.177,0,1.684-0.496,1.684-1.854v-3.869c-0.284-0.023-0.588-0.059-0.847-0.129v-0.969h3.088
			V34.4C423.693,34.461,423.447,34.506,423.188,34.529 M431.099,38.316v2.705c-0.791,0.313-1.778,0.488-2.746,0.488
			c-2.512,0-4.001-1.486-4.001-3.91c0-2.537,1.7-4.285,4.412-4.285c0.746,0,1.486,0.104,2.224,0.297v2.135H429.8
			c-0.065-0.342-0.104-0.646-0.141-0.957c-0.316-0.086-0.66-0.121-0.979-0.121c-1.545,0-2.664,0.982-2.664,2.785
			c0,1.689,0.92,2.678,2.537,2.678c0.375,0,0.705-0.045,1.008-0.143v-1.66c-0.348-0.025-0.717-0.082-1.008-0.154v-0.955h3.209v0.979
			C431.546,38.246,431.322,38.281,431.099,38.316 M436.636,41.393v-0.953c0.25-0.047,0.568-0.106,0.836-0.127l-0.34-0.944h-2.899
			l-0.332,0.944c0.272,0.021,0.594,0.08,0.84,0.127v0.953h-2.994v-0.953c0.188-0.062,0.422-0.106,0.623-0.119l2.428-6.889h1.877
			l2.479,6.889c0.198,0.013,0.438,0.06,0.625,0.119v0.953H436.636z M436.046,36.217c-0.147-0.438-0.266-0.813-0.363-1.25h-0.012
			c-0.098,0.396-0.213,0.863-0.377,1.307l-0.686,1.9h2.146L436.046,36.217z M440.134,41.393v-0.953
			c0.31-0.062,0.676-0.119,1.029-0.142v-5.771c-0.355-0.022-0.721-0.082-1.029-0.144V33.43h3.588v0.954
			c-0.307,0.062-0.672,0.119-1.026,0.144v5.603h1.522c0.023-0.284,0.082-0.625,0.144-0.978h1.129v2.238L440.134,41.393
			L440.134,41.393z"/>
		<path fill="#FFFFFF" d="M363.336,33.639c-7.022,2.776-11.388,10.103-11.388,21.383v17.123c0,0,1.437-11.008,11.388-14.179V33.639z
			"/>
		<path fill="#FFFFFF" d="M366.732,59.66c-4.079,0.813-10.054,4.084-11.813,8.688c8.757-10.634,26.633-0.354,27.427-20.354
			c0.25-6.332,0.275-14.13,0.275-14.13c-9.333,0.525-15.889,3.013-15.889,3.013V59.66z"/>
		<path fill="#FFFFFF" d="M365.596,65.434c0,0-9.504,0.771-10.312,6.196c-0.638,4.242,10.312,4.354,10.312,4.354V65.434z"/>
	</g>
</g>
<path fill="#FFFFFF" d="M568.938,32.395v45.185h69.004V32.395H568.938z M616.355,47.324l0.479-1.477l0.482,1.477h1.555l-1.256,0.914
	l0.477,1.486l-1.258-0.918l-1.258,0.918l0.479-1.486l-1.258-0.914H616.355z M586.05,54.6h1.558l0.481-1.486l0.482,1.486h1.555
	l-1.26,0.905l0.479,1.483l-1.258-0.916l-1.26,0.916l0.481-1.483L586.05,54.6z M591.298,65.238l-1.258-0.914l-1.26,0.914l0.479-1.479
	l-1.254-0.916h1.557l0.479-1.477l0.482,1.477h1.555l-1.258,0.916L591.298,65.238z M590.82,48.238l0.479,1.486l-1.258-0.918
	l-1.26,0.918l0.479-1.486l-1.254-0.914h1.557l0.479-1.477l0.482,1.477h1.555L590.82,48.238z M595.05,41.619l0.482-1.479l0.479,1.479
	h1.554l-1.255,0.912l0.482,1.477l-1.26-0.918l-1.259,0.918l0.479-1.477l-1.258-0.912H595.05z M597.214,70.797l-1.256-0.914
	l-1.258,0.914l0.479-1.482l-1.26-0.906h1.562l0.479-1.477l0.479,1.477h1.56l-1.258,0.906L597.214,70.797z M604.787,72.455
	l-1.26-0.906l-1.261,0.906l0.482-1.477l-1.264-0.916h1.561l0.479-1.477l0.479,1.477h1.553l-1.254,0.916L604.787,72.455z
	 M604.304,40.313l0.482,1.479l-1.26-0.918l-1.261,0.918l0.482-1.479l-1.264-0.924h1.561l0.479-1.478l0.479,1.478h1.553
	L604.304,40.313z M612.169,70.797l-1.256-0.914l-1.26,0.914l0.485-1.482l-1.262-0.906h1.553l0.48-1.477l0.479,1.477h1.558
	l-1.261,0.906L612.169,70.797z M612.121,42.531l0.479,1.477l-1.258-0.918l-1.262,0.918l0.479-1.477l-1.252-0.912h1.55l0.485-1.479
	l0.48,1.479h1.555L612.121,42.531z M618.091,65.238l-1.258-0.914l-1.258,0.914l0.479-1.479l-1.258-0.916h1.562l0.479-1.477
	l0.482,1.477h1.553l-1.256,0.916L618.091,65.238z M620.042,56.99l-1.258-0.916l-1.258,0.916l0.479-1.484l-1.26-0.904h1.553
	l0.482-1.486l0.479,1.486h1.558l-1.261,0.904L620.042,56.99z"/>
<path fill="#FFFFFF" d="M64.338,45.206c0,9.915,8.471,14.524,15.012,9.554c1.784-1.082,2.826-3.169,2.826-5.375v-0.087
	c0-0.153-0.007-0.315-0.023-0.47c0.841,1.318,1.305,2.939,1.305,4.693c0,7.021-7.622,10.756-15.121,8.095
	c-4.277-2.511-7.042-7.013-7.042-12.231v-0.087c0-4.101,1.722-7.774,4.541-10.399C64.863,40.835,64.338,43.012,64.338,45.206
	 M107.342,42.834c2.14,0,3.521,1.061,3.521,2.881c2.17-0.672,2.912-2.085,2.912-3.637c0-4.311-4.796-6.635-10.093-6.635h-9.63v7.391
	H107.342z M91.504,49.298c0,7.896-6.378,14.22-14.703,14.435c5.629-0.178,9.159-4.941,9.159-10.209v-0.131
	c0-5.432-3.722-10.324-9.607-10.342c-3.529,0.018-5.729,2.936-5.729,6.172v0.075c0,3.261,2.216,6.21,5.729,6.255
	c-5.83-0.061-9.514-4.939-9.514-10.347v-0.132c0-5.366,3.661-10.209,9.491-10.209h0.1c8.548,0,15.074,6.324,15.074,14.354V49.298
	L91.504,49.298z M40.236,35.443h-9.174l18.51,27.699h9.175L40.236,35.443z M49.572,35.443h9.175V57.77L49.572,44.24V35.443z
	 M31.063,41.111v22.031h9.174v-8.494L31.063,41.111z M116.053,55.822l5.012,7.32h-10.557l-3.622-5.48
	c3.058-0.155,6.302-0.557,8.75-1.653C115.783,55.956,115.914,55.885,116.053,55.822 M114.617,53.729
	c3.251-1.441,5.459-4.433,5.459-8.463v-0.084c0-2.843-0.865-4.904-2.525-6.558c-1.753-1.761-4.479-2.935-8.61-3.136
	c-0.394-0.03-0.803-0.047-1.229-0.047h-0.13c0.471,0,0.918,0.023,1.359,0.047c4.494,0.316,7.336,2.426,7.336,6.402v0.186
	c0,4.139-3.267,6.557-8.657,6.557h-2.331v6.602C105.289,55.234,111.374,55.175,114.617,53.729 M121.258,35.443h25.576v7.283h-25.576
	V35.443z M148.965,42.727h23.569v-7.272h-23.569V42.727z M148.965,55.908h23.569v7.273h-23.569V55.908z M94.053,63.145h9.182V45.678
	h-9.182V63.145z M138.687,63.145h-9.181V45.678h9.181V63.145z M148.965,52.941h18.387v-7.267h-18.387V52.941z"/>
<g>
	<path fill="#FFFFFF" d="M651.764,34.433h0.966v4.218c0,0.733-0.083,1.314-0.252,1.745c-0.16,0.433-0.462,0.786-0.893,1.05
		c-0.438,0.271-1.007,0.411-1.706,0.411c-0.685,0-1.243-0.12-1.679-0.354c-0.438-0.233-0.74-0.581-0.93-1.023
		c-0.19-0.441-0.278-1.059-0.278-1.829v-4.218h0.966v4.214c0,0.628,0.061,1.101,0.174,1.396c0.12,0.307,0.322,0.535,0.608,0.696
		c0.286,0.164,0.639,0.244,1.054,0.244c0.713,0,1.217-0.161,1.517-0.483c0.306-0.322,0.453-0.935,0.453-1.854V34.433z"/>
	<polygon fill="#FFFFFF" points="654.325,41.732 654.325,34.433 655.314,34.433 659.153,40.163 659.153,34.433 660.075,34.433 
		660.075,41.732 659.086,41.732 655.252,35.996 655.252,41.732 	"/>
	<rect x="661.862" y="34.433" fill="#FFFFFF" width="0.972" height="7.3"/>
	<path fill="#FFFFFF" d="M663.731,41.732l2.802-7.3h1.044l2.981,7.3h-1.096l-0.855-2.209h-3.051l-0.798,2.209H663.731z
		 M665.48,33.986c-0.002-0.344,0.096-0.619,0.289-0.826c0.187-0.202,0.431-0.313,0.727-0.313c0.203,0,0.48,0.089,0.841,0.275
		c0.193,0.1,0.349,0.142,0.464,0.142c0.108,0,0.189-0.021,0.244-0.084c0.055-0.058,0.098-0.171,0.121-0.349h0.644
		c-0.009,0.38-0.105,0.666-0.282,0.853c-0.183,0.187-0.411,0.286-0.691,0.286c-0.208,0-0.483-0.093-0.825-0.275
		c-0.225-0.124-0.391-0.182-0.488-0.182c-0.109,0-0.206,0.042-0.275,0.119c-0.067,0.083-0.109,0.198-0.104,0.354H665.48z
		 M665.833,38.729h2.477l-0.764-2.016c-0.229-0.613-0.4-1.117-0.52-1.517c-0.091,0.473-0.218,0.931-0.389,1.398L665.833,38.729z"/>
	<path fill="#FFFFFF" d="M671.034,38.174c0-1.206,0.33-2.162,0.979-2.842c0.65-0.687,1.491-1.028,2.52-1.028
		c0.67,0,1.281,0.16,1.821,0.482c0.538,0.328,0.953,0.77,1.239,1.352c0.277,0.575,0.424,1.226,0.424,1.953
		c0,0.742-0.148,1.401-0.447,1.989c-0.298,0.587-0.725,1.023-1.273,1.323c-0.544,0.298-1.132,0.453-1.773,0.453
		c-0.681,0-1.299-0.166-1.837-0.499c-0.542-0.332-0.95-0.787-1.231-1.361C671.174,39.426,671.034,38.817,671.034,38.174
		 M672.034,38.193c0,0.884,0.233,1.569,0.706,2.073c0.477,0.509,1.07,0.759,1.779,0.759c0.725,0,1.327-0.255,1.795-0.764
		c0.473-0.51,0.705-1.236,0.705-2.171c0-0.593-0.097-1.118-0.299-1.554c-0.204-0.446-0.496-0.79-0.882-1.034
		c-0.385-0.249-0.823-0.369-1.304-0.369c-0.683,0-1.271,0.24-1.761,0.706C672.28,36.304,672.034,37.093,672.034,38.193"/>
	<polygon fill="#FFFFFF" points="682.111,41.732 682.111,34.433 687.386,34.433 687.386,35.296 683.079,35.296 683.079,37.529 
		687.115,37.529 687.115,38.387 683.079,38.387 683.079,40.869 687.557,40.869 687.557,41.732 	"/>
	<path fill="#FFFFFF" d="M693.682,34.433h0.966v4.218c0,0.733-0.082,1.314-0.249,1.745c-0.166,0.433-0.465,0.786-0.898,1.05
		c-0.432,0.271-1.004,0.411-1.707,0.411c-0.684,0-1.244-0.12-1.677-0.354c-0.435-0.233-0.748-0.581-0.936-1.023
		c-0.181-0.441-0.274-1.059-0.274-1.829v-4.218h0.966v4.214c0,0.628,0.062,1.101,0.178,1.396c0.115,0.307,0.319,0.535,0.608,0.696
		c0.286,0.164,0.639,0.244,1.055,0.244c0.706,0,1.21-0.161,1.516-0.483c0.299-0.322,0.453-0.935,0.453-1.854V34.433z"/>
	<path fill="#FFFFFF" d="M696.264,41.732v-7.3h3.236c0.648,0,1.145,0.063,1.485,0.197c0.338,0.136,0.609,0.364,0.813,0.691
		c0.199,0.337,0.304,0.701,0.304,1.101c0,0.52-0.17,0.957-0.504,1.314c-0.333,0.354-0.848,0.577-1.554,0.677
		c0.258,0.118,0.452,0.237,0.584,0.362c0.283,0.26,0.548,0.577,0.798,0.972l1.272,1.985h-1.216l-0.966-1.517
		c-0.28-0.442-0.514-0.774-0.698-1.008c-0.18-0.229-0.341-0.401-0.485-0.484c-0.146-0.098-0.291-0.161-0.442-0.197
		c-0.108-0.026-0.289-0.036-0.535-0.036h-1.122v3.242H696.264z M697.234,37.654h2.076c0.438,0,0.78-0.047,1.031-0.136
		c0.252-0.094,0.441-0.239,0.57-0.436c0.128-0.204,0.193-0.422,0.193-0.661c0-0.337-0.126-0.628-0.375-0.851
		c-0.249-0.22-0.644-0.333-1.19-0.333h-2.306V37.654z"/>
	<path fill="#FFFFFF" d="M703.323,38.174c0-1.206,0.325-2.162,0.977-2.842c0.648-0.687,1.485-1.028,2.517-1.028
		c0.674,0,1.28,0.16,1.821,0.482c0.54,0.328,0.95,0.77,1.236,1.352c0.285,0.575,0.431,1.226,0.431,1.953
		c0,0.742-0.155,1.401-0.452,1.989c-0.296,0.587-0.722,1.023-1.272,1.323c-0.548,0.298-1.132,0.453-1.771,0.453
		c-0.686,0-1.299-0.166-1.838-0.499c-0.543-0.332-0.952-0.787-1.232-1.361C703.458,39.426,703.323,38.817,703.323,38.174
		 M704.315,38.193c0,0.884,0.238,1.569,0.711,2.073c0.473,0.509,1.065,0.759,1.777,0.759c0.727,0,1.324-0.255,1.797-0.764
		c0.468-0.51,0.701-1.236,0.701-2.171c0-0.593-0.098-1.118-0.299-1.554c-0.202-0.446-0.491-0.79-0.88-1.034
		c-0.389-0.249-0.821-0.369-1.302-0.369c-0.688,0-1.275,0.24-1.766,0.706C704.564,36.304,704.315,37.093,704.315,38.193"/>
	<path fill="#FFFFFF" d="M711.542,41.732v-7.3h2.753c0.488,0,0.856,0.021,1.111,0.073c0.361,0.058,0.656,0.171,0.899,0.338
		c0.246,0.171,0.44,0.407,0.586,0.706c0.151,0.302,0.225,0.628,0.225,0.992c0,0.623-0.201,1.147-0.598,1.58
		c-0.391,0.425-1.104,0.644-2.139,0.644h-1.869v2.967H711.542z M712.511,37.898h1.888c0.621,0,1.07-0.109,1.327-0.344
		c0.263-0.233,0.395-0.561,0.395-0.974c0-0.31-0.08-0.574-0.233-0.792c-0.15-0.218-0.355-0.359-0.61-0.431
		c-0.161-0.042-0.459-0.063-0.901-0.063h-1.864V37.898z"/>
	<polygon fill="#FFFFFF" points="718.365,41.732 718.365,34.433 723.641,34.433 723.641,35.296 719.331,35.296 719.331,37.529 
		723.365,37.529 723.365,38.387 719.331,38.387 719.331,40.869 723.809,40.869 723.809,41.732 	"/>
	<rect x="725.305" y="34.433" fill="#FFFFFF" width="0.965" height="7.3"/>
	<path fill="#FFFFFF" d="M727.173,41.732l2.803-7.3h1.042l2.986,7.3h-1.104l-0.85-2.209h-3.048l-0.803,2.209H727.173z
		 M729.277,38.729h2.472l-0.758-2.016c-0.233-0.613-0.406-1.117-0.52-1.517c-0.092,0.473-0.224,0.931-0.391,1.398L729.277,38.729z"
		/>
	<polygon fill="#FFFFFF" points="647.026,64.1 647.026,56.796 651.95,56.796 651.95,57.663 647.992,57.663 647.992,59.917 
		651.421,59.917 651.421,60.78 647.992,60.78 647.992,64.1 	"/>
	<path fill="#FFFFFF" d="M656.554,64.1V63.32c-0.41,0.593-0.972,0.898-1.678,0.898c-0.317,0-0.605-0.062-0.873-0.182
		c-0.273-0.124-0.473-0.271-0.604-0.451c-0.135-0.182-0.224-0.401-0.275-0.665c-0.035-0.178-0.058-0.453-0.058-0.842v-3.268h0.897
		v2.93c0,0.467,0.018,0.784,0.06,0.946c0.052,0.237,0.166,0.42,0.354,0.555c0.182,0.131,0.41,0.197,0.681,0.197
		c0.268,0,0.521-0.066,0.756-0.202c0.23-0.14,0.401-0.328,0.498-0.565c0.1-0.235,0.146-0.577,0.146-1.03v-2.83h0.899V64.1H656.554z"
		/>
	<path fill="#FFFFFF" d="M658.756,64.1v-5.288h0.808v0.753c0.392-0.582,0.949-0.873,1.682-0.873c0.321,0,0.614,0.058,0.88,0.171
		c0.268,0.115,0.47,0.267,0.595,0.453c0.138,0.187,0.231,0.405,0.286,0.654c0.03,0.167,0.046,0.458,0.046,0.878V64.1h-0.894v-3.222
		c0-0.362-0.036-0.633-0.109-0.814c-0.066-0.187-0.189-0.327-0.364-0.431c-0.187-0.109-0.389-0.167-0.628-0.167
		c-0.384,0-0.709,0.12-0.986,0.364c-0.278,0.238-0.415,0.695-0.415,1.381V64.1H658.756z"/>
	<path fill="#FFFFFF" d="M667.856,64.1v-0.671c-0.334,0.526-0.83,0.79-1.479,0.79c-0.422,0-0.806-0.119-1.159-0.353
		c-0.359-0.233-0.628-0.557-0.824-0.973c-0.194-0.418-0.288-0.898-0.288-1.434c0-0.528,0.086-1.013,0.263-1.438
		c0.173-0.431,0.435-0.758,0.789-0.992c0.353-0.223,0.748-0.338,1.179-0.338c0.32,0,0.601,0.068,0.851,0.193
		c0.249,0.14,0.454,0.316,0.61,0.534v-2.623h0.891V64.1H667.856z M665.022,61.46c0,0.677,0.142,1.181,0.43,1.518
		c0.286,0.332,0.624,0.505,1.011,0.505c0.393,0,0.725-0.162,0.994-0.484c0.281-0.317,0.415-0.811,0.415-1.465
		c0-0.727-0.14-1.252-0.415-1.595c-0.285-0.337-0.625-0.51-1.033-0.51c-0.401,0-0.732,0.162-0.998,0.488
		C665.158,60.245,665.022,60.76,665.022,61.46"/>
	<path fill="#FFFFFF" d="M669.764,61.45c0-0.977,0.275-1.698,0.813-2.171c0.454-0.395,1.011-0.588,1.664-0.588
		c0.725,0,1.32,0.235,1.779,0.713c0.468,0.473,0.693,1.132,0.693,1.969c0,0.686-0.098,1.221-0.3,1.609
		c-0.209,0.391-0.504,0.69-0.899,0.91c-0.39,0.213-0.81,0.326-1.273,0.326c-0.737,0-1.335-0.244-1.792-0.717
		S669.764,62.344,669.764,61.45 M670.683,61.45c0,0.676,0.146,1.19,0.445,1.527c0.294,0.332,0.665,0.505,1.113,0.505
		c0.444,0,0.813-0.178,1.112-0.516c0.297-0.337,0.441-0.852,0.441-1.543c0-0.659-0.145-1.143-0.441-1.485
		c-0.299-0.337-0.671-0.51-1.112-0.51c-0.448,0-0.819,0.173-1.113,0.504C670.829,60.266,670.683,60.775,670.683,61.45"/>
	<path fill="#FFFFFF" d="M675.404,62.515l0.89-0.14c0.052,0.353,0.188,0.628,0.416,0.82c0.229,0.188,0.546,0.287,0.953,0.287
		c0.412,0,0.717-0.089,0.916-0.256c0.197-0.166,0.297-0.368,0.297-0.586c0-0.204-0.085-0.37-0.266-0.483
		c-0.117-0.078-0.426-0.183-0.915-0.302c-0.656-0.167-1.11-0.307-1.365-0.427c-0.255-0.124-0.441-0.291-0.577-0.509
		c-0.132-0.216-0.197-0.446-0.197-0.712c0-0.233,0.058-0.451,0.162-0.653c0.111-0.193,0.256-0.364,0.441-0.499
		c0.137-0.104,0.33-0.193,0.566-0.26c0.247-0.067,0.504-0.104,0.779-0.104c0.415,0,0.775,0.058,1.09,0.171
		c0.314,0.12,0.549,0.29,0.693,0.495c0.154,0.197,0.252,0.473,0.31,0.814l-0.872,0.12c-0.047-0.271-0.155-0.483-0.349-0.64
		c-0.192-0.15-0.457-0.229-0.808-0.229c-0.413,0-0.709,0.068-0.886,0.209c-0.172,0.135-0.26,0.29-0.26,0.473
		c0,0.119,0.037,0.223,0.104,0.315c0.078,0.095,0.193,0.178,0.349,0.239c0.09,0.031,0.356,0.104,0.789,0.229
		c0.634,0.171,1.08,0.306,1.325,0.415c0.255,0.104,0.452,0.266,0.592,0.468c0.141,0.207,0.214,0.462,0.214,0.769
		c0,0.302-0.084,0.582-0.26,0.848c-0.175,0.26-0.427,0.467-0.753,0.612c-0.328,0.141-0.702,0.218-1.118,0.218
		c-0.685,0-1.204-0.146-1.568-0.431C675.737,63.502,675.504,63.076,675.404,62.515"/>
	<polygon fill="#FFFFFF" points="683.832,64.1 683.832,56.796 689.107,56.796 689.107,57.663 684.798,57.663 684.798,59.893 
		688.832,59.893 688.832,60.744 684.798,60.744 684.798,63.231 689.275,63.231 689.275,64.1 	"/>
	<path fill="#FFFFFF" d="M693.957,64.1V63.32c-0.411,0.593-0.968,0.898-1.674,0.898c-0.314,0-0.608-0.062-0.872-0.182
		c-0.272-0.124-0.474-0.271-0.608-0.451c-0.126-0.182-0.218-0.401-0.272-0.665c-0.039-0.178-0.058-0.453-0.058-0.842v-3.268h0.902
		v2.93c0,0.467,0.01,0.784,0.047,0.946c0.058,0.237,0.176,0.42,0.365,0.555c0.179,0.131,0.403,0.197,0.674,0.197
		s0.52-0.066,0.753-0.202c0.239-0.14,0.405-0.328,0.504-0.565c0.099-0.235,0.146-0.577,0.146-1.03v-2.83h0.897V64.1H693.957z"/>
	<path fill="#FFFFFF" d="M696.154,64.1v-5.288h0.803v0.799c0.21-0.373,0.396-0.628,0.574-0.748c0.174-0.113,0.368-0.171,0.57-0.171
		c0.307,0,0.608,0.1,0.923,0.286l-0.31,0.831c-0.218-0.13-0.438-0.191-0.655-0.191c-0.191,0-0.37,0.056-0.528,0.176
		c-0.156,0.115-0.267,0.281-0.333,0.488c-0.1,0.317-0.146,0.665-0.146,1.05V64.1H696.154z"/>
	<path fill="#FFFFFF" d="M699.225,61.45c0-0.977,0.272-1.698,0.82-2.171c0.452-0.395,1.006-0.588,1.657-0.588
		c0.727,0,1.324,0.235,1.781,0.713c0.464,0.473,0.696,1.132,0.696,1.969c0,0.686-0.101,1.221-0.306,1.609
		c-0.209,0.391-0.501,0.69-0.895,0.91c-0.385,0.213-0.812,0.326-1.277,0.326c-0.743,0-1.337-0.244-1.795-0.717
		C699.453,63.029,699.225,62.344,699.225,61.45 M700.148,61.45c0,0.676,0.146,1.19,0.438,1.527c0.295,0.332,0.669,0.505,1.116,0.505
		c0.446,0,0.815-0.178,1.109-0.516c0.295-0.337,0.443-0.852,0.443-1.543c0-0.659-0.148-1.143-0.443-1.485
		c-0.297-0.337-0.667-0.51-1.109-0.51c-0.447,0-0.821,0.173-1.116,0.504C700.295,60.266,700.148,60.775,700.148,61.45"/>
	<path fill="#FFFFFF" d="M705.229,66.12v-7.309h0.815v0.686c0.189-0.275,0.407-0.473,0.65-0.604
		c0.242-0.134,0.536-0.202,0.882-0.202c0.452,0,0.848,0.115,1.196,0.349c0.342,0.233,0.606,0.562,0.783,0.981
		c0.168,0.421,0.26,0.888,0.26,1.387c0,0.547-0.096,1.035-0.291,1.461c-0.192,0.436-0.473,0.769-0.848,1.002
		c-0.368,0.229-0.757,0.348-1.164,0.348c-0.299,0-0.569-0.072-0.803-0.189c-0.24-0.127-0.435-0.288-0.588-0.48v2.571H705.229z
		 M706.04,61.481c0,0.676,0.136,1.184,0.412,1.506c0.274,0.328,0.608,0.495,1,0.495c0.4,0,0.744-0.173,1.023-0.505
		c0.282-0.337,0.424-0.867,0.424-1.573c0-0.671-0.133-1.175-0.412-1.512c-0.275-0.338-0.611-0.5-0.997-0.5
		c-0.378,0-0.718,0.178-1.007,0.53C706.188,60.281,706.04,60.801,706.04,61.481"/>
	<path fill="#FFFFFF" d="M714.513,62.396l0.925,0.108c-0.14,0.54-0.41,0.97-0.806,1.262c-0.399,0.297-0.9,0.452-1.517,0.452
		c-0.774,0-1.387-0.244-1.84-0.717c-0.451-0.483-0.675-1.147-0.675-2.005c0-0.888,0.226-1.58,0.686-2.073
		c0.458-0.488,1.05-0.732,1.783-0.732c0.706,0,1.279,0.239,1.732,0.722c0.441,0.479,0.672,1.159,0.672,2.026
		c0,0.058-0.003,0.136-0.005,0.24h-3.942c0.03,0.581,0.197,1.023,0.492,1.334c0.295,0.313,0.66,0.469,1.106,0.469
		c0.325,0,0.606-0.089,0.837-0.267C714.195,63.045,714.38,62.774,714.513,62.396 M711.577,60.946h2.949
		c-0.039-0.452-0.154-0.778-0.338-1.003c-0.289-0.342-0.661-0.52-1.115-0.52c-0.404,0-0.753,0.141-1.031,0.415
		C711.755,60.11,711.604,60.484,711.577,60.946"/>
	<path fill="#FFFFFF" d="M720.027,64.1V63.32c-0.407,0.593-0.969,0.898-1.675,0.898c-0.313,0-0.601-0.062-0.874-0.182
		c-0.27-0.124-0.47-0.271-0.605-0.451c-0.127-0.182-0.221-0.401-0.272-0.665c-0.038-0.178-0.051-0.453-0.051-0.842v-3.268h0.893
		v2.93c0,0.467,0.016,0.784,0.055,0.946c0.055,0.237,0.174,0.42,0.36,0.555c0.183,0.131,0.408,0.197,0.676,0.197
		c0.266,0,0.52-0.066,0.759-0.202c0.233-0.14,0.399-0.328,0.499-0.565c0.098-0.235,0.147-0.577,0.147-1.03v-2.83h0.894V64.1H720.027
		z"/>
	<path fill="#FFFFFF" d="M721.878,62.515l0.884-0.14c0.053,0.353,0.189,0.628,0.422,0.82c0.222,0.188,0.539,0.287,0.95,0.287
		c0.404,0,0.717-0.089,0.911-0.256c0.202-0.166,0.302-0.368,0.302-0.586c0-0.204-0.092-0.37-0.263-0.483
		c-0.124-0.078-0.431-0.183-0.919-0.302c-0.656-0.167-1.106-0.307-1.361-0.427c-0.26-0.124-0.452-0.291-0.578-0.509
		c-0.134-0.216-0.196-0.446-0.196-0.712c0-0.233,0.05-0.451,0.162-0.653c0.105-0.193,0.253-0.364,0.436-0.499
		c0.141-0.104,0.328-0.193,0.572-0.26c0.237-0.067,0.497-0.104,0.779-0.104c0.41,0,0.772,0.058,1.085,0.171
		c0.317,0.12,0.548,0.29,0.695,0.495c0.146,0.197,0.252,0.473,0.31,0.814l-0.877,0.12c-0.039-0.271-0.154-0.483-0.344-0.64
		c-0.194-0.15-0.465-0.229-0.808-0.229c-0.415,0-0.709,0.068-0.88,0.209c-0.183,0.135-0.268,0.29-0.268,0.473
		c0,0.119,0.035,0.223,0.108,0.315c0.075,0.095,0.19,0.178,0.349,0.239c0.083,0.031,0.354,0.104,0.789,0.229
		c0.634,0.171,1.076,0.306,1.328,0.415c0.249,0.104,0.443,0.266,0.586,0.468c0.144,0.207,0.217,0.462,0.217,0.769
		c0,0.302-0.089,0.582-0.26,0.848c-0.178,0.26-0.427,0.467-0.76,0.612c-0.326,0.141-0.695,0.218-1.111,0.218
		c-0.687,0-1.215-0.146-1.574-0.431C722.206,63.502,721.978,63.076,721.878,62.515"/>
	<polygon fill="#FFFFFF" points="646.995,76.329 646.995,69.03 652.272,69.03 652.272,69.892 647.961,69.892 647.961,72.127 
		651.997,72.127 651.997,72.988 647.961,72.988 647.961,75.472 652.444,75.472 652.444,76.329 	"/>
	<path fill="#FFFFFF" d="M653.302,74.744l0.888-0.136c0.052,0.354,0.188,0.629,0.416,0.821c0.226,0.188,0.542,0.28,0.95,0.28
		c0.415,0,0.717-0.082,0.919-0.249c0.197-0.171,0.294-0.363,0.294-0.593c0-0.2-0.086-0.363-0.263-0.478
		c-0.121-0.077-0.425-0.177-0.916-0.301c-0.652-0.167-1.109-0.31-1.364-0.432c-0.252-0.119-0.446-0.29-0.577-0.504
		c-0.132-0.208-0.196-0.452-0.196-0.712c0-0.229,0.055-0.451,0.161-0.648c0.108-0.202,0.255-0.369,0.441-0.504
		c0.135-0.104,0.329-0.187,0.569-0.26c0.241-0.073,0.501-0.109,0.775-0.109c0.414,0,0.776,0.063,1.091,0.183
		c0.313,0.118,0.546,0.275,0.696,0.488c0.146,0.202,0.249,0.471,0.307,0.814l-0.877,0.12c-0.042-0.271-0.151-0.483-0.344-0.64
		c-0.191-0.15-0.459-0.233-0.811-0.233c-0.41,0-0.706,0.072-0.883,0.207c-0.172,0.141-0.262,0.297-0.262,0.484
		c0,0.113,0.039,0.213,0.11,0.311c0.073,0.1,0.188,0.171,0.344,0.235c0.089,0.035,0.354,0.113,0.79,0.232
		c0.633,0.172,1.079,0.307,1.323,0.416c0.256,0.104,0.453,0.264,0.593,0.473c0.141,0.202,0.217,0.457,0.217,0.759
		c0,0.307-0.086,0.587-0.263,0.847c-0.172,0.264-0.427,0.468-0.753,0.612c-0.33,0.146-0.702,0.213-1.117,0.213
		c-0.686,0-1.205-0.14-1.569-0.426C653.633,75.731,653.402,75.311,653.302,74.744"/>
	<path fill="#FFFFFF" d="M660.711,75.528l0.133,0.79c-0.254,0.051-0.478,0.082-0.675,0.082c-0.33,0-0.582-0.056-0.761-0.16
		c-0.179-0.1-0.305-0.233-0.377-0.406c-0.072-0.166-0.107-0.513-0.107-1.048v-3.045h-0.656v-0.702h0.656v-1.303l0.887-0.546v1.849
		h0.9v0.702h-0.9v3.085c0,0.256,0.021,0.427,0.049,0.5c0.032,0.066,0.084,0.129,0.158,0.171c0.068,0.042,0.17,0.058,0.305,0.058
		C660.424,75.555,660.551,75.544,660.711,75.528"/>
	<path fill="#FFFFFF" d="M661.579,76.329v-5.29h0.806v0.801c0.21-0.368,0.399-0.618,0.571-0.736c0.174-0.12,0.367-0.183,0.573-0.183
		c0.302,0,0.608,0.099,0.92,0.291l-0.312,0.831c-0.218-0.13-0.434-0.191-0.65-0.191c-0.195,0-0.373,0.056-0.528,0.176
		c-0.159,0.119-0.266,0.275-0.333,0.488c-0.104,0.321-0.15,0.67-0.15,1.043v2.771H661.579z"/>
	<path fill="#FFFFFF" d="M668.447,76.329V75.55c-0.41,0.598-0.969,0.893-1.676,0.893c-0.312,0-0.603-0.058-0.873-0.176
		c-0.27-0.119-0.467-0.268-0.602-0.447c-0.133-0.183-0.225-0.405-0.278-0.665c-0.036-0.177-0.055-0.452-0.055-0.841v-3.274h0.898
		v2.937c0,0.47,0.019,0.784,0.052,0.944c0.058,0.234,0.178,0.422,0.36,0.557c0.181,0.129,0.403,0.197,0.679,0.197
		c0.266,0,0.52-0.068,0.754-0.202c0.233-0.138,0.401-0.328,0.504-0.562c0.094-0.239,0.145-0.588,0.145-1.034v-2.837h0.896v5.29
		H668.447z"/>
	<path fill="#FFFFFF" d="M672.611,75.528l0.129,0.79c-0.255,0.051-0.478,0.082-0.675,0.082c-0.33,0-0.58-0.056-0.764-0.16
		c-0.174-0.1-0.302-0.233-0.375-0.406c-0.071-0.166-0.108-0.513-0.108-1.048v-3.045h-0.656v-0.702h0.656v-1.303l0.894-0.546v1.849
		h0.899v0.702h-0.899v3.085c0,0.256,0.01,0.427,0.047,0.5c0.031,0.066,0.083,0.129,0.155,0.171c0.067,0.042,0.172,0.058,0.302,0.058
		C672.314,75.555,672.449,75.544,672.611,75.528"/>
	<path fill="#FFFFFF" d="M676.946,76.329V75.55c-0.408,0.598-0.969,0.893-1.671,0.893c-0.313,0-0.602-0.058-0.877-0.176
		c-0.271-0.119-0.468-0.268-0.604-0.447c-0.128-0.183-0.224-0.405-0.272-0.665c-0.039-0.177-0.058-0.452-0.058-0.841v-3.274h0.896
		v2.937c0,0.47,0.016,0.784,0.054,0.944c0.062,0.234,0.178,0.422,0.361,0.557c0.178,0.129,0.409,0.197,0.678,0.197
		c0.264,0,0.52-0.068,0.755-0.202c0.234-0.138,0.401-0.328,0.501-0.562c0.093-0.239,0.145-0.588,0.145-1.034v-2.837h0.897v5.29
		H676.946z"/>
	<path fill="#FFFFFF" d="M679.146,76.329v-5.29h0.806v0.801c0.205-0.368,0.398-0.618,0.57-0.736c0.173-0.12,0.364-0.183,0.576-0.183
		c0.3,0,0.606,0.099,0.916,0.291l-0.304,0.831c-0.221-0.13-0.44-0.191-0.658-0.191c-0.197,0-0.371,0.056-0.53,0.176
		c-0.155,0.119-0.269,0.275-0.331,0.488c-0.1,0.321-0.15,0.67-0.15,1.043v2.771H679.146z"/>
	<path fill="#FFFFFF" d="M685.998,75.674c-0.333,0.285-0.65,0.482-0.961,0.603c-0.302,0.108-0.635,0.166-0.981,0.166
		c-0.582,0-1.029-0.14-1.344-0.42c-0.312-0.286-0.465-0.65-0.465-1.087c0-0.26,0.054-0.498,0.177-0.716
		c0.12-0.208,0.271-0.379,0.462-0.51c0.193-0.136,0.406-0.229,0.645-0.291c0.172-0.051,0.441-0.093,0.794-0.14
		c0.729-0.078,1.26-0.187,1.598-0.307c0.008-0.124,0.008-0.197,0.008-0.233c0-0.364-0.082-0.62-0.252-0.774
		c-0.23-0.202-0.567-0.302-1.021-0.302c-0.426,0-0.732,0.078-0.938,0.22c-0.194,0.148-0.346,0.415-0.443,0.791l-0.876-0.123
		c0.081-0.373,0.21-0.68,0.396-0.908c0.179-0.233,0.443-0.41,0.796-0.535c0.339-0.124,0.736-0.187,1.19-0.187
		c0.452,0,0.821,0.052,1.101,0.16c0.283,0.104,0.488,0.24,0.624,0.406c0.132,0.155,0.229,0.357,0.28,0.606
		c0.029,0.146,0.042,0.426,0.042,0.827v1.195c0,0.83,0.021,1.355,0.061,1.573c0.035,0.223,0.11,0.436,0.226,0.64h-0.936
		C686.084,76.141,686.024,75.923,685.998,75.674 M685.922,73.679c-0.322,0.124-0.812,0.239-1.462,0.338
		c-0.369,0.053-0.628,0.104-0.781,0.172c-0.148,0.067-0.273,0.165-0.354,0.296c-0.079,0.124-0.121,0.271-0.121,0.426
		c0,0.233,0.089,0.442,0.271,0.598c0.181,0.16,0.44,0.239,0.792,0.239c0.345,0,0.654-0.079,0.922-0.229
		c0.27-0.146,0.462-0.359,0.593-0.619c0.098-0.202,0.142-0.504,0.142-0.896V73.679z"/>
	<path fill="#FFFFFF" d="M688.224,69.03h0.896v1.027h-0.896V69.03z M688.224,71.039h0.896v5.29h-0.896V71.039z"/>
	<path fill="#FFFFFF" d="M690.123,74.744l0.888-0.136c0.052,0.354,0.193,0.629,0.42,0.821c0.225,0.188,0.542,0.28,0.949,0.28
		c0.413,0,0.717-0.082,0.918-0.249c0.195-0.171,0.295-0.363,0.295-0.593c0-0.2-0.085-0.363-0.265-0.478
		c-0.119-0.077-0.429-0.177-0.909-0.301c-0.66-0.167-1.114-0.31-1.372-0.432c-0.252-0.119-0.443-0.29-0.575-0.504
		c-0.131-0.208-0.198-0.452-0.198-0.712c0-0.229,0.055-0.451,0.16-0.648c0.115-0.202,0.259-0.369,0.442-0.504
		c0.14-0.104,0.329-0.187,0.57-0.26c0.243-0.073,0.499-0.109,0.774-0.109c0.416,0,0.778,0.063,1.092,0.183
		c0.316,0.118,0.548,0.275,0.692,0.488c0.151,0.202,0.252,0.471,0.31,0.814l-0.872,0.12c-0.042-0.271-0.156-0.483-0.346-0.64
		c-0.197-0.15-0.46-0.233-0.813-0.233c-0.41,0-0.706,0.072-0.877,0.207c-0.178,0.141-0.268,0.297-0.268,0.484
		c0,0.113,0.04,0.213,0.116,0.311c0.067,0.1,0.183,0.171,0.338,0.235c0.089,0.035,0.357,0.113,0.79,0.232
		c0.633,0.172,1.079,0.307,1.33,0.416c0.249,0.104,0.446,0.264,0.593,0.473c0.145,0.202,0.206,0.457,0.206,0.759
		c0,0.307-0.082,0.587-0.26,0.847c-0.171,0.264-0.423,0.468-0.752,0.612c-0.329,0.146-0.702,0.213-1.117,0.213
		c-0.686,0-1.205-0.14-1.572-0.426C690.456,75.731,690.224,75.311,690.123,74.744"/>
	<path fill="#FFFFFF" d="M702.029,74.624l0.93,0.115c-0.147,0.54-0.423,0.96-0.811,1.26c-0.395,0.299-0.903,0.443-1.516,0.443
		c-0.775,0-1.388-0.239-1.841-0.711c-0.45-0.473-0.678-1.143-0.678-2.006c0-0.889,0.231-1.579,0.689-2.072
		c0.452-0.488,1.05-0.732,1.779-0.732c0.709,0,1.286,0.238,1.732,0.722c0.446,0.484,0.672,1.152,0.672,2.036
		c0,0.047-0.002,0.124-0.002,0.233h-3.942c0.031,0.583,0.197,1.029,0.493,1.341c0.291,0.302,0.659,0.457,1.098,0.457
		c0.336,0,0.611-0.082,0.85-0.255C701.71,75.279,701.9,75.004,702.029,74.624 M699.09,73.175h2.95
		c-0.037-0.441-0.155-0.779-0.338-0.997c-0.283-0.349-0.654-0.524-1.108-0.524c-0.411,0-0.759,0.141-1.038,0.416
		C699.276,72.349,699.12,72.718,699.09,73.175"/>
	<path fill="#FFFFFF" d="M710.347,76.329v-0.666c-0.339,0.52-0.829,0.779-1.48,0.779c-0.421,0-0.806-0.108-1.165-0.342
		c-0.347-0.235-0.622-0.557-0.819-0.977c-0.193-0.416-0.291-0.895-0.291-1.439c0-0.52,0.09-1.003,0.268-1.429
		c0.168-0.438,0.438-0.759,0.792-0.992c0.348-0.225,0.737-0.343,1.177-0.343c0.319,0,0.6,0.067,0.852,0.202
		c0.247,0.136,0.449,0.307,0.604,0.524V69.03h0.892v7.299H710.347z M707.514,73.685c0,0.68,0.14,1.188,0.428,1.521
		c0.282,0.338,0.62,0.504,1.008,0.504c0.395,0,0.729-0.16,1.003-0.482c0.275-0.317,0.404-0.806,0.404-1.465
		c0-0.724-0.14-1.252-0.415-1.596c-0.28-0.333-0.618-0.504-1.028-0.504c-0.398,0-0.732,0.166-1.003,0.488
		C707.65,72.479,707.514,72.988,707.514,73.685"/>
	<path fill="#FFFFFF" d="M716.201,74.624l0.924,0.115c-0.14,0.54-0.415,0.96-0.811,1.26c-0.395,0.299-0.898,0.443-1.512,0.443
		c-0.772,0-1.386-0.239-1.838-0.711c-0.453-0.473-0.682-1.143-0.682-2.006c0-0.889,0.235-1.579,0.687-2.072
		c0.457-0.488,1.061-0.732,1.787-0.732c0.701,0,1.283,0.238,1.732,0.722c0.444,0.484,0.673,1.152,0.673,2.036
		c0,0.047-0.006,0.124-0.011,0.233h-3.939c0.033,0.583,0.199,1.029,0.49,1.341c0.297,0.302,0.665,0.457,1.104,0.457
		c0.332,0,0.609-0.082,0.844-0.255C715.884,75.279,716.066,75.004,716.201,74.624 M713.26,73.175h2.954
		c-0.039-0.441-0.152-0.779-0.342-0.997c-0.282-0.349-0.655-0.524-1.109-0.524c-0.414,0-0.754,0.141-1.031,0.416
		C713.442,72.349,713.29,72.718,713.26,73.175"/>
	<rect x="721.365" y="69.03" fill="#FFFFFF" width="0.963" height="7.299"/>
	<path fill="#FFFFFF" d="M723.917,76.329v-5.29h0.81v0.755c0.384-0.582,0.947-0.873,1.68-0.873c0.32,0,0.611,0.063,0.88,0.171
		c0.266,0.114,0.465,0.265,0.599,0.451c0.134,0.188,0.228,0.406,0.28,0.661c0.034,0.171,0.05,0.457,0.05,0.873v3.252h-0.897v-3.214
		c0-0.366-0.036-0.642-0.103-0.817c-0.073-0.187-0.193-0.328-0.375-0.438c-0.176-0.108-0.388-0.166-0.624-0.166
		c-0.384,0-0.71,0.124-0.985,0.368c-0.282,0.24-0.414,0.697-0.414,1.378v2.889H723.917z"/>
	<path fill="#FFFFFF" d="M731.054,76.329l-2.012-5.29h0.952l1.132,3.17c0.125,0.343,0.233,0.695,0.338,1.065
		c0.081-0.281,0.187-0.614,0.333-1.008l1.173-3.228h0.925l-2.005,5.29H731.054z"/>
	<path fill="#FFFFFF" d="M738.3,74.624l0.93,0.115c-0.143,0.54-0.418,0.96-0.811,1.26c-0.395,0.299-0.9,0.443-1.516,0.443
		c-0.771,0-1.383-0.239-1.84-0.711c-0.447-0.473-0.68-1.143-0.68-2.006c0-0.889,0.232-1.579,0.69-2.072
		c0.457-0.488,1.05-0.732,1.775-0.732c0.71,0,1.29,0.238,1.736,0.722c0.446,0.484,0.67,1.152,0.67,2.036
		c0,0.047,0,0.124-0.003,0.233h-3.939c0.031,0.583,0.197,1.029,0.488,1.341c0.296,0.302,0.67,0.457,1.109,0.457
		c0.326,0,0.607-0.082,0.841-0.255C737.985,75.279,738.164,75.004,738.3,74.624 M735.361,73.175h2.954
		c-0.041-0.441-0.159-0.779-0.338-0.997c-0.286-0.349-0.656-0.524-1.116-0.524c-0.411,0-0.748,0.141-1.034,0.416
		C735.547,72.349,735.392,72.718,735.361,73.175"/>
	<path fill="#FFFFFF" d="M739.996,74.744l0.886-0.136c0.046,0.354,0.187,0.629,0.415,0.821c0.227,0.188,0.541,0.28,0.952,0.28
		c0.415,0,0.714-0.082,0.916-0.249c0.2-0.171,0.299-0.363,0.299-0.593c0-0.2-0.089-0.363-0.265-0.478
		c-0.123-0.077-0.427-0.177-0.915-0.301c-0.654-0.167-1.105-0.31-1.36-0.432c-0.26-0.119-0.453-0.29-0.582-0.504
		c-0.128-0.208-0.197-0.452-0.197-0.712c0-0.229,0.051-0.451,0.166-0.648c0.104-0.202,0.247-0.369,0.436-0.504
		c0.142-0.104,0.333-0.187,0.572-0.26c0.238-0.073,0.496-0.109,0.771-0.109c0.415,0,0.781,0.063,1.094,0.183
		c0.317,0.118,0.543,0.275,0.695,0.488c0.146,0.202,0.252,0.471,0.307,0.814l-0.875,0.12c-0.042-0.271-0.155-0.483-0.348-0.64
		c-0.19-0.15-0.461-0.233-0.808-0.233c-0.41,0-0.704,0.072-0.882,0.207c-0.176,0.141-0.265,0.297-0.265,0.484
		c0,0.113,0.039,0.213,0.112,0.311c0.074,0.1,0.184,0.171,0.342,0.235c0.089,0.035,0.352,0.113,0.79,0.232
		c0.637,0.172,1.081,0.307,1.33,0.416c0.249,0.104,0.441,0.264,0.587,0.473c0.143,0.202,0.216,0.457,0.216,0.759
		c0,0.307-0.086,0.587-0.263,0.847c-0.176,0.264-0.425,0.468-0.753,0.612c-0.333,0.146-0.698,0.213-1.117,0.213
		c-0.683,0-1.205-0.14-1.569-0.426C740.329,75.731,740.098,75.311,739.996,74.744"/>
	<path fill="#FFFFFF" d="M747.406,75.528l0.124,0.79c-0.245,0.051-0.474,0.082-0.675,0.082c-0.322,0-0.57-0.056-0.753-0.16
		c-0.179-0.1-0.31-0.233-0.383-0.406c-0.069-0.166-0.105-0.513-0.105-1.048v-3.045h-0.654v-0.702h0.654v-1.303l0.895-0.546v1.849
		h0.897v0.702h-0.897v3.085c0,0.256,0.01,0.427,0.047,0.5c0.027,0.066,0.082,0.129,0.149,0.171c0.072,0.042,0.177,0.058,0.31,0.058
		C747.114,75.555,747.246,75.544,747.406,75.528"/>
	<path fill="#FFFFFF" d="M748.29,69.03h0.894v1.027h-0.894V69.03z M748.29,71.039h0.894v5.29h-0.894V71.039z"/>
	<path fill="#FFFFFF" d="M750.547,76.329v-5.29h0.801v0.748c0.166-0.264,0.389-0.473,0.662-0.633
		c0.275-0.15,0.591-0.233,0.939-0.233c0.396,0,0.717,0.083,0.966,0.244c0.251,0.167,0.43,0.389,0.53,0.687
		c0.424-0.619,0.962-0.931,1.632-0.931c0.527,0,0.927,0.145,1.21,0.436s0.423,0.737,0.423,1.346v3.627h-0.891v-3.336
		c0-0.354-0.031-0.613-0.087-0.773c-0.058-0.157-0.165-0.281-0.317-0.38c-0.148-0.093-0.333-0.146-0.535-0.146
		c-0.375,0-0.687,0.124-0.927,0.375c-0.243,0.248-0.367,0.644-0.367,1.189v3.07h-0.899v-3.438c0-0.396-0.071-0.692-0.218-0.89
		c-0.147-0.198-0.389-0.307-0.717-0.307c-0.254,0-0.482,0.068-0.695,0.208c-0.216,0.125-0.375,0.317-0.468,0.577
		c-0.099,0.254-0.145,0.629-0.145,1.106v2.743H750.547z"/>
	<path fill="#FFFFFF" d="M762.659,74.624l0.924,0.115c-0.143,0.54-0.415,0.96-0.81,1.26c-0.397,0.299-0.901,0.443-1.514,0.443
		c-0.771,0-1.386-0.239-1.843-0.711c-0.451-0.473-0.677-1.143-0.677-2.006c0-0.889,0.229-1.579,0.685-2.072
		c0.46-0.488,1.053-0.732,1.785-0.732c0.706,0,1.284,0.238,1.734,0.722c0.441,0.484,0.67,1.152,0.67,2.036
		c0,0.047,0,0.124-0.005,0.233h-3.942c0.034,0.583,0.197,1.029,0.49,1.341c0.298,0.302,0.665,0.457,1.104,0.457
		c0.333,0,0.611-0.082,0.842-0.255C762.338,75.279,762.518,75.004,762.659,74.624 M759.717,73.175h2.952
		c-0.041-0.441-0.155-0.779-0.338-0.997c-0.284-0.349-0.659-0.524-1.112-0.524c-0.412,0-0.756,0.141-1.032,0.416
		C759.9,72.349,759.745,72.718,759.717,73.175"/>
	<path fill="#FFFFFF" d="M764.706,76.329v-5.29h0.808v0.755c0.392-0.582,0.948-0.873,1.686-0.873c0.317,0,0.613,0.063,0.878,0.171
		c0.267,0.114,0.465,0.265,0.597,0.451c0.136,0.188,0.224,0.406,0.281,0.661c0.031,0.171,0.05,0.457,0.05,0.873v3.252h-0.897v-3.214
		c0-0.366-0.035-0.642-0.108-0.817c-0.067-0.187-0.187-0.328-0.364-0.438c-0.176-0.108-0.389-0.166-0.628-0.166
		c-0.38,0-0.706,0.124-0.986,0.368c-0.275,0.24-0.417,0.697-0.417,1.378v2.889H764.706z"/>
	<path fill="#FFFFFF" d="M772.332,75.528l0.129,0.79c-0.249,0.051-0.474,0.082-0.675,0.082c-0.322,0-0.577-0.056-0.756-0.16
		c-0.179-0.1-0.304-0.233-0.38-0.406c-0.074-0.166-0.111-0.513-0.111-1.048v-3.045h-0.653v-0.702h0.653v-1.303l0.895-0.546v1.849
		h0.898v0.702h-0.898v3.085c0,0.256,0.015,0.427,0.049,0.5c0.033,0.066,0.078,0.129,0.153,0.171
		c0.069,0.042,0.174,0.058,0.305,0.058C772.038,75.555,772.174,75.544,772.332,75.528"/>
	<path fill="#FFFFFF" d="M772.878,73.685c0-0.982,0.27-1.704,0.812-2.173c0.455-0.392,1.012-0.591,1.668-0.591
		c0.725,0,1.317,0.238,1.779,0.711c0.465,0.479,0.692,1.139,0.692,1.98c0,0.675-0.1,1.214-0.302,1.6
		c-0.209,0.394-0.504,0.695-0.892,0.909c-0.392,0.218-0.818,0.321-1.278,0.321c-0.74,0-1.338-0.229-1.795-0.711
		C773.105,75.259,772.878,74.578,772.878,73.685 M773.799,73.685c0,0.68,0.143,1.184,0.44,1.521
		c0.295,0.338,0.667,0.504,1.118,0.504c0.441,0,0.811-0.166,1.107-0.504c0.299-0.338,0.443-0.856,0.443-1.548
		c0-0.654-0.145-1.153-0.446-1.491c-0.294-0.333-0.664-0.504-1.104-0.504c-0.451,0-0.823,0.166-1.118,0.504
		C773.941,72.505,773.799,73.009,773.799,73.685"/>
</g>
</svg>
