<?xml version="1.0" encoding="utf-8"?>
<!-- Generator: Adobe Illustrator 16.0.0, SVG Export Plug-In . SVG Version: 6.00 Build 0)  -->
<!DOCTYPE svg PUBLIC "-//W3C//DTD SVG 1.1//EN" "http://www.w3.org/Graphics/SVG/1.1/DTD/svg11.dtd">
<svg version="1.1" id="Capa_1" xmlns="http://www.w3.org/2000/svg" xmlns:xlink="http://www.w3.org/1999/xlink" x="0px" y="0px"
	 width="40px" height="20px" viewBox="121.73 131.73 40 20" enable-background="new 121.73 131.73 40 20" xml:space="preserve">
<g>
	<g>
		<path fill="#FFFFFF" d="M140.378,142.412c-0.034,2.262-0.932,4.389-2.533,5.99c-3.372,3.373-8.861,3.373-12.234,0
			s-3.373-8.863,0-12.236c3.199-3.198,8.299-3.363,11.695-0.496l-3.061,0.788l0.155,0.752l4.416-1.046l-0.022-0.022l0.018-0.004
			l-0.859-4.377l-0.743,0.195l0.627,3.159c-3.696-3.155-9.274-2.987-12.769,0.507c-3.673,3.673-3.673,9.649,0,13.322
			c3.673,3.672,9.648,3.672,13.322,0c1.741-1.742,2.721-4.06,2.757-6.521L140.378,142.412z"/>
	</g>
</g>
<g>
	<g>
		<path fill="#0099A8" d="M160.378,142.412c-0.034,2.262-0.932,4.389-2.533,5.99c-3.372,3.373-8.861,3.373-12.234,0
			s-3.373-8.863,0-12.235c3.199-3.198,8.3-3.363,11.695-0.496l-3.061,0.788l0.155,0.752l4.416-1.046l-0.022-0.022l0.018-0.004
			l-0.859-4.377l-0.743,0.195l0.627,3.159c-3.696-3.155-9.274-2.987-12.769,0.507c-3.673,3.673-3.673,9.65,0,13.322
			s9.648,3.672,13.322,0c1.741-1.742,2.721-4.059,2.757-6.521L160.378,142.412z"/>
	</g>
</g>
</svg>
