<?xml version="1.0" encoding="utf-8"?>
<!-- Generator: Adobe Illustrator 16.0.0, SVG Export Plug-In . SVG Version: 6.00 Build 0)  -->
<!DOCTYPE svg PUBLIC "-//W3C//DTD SVG 1.1//EN" "http://www.w3.org/Graphics/SVG/1.1/DTD/svg11.dtd">
<svg version="1.1" id="Capa_1" xmlns="http://www.w3.org/2000/svg" xmlns:xlink="http://www.w3.org/1999/xlink" x="0px" y="0px"
	 width="40px" height="28.125px" viewBox="2.521 -11.584 40 28.125" enable-background="new 2.521 -11.584 40 28.125"
	 xml:space="preserve">
<g>
	<g>
		<polygon fill="#0099A8" points="15.981,3.46 15.461,3.979 21.113,9.632 2.521,9.632 2.521,10.368 21.115,10.368 15.461,16.02 
			15.981,16.54 22.521,10 		"/>
	</g>
</g>
<g>
	<g>
		<polygon fill="#0099A8" points="29.062,16.54 29.582,16.021 23.93,10.368 42.521,10.368 42.521,9.632 23.928,9.632 29.582,3.98 
			29.062,3.46 22.521,10 		"/>
	</g>
</g>
<g>
	<g>
		<polygon fill="#FFFFFF" points="15.981,-9.62 15.461,-9.101 21.113,-3.448 2.521,-3.448 2.521,-2.712 21.115,-2.712 15.461,2.939 
			15.981,3.46 22.521,-3.08 		"/>
	</g>
</g>
<g>
	<g>
		<polygon fill="#FFFFFF" points="29.062,3.46 29.582,2.941 23.93,-2.712 42.521,-2.712 42.521,-3.448 23.928,-3.448 29.582,-9.1 
			29.062,-9.62 22.521,-3.08 		"/>
	</g>
</g>
</svg>
