<?xml version="1.0" encoding="utf-8"?>
<!-- Generator: Adobe Illustrator 16.0.0, SVG Export Plug-In . SVG Version: 6.00 Build 0)  -->
<!DOCTYPE svg PUBLIC "-//W3C//DTD SVG 1.0//EN" "http://www.w3.org/TR/2001/REC-SVG-20010904/DTD/svg10.dtd" [
	<!ENTITY ns_flows "http://ns.adobe.com/Flows/1.0/">
	<!ENTITY ns_extend "http://ns.adobe.com/Extensibility/1.0/">
	<!ENTITY ns_ai "http://ns.adobe.com/AdobeIllustrator/10.0/">
	<!ENTITY ns_graphs "http://ns.adobe.com/Graphs/1.0/">
]>
<svg version="1.0" id="Capa_1" xmlns:x="&ns_extend;" xmlns:i="&ns_ai;" xmlns:graph="&ns_graphs;"
	 xmlns="http://www.w3.org/2000/svg" xmlns:xlink="http://www.w3.org/1999/xlink" xmlns:a="http://ns.adobe.com/AdobeSVGViewerExtensions/3.0/"
	 x="0px" y="0px" width="40px" height="20.008px" viewBox="277.64 410.946 40 20.008"
	 enable-background="new 277.64 410.946 40 20.008" xml:space="preserve">
<g>
	<g>
		<path fill="#FFFFFF" d="M297.222,426.767l-3.089-3.095c-0.616-0.615-1.634-0.596-2.271,0.043l-1.556,1.56
			c-0.098-0.055-0.2-0.111-0.307-0.171c-0.982-0.547-2.327-1.294-3.743-2.714c-1.419-1.422-2.166-2.772-2.712-3.758
			c-0.058-0.105-0.113-0.205-0.168-0.301l1.044-1.045l0.514-0.515c0.638-0.639,0.655-1.661,0.042-2.276l-3.089-3.097
			c-0.613-0.615-1.632-0.596-2.27,0.042l-0.872,0.878l0.025,0.023c-0.292,0.374-0.537,0.804-0.718,1.268
			c-0.167,0.442-0.271,0.864-0.319,1.286c-0.407,3.389,1.137,6.486,5.33,10.688c5.796,5.81,10.467,5.371,10.669,5.35
			c0.439-0.053,0.859-0.159,1.287-0.324c0.458-0.18,0.889-0.424,1.261-0.716l0.018,0.017l0.883-0.865
			C297.816,428.406,297.835,427.385,297.222,426.767z M296.495,428.357l-0.39,0.39l-0.155,0.148
			c-0.244,0.236-0.666,0.567-1.281,0.809c-0.351,0.135-0.694,0.222-1.046,0.265c-0.044,0.005-4.438,0.38-9.875-5.07
			c-4.624-4.633-5.364-7.303-5.054-9.889c0.039-0.343,0.125-0.688,0.263-1.048c0.242-0.621,0.573-1.043,0.807-1.289l0.538-0.543
			c0.259-0.26,0.663-0.28,0.899-0.042l3.089,3.095c0.236,0.238,0.218,0.643-0.042,0.903l-2.086,2.088l0.193,0.325
			c0.106,0.181,0.22,0.384,0.341,0.604c0.574,1.037,1.359,2.457,2.875,3.974c1.512,1.518,2.925,2.304,3.958,2.877
			c0.224,0.123,0.426,0.237,0.609,0.346l0.324,0.192l2.084-2.09c0.261-0.259,0.665-0.277,0.901-0.042l3.087,3.095
			C296.773,427.693,296.753,428.097,296.495,428.357z"/>
	</g>
</g>
<g>
	<g>
		<path fill="#0099A8" d="M317.221,426.943l-3.089-3.095c-0.616-0.615-1.634-0.596-2.271,0.043l-1.556,1.56
			c-0.098-0.055-0.199-0.111-0.307-0.171c-0.982-0.547-2.327-1.294-3.743-2.714c-1.419-1.423-2.166-2.772-2.712-3.758
			c-0.058-0.104-0.113-0.205-0.168-0.301l1.044-1.045l0.514-0.515c0.638-0.639,0.655-1.661,0.041-2.276l-3.089-3.097
			c-0.612-0.615-1.632-0.596-2.269,0.042l-0.873,0.878l0.025,0.023c-0.291,0.374-0.536,0.804-0.717,1.268
			c-0.167,0.442-0.271,0.863-0.319,1.287c-0.407,3.388,1.136,6.486,5.331,10.687c5.795,5.81,10.467,5.371,10.668,5.35
			c0.439-0.053,0.86-0.159,1.287-0.324c0.459-0.18,0.89-0.424,1.262-0.716l0.017,0.017l0.884-0.865
			C317.816,428.582,317.836,427.561,317.221,426.943z M316.495,428.532l-0.39,0.39l-0.154,0.148
			c-0.245,0.236-0.666,0.567-1.282,0.809c-0.35,0.135-0.693,0.222-1.045,0.265c-0.045,0.005-4.438,0.38-9.876-5.07
			c-4.624-4.633-5.363-7.303-5.053-9.889c0.038-0.342,0.124-0.687,0.262-1.047c0.243-0.621,0.573-1.043,0.807-1.289l0.539-0.543
			c0.259-0.26,0.662-0.28,0.898-0.042l3.088,3.095c0.237,0.237,0.219,0.643-0.04,0.903l-2.087,2.089l0.192,0.325
			c0.107,0.182,0.221,0.384,0.341,0.604c0.574,1.037,1.359,2.457,2.875,3.974c1.513,1.518,2.926,2.304,3.958,2.877
			c0.225,0.123,0.427,0.237,0.609,0.346l0.324,0.192l2.085-2.09c0.261-0.259,0.665-0.277,0.901-0.042l3.088,3.095
			C316.772,427.868,316.753,428.273,316.495,428.532z"/>
	</g>
</g>
</svg>
