<?xml version="1.0" encoding="utf-8"?>
<!-- Generator: Adobe Illustrator 16.0.0, SVG Export Plug-In . SVG Version: 6.00 Build 0)  -->
<!DOCTYPE svg PUBLIC "-//W3C//DTD SVG 1.1//EN" "http://www.w3.org/Graphics/SVG/1.1/DTD/svg11.dtd">
<svg version="1.1" id="Capa_1" xmlns="http://www.w3.org/2000/svg" xmlns:xlink="http://www.w3.org/1999/xlink" x="0px" y="0px"
	 width="49.999px" height="20px" viewBox="0 0.05 49.999 20" enable-background="new 0 0.05 49.999 20" xml:space="preserve">
<g>
	<g>
		<path fill="#0099A8" d="M25.001,2.466c-0.92,0.401-1.906,0.674-2.949,0.795c1.063-0.624,1.876-1.615,2.259-2.791
			c-0.996,0.578-2.09,0.999-3.26,1.225C20.116,0.713,18.783,0.1,17.308,0.1c-2.832,0-5.129,2.262-5.129,5.05
			c0,0.396,0.046,0.781,0.135,1.15C8.05,6.09,4.271,4.08,1.742,1.024C1.3,1.767,1.051,2.637,1.051,3.56
			c0,1.754,0.905,3.301,2.278,4.206C2.489,7.738,1.698,7.51,1.007,7.13v0.063c0,2.447,1.768,4.488,4.111,4.952
			c-0.427,0.115-0.881,0.178-1.35,0.178c-0.332,0-0.652-0.03-0.967-0.093c0.654,2.007,2.549,3.47,4.792,3.506
			c-1.755,1.355-3.967,2.162-6.37,2.162c-0.415,0-0.823-0.026-1.223-0.071c2.268,1.438,4.963,2.274,7.862,2.274
			c9.436,0,14.587-7.695,14.587-14.371l-0.018-0.653C23.44,4.368,24.313,3.478,25.001,2.466z"/>
	</g>
</g>
<g>
	<g>
		<g>
			<g>
				<path fill="#0099A8" d="M42.309,0.808c1.221,0,2.397,0.5,3.228,1.375l0.269,0.28l0.381-0.073
					c0.441-0.085,0.876-0.198,1.302-0.335C47.25,2.28,46.98,2.479,46.693,2.648l-2.898,1.704l3.34-0.389
					c0.234-0.025,0.469-0.061,0.701-0.104c-0.256,0.226-0.524,0.438-0.808,0.635l-0.311,0.218l0.013,0.379l0.014,0.637
					c0,6.716-5.19,13.66-13.879,13.66c-1.711,0-3.396-0.309-4.974-0.909c1.872-0.273,3.624-1.016,5.137-2.184l1.603-1.236
					l-2.024-0.034c-1.502-0.025-2.858-0.794-3.643-1.999c0.454-0.016,0.906-0.081,1.34-0.197l2.938-0.79l-2.984-0.592
					c-1.682-0.332-2.985-1.594-3.399-3.206c0.47,0.136,0.959,0.214,1.45,0.232l2.514,0.083L28.72,7.173
					c-1.229-0.81-1.961-2.161-1.961-3.614c0-0.426,0.063-0.847,0.184-1.249c2.697,2.807,6.403,4.502,10.334,4.695l0.945,0.046
					l-0.22-0.918c-0.076-0.316-0.112-0.649-0.112-0.986C37.89,2.755,39.872,0.808,42.309,0.808 M42.309,0.099
					c-2.835,0-5.129,2.262-5.129,5.05c0,0.395,0.043,0.781,0.132,1.15c-4.261-0.21-8.043-2.22-10.57-5.276
					c-0.444,0.743-0.692,1.613-0.692,2.536c0,1.754,0.905,3.301,2.28,4.205c-0.843-0.027-1.634-0.255-2.322-0.635v0.062
					c0,2.448,1.768,4.489,4.111,4.953c-0.428,0.114-0.881,0.178-1.35,0.178c-0.333,0-0.652-0.03-0.967-0.093
					c0.654,2.006,2.549,3.469,4.793,3.506c-1.756,1.355-3.968,2.162-6.37,2.162c-0.415,0-0.823-0.026-1.226-0.071
					c2.269,1.438,4.966,2.274,7.861,2.274c9.437,0,14.588-7.695,14.588-14.371l-0.016-0.655c1.008-0.707,1.878-1.596,2.566-2.608
					c-0.921,0.401-1.906,0.674-2.947,0.795c1.063-0.624,1.872-1.615,2.259-2.791c-0.996,0.578-2.093,0.999-3.259,1.225
					C45.116,0.712,43.783,0.099,42.309,0.099L42.309,0.099z"/>
			</g>
		</g>
	</g>
	<g>
		<polygon fill="#FFFFFF" points="43.344,3.109 46.539,2.626 45.476,3.993 43.427,4.21 		"/>
		<path fill="#FFFFFF" d="M45.714,3.108l-0.427,0.547l-1.536,0.163l-0.029-0.408L45.714,3.108 M47.365,2.141l-4.403,0.668
			L43.1,4.601l2.562-0.271L47.365,2.141L47.365,2.141z"/>
	</g>
	<g>
		<polygon fill="#FFFFFF" points="45.233,3.917 46.859,4.093 45.248,5.121 		"/>
		<polygon fill="#FFFFFF" points="44.874,3.523 44.901,5.763 47.902,3.849 		"/>
	</g>
</g>
</svg>
