<svg id="Layer_1" data-name="Layer 1" xmlns="http://www.w3.org/2000/svg" viewBox="0 0 36 18">
  <defs>
    <style>
      .cls-1 {
        fill: #fff;
      }

      .cls-2 {
        fill: #4397a6;
      }
    </style>
  </defs>
  <g>
    <path class="cls-1" d="M9,3.7A2.7,2.7,0,0,0,6.2,6.5,2.7,2.7,0,0,0,9,9.3a2.7,2.7,0,0,0,2.8-2.8A2.7,2.7,0,0,0,9,3.7Z"/>
    <circle class="cls-1" cx="14" cy="16" r="2"/>
    <path class="cls-1" d="M11.2,16A2.9,2.9,0,0,1,14,13.2h.3c-.6-2-2.5-3.2-5.3-3.2s-5.6,1.9-5.6,4.7v.2A8,8,0,0,1,.9,9,8.1,8.1,0,0,1,17.1,9a7.5,7.5,0,0,1-1.5,4.7,1.7,1.7,0,0,1,.6.6A8.9,8.9,0,0,0,9,0,9,9,0,0,0,9,18a8.4,8.4,0,0,0,2.7-.4A3,3,0,0,1,11.2,16Z"/>
  </g>
  <g>
    <path class="cls-2" d="M27,3.7a2.7,2.7,0,0,0-2.8,2.8,2.8,2.8,0,0,0,5.6,0A2.7,2.7,0,0,0,27,3.7Z"/>
    <circle class="cls-1" cx="32" cy="16" r="2"/>
    <path class="cls-2" d="M29.2,16A2.9,2.9,0,0,1,32,13.2h.3c-.6-2-2.5-3.2-5.3-3.2s-5.6,1.9-5.6,4.7v.2A8,8,0,0,1,18.9,9,8.1,8.1,0,0,1,35.1,9a7.5,7.5,0,0,1-1.5,4.7l.6.6A9,9,0,1,0,18,9a9,9,0,0,0,9,9,8.4,8.4,0,0,0,2.7-.4A3,3,0,0,1,29.2,16Z"/>
  </g>
</svg>
